<svg width="128" height="126" viewBox="0 0 128 126" fill="none" xmlns="http://www.w3.org/2000/svg">
<path d="M112.465 106.785C109.213 110.138 106.302 112.109 104.074 113.597C82.3417 128.107 57.4996 123.925 49.819 122.496C37.4274 120.189 26.967 118.562 17.9798 110.443C-2.44194 91.9924 -1.44866 53.5038 14.1561 29.6618C16.0063 26.8348 31.5874 3.73881 56.4834 0.484359C57.0923 0.404754 57.5466 0.359438 57.9446 0.317318C61.7959 -0.0904273 85.6619 -2.24256 105.122 14.0613C107.908 16.3951 112.391 20.6047 116.548 27.0251C131.748 50.5008 131.796 86.8594 112.465 106.785Z" fill="url(#paint0_linear_1083_1144)"/>
<g opacity="0.3">
<path d="M81.6411 27.862C81.7753 27.7108 82.0067 27.6971 82.1579 27.8313C82.4516 28.0921 82.761 28.344 83.0775 28.58C83.2377 28.6994 83.2721 28.9248 83.1563 29.0865C83.1549 29.0884 83.1536 29.0903 83.1521 29.0923C83.0313 29.2543 82.8019 29.2877 82.6398 29.1668C82.3067 28.9184 81.9809 28.6532 81.6718 28.3787C81.5304 28.2532 81.5093 28.0426 81.617 27.8922C81.6245 27.8818 81.6324 27.8717 81.6411 27.862ZM84.6968 29.6231C85.0424 29.8137 85.3994 29.9913 85.7582 30.1511C85.9427 30.2333 86.0258 30.4497 85.9436 30.6343C85.8605 30.8194 85.6449 30.902 85.4603 30.8197C85.0828 30.6516 84.707 30.4647 84.3433 30.2643C84.1663 30.1667 84.102 29.944 84.1996 29.7669C84.2067 29.7541 84.2144 29.7418 84.2228 29.7302C84.3294 29.5814 84.5327 29.5326 84.6968 29.6231ZM87.5671 30.8101C87.9454 30.9187 88.333 31.0121 88.7193 31.0878C88.9176 31.1267 89.0469 31.3191 89.0081 31.5174C88.969 31.7156 88.7769 31.845 88.5785 31.8062C88.1716 31.7265 87.7634 31.6281 87.3651 31.5137C87.1708 31.458 87.0586 31.2552 87.1142 31.0609C87.1262 31.0195 87.1447 30.9818 87.1685 30.9487C87.2561 30.8264 87.4142 30.7662 87.5671 30.8101ZM90.6308 31.3253C91.0242 31.3467 91.4232 31.3511 91.8166 31.3386C92.0187 31.3323 92.1876 31.491 92.194 31.6929C92.2002 31.895 92.0416 32.0638 91.8397 32.0703C91.4255 32.0834 91.0055 32.0787 90.5914 32.0564C90.3896 32.0455 90.2347 31.873 90.2457 31.6712C90.2496 31.5989 90.2741 31.5327 90.3133 31.478C90.3838 31.3797 90.5012 31.3184 90.6308 31.3253ZM93.7329 31.1451C94.1203 31.0787 94.5104 30.9948 94.8922 30.8954C95.088 30.8446 95.2877 30.962 95.3386 31.1576C95.3896 31.3534 95.2721 31.5532 95.0764 31.6039C94.6747 31.7083 94.2643 31.7967 93.8566 31.8666C93.6574 31.9008 93.4682 31.767 93.434 31.5677C93.4168 31.4673 93.4422 31.3694 93.4972 31.2927C93.5513 31.2172 93.6341 31.1621 93.7329 31.1451ZM96.7178 30.2831C97.0815 30.1325 97.4432 29.9643 97.7929 29.7832C97.9724 29.6903 98.1934 29.7605 98.2862 29.9399C98.3792 30.1195 98.3091 30.3403 98.1295 30.4333C97.7615 30.6239 97.3807 30.8009 96.998 30.9595C96.8112 31.0368 96.5972 30.9482 96.5197 30.7614C96.4695 30.6401 96.4893 30.5073 96.5606 30.4078C96.599 30.3542 96.6523 30.3102 96.7178 30.2831ZM105.449 19.8664C105.648 19.9056 105.777 20.0981 105.738 20.2965C105.657 20.7027 105.558 21.111 105.443 21.5098C105.387 21.704 105.184 21.816 104.989 21.7598C104.795 21.7037 104.683 21.5007 104.74 21.3066C104.849 20.9279 104.943 20.5402 105.019 20.1544C105.03 20.1015 105.051 20.0536 105.081 20.0124C105.162 19.8993 105.304 19.8376 105.449 19.8664ZM99.4357 28.7818C99.7566 28.5541 100.072 28.3098 100.372 28.0553C100.526 27.9247 100.757 27.9437 100.888 28.098C101.018 28.2523 100.999 28.4825 100.845 28.6139C100.529 28.8817 100.197 29.1391 99.8593 29.3788C99.6944 29.4958 99.4659 29.457 99.3489 29.2921C99.2562 29.1613 99.2614 28.9905 99.3498 28.8671C99.3729 28.8349 99.4017 28.806 99.4357 28.7818ZM104.56 22.9302C104.745 23.0127 104.828 23.2293 104.745 23.4139C104.576 23.7917 104.388 24.1673 104.187 24.5303C104.09 24.7077 103.866 24.771 103.689 24.6731C103.513 24.5752 103.449 24.3525 103.546 24.1756C103.737 23.8307 103.916 23.4738 104.077 23.1146C104.087 23.0917 104.099 23.0704 104.114 23.0508C104.213 22.9122 104.399 22.8578 104.56 22.9302ZM101.75 26.7111C102.011 26.4176 102.264 26.1089 102.5 25.7934C102.621 25.6315 102.85 25.5986 103.012 25.7198C103.172 25.8394 103.206 26.0644 103.09 26.2258C103.089 26.2279 103.087 26.23 103.086 26.232C102.837 26.5642 102.571 26.8893 102.296 27.1982C102.161 27.3491 101.93 27.3624 101.779 27.2279C101.638 27.1023 101.617 26.892 101.725 26.7418C101.733 26.7313 101.741 26.7211 101.75 26.7111Z" fill="#91B3FA"/>
<path d="M105.348 17.4564C105.306 17.5149 105.281 17.5865 105.28 17.6641C105.277 17.8528 105.271 18.0445 105.26 18.2342C105.249 18.436 105.404 18.6087 105.606 18.6196C105.808 18.6308 105.981 18.4761 105.991 18.2741C106.002 18.0747 106.009 17.8731 106.012 17.6744C106.015 17.4723 105.853 17.3061 105.651 17.3033C105.526 17.3015 105.416 17.3622 105.348 17.4564Z" fill="#91B3FA"/>
</g>
<g opacity="0.3">
<path d="M101.135 7.12291C101.032 7.26651 101.045 7.46752 101.175 7.59586C101.309 7.72861 101.442 7.86645 101.572 8.00545C101.709 8.15355 101.941 8.16196 102.089 8.02431C102.238 7.88607 102.245 7.65499 102.108 7.50699C101.972 7.36065 101.831 7.21548 101.69 7.07566C101.546 6.93342 101.315 6.93459 101.172 7.07818C101.158 7.09227 101.146 7.1073 101.135 7.12291Z" fill="#91B3FA"/>
<path d="M79.9514 8.35403C80.0771 8.19567 80.3073 8.16912 80.4657 8.29485C80.6241 8.42049 80.6504 8.65035 80.5249 8.80907C80.2857 9.11057 80.0557 9.42696 79.8383 9.7529C79.7272 9.92066 79.4988 9.96647 79.3307 9.85433C79.1625 9.74219 79.117 9.51494 79.2291 9.34668C79.3233 9.20547 79.4194 9.06633 79.5175 8.92944C79.6575 8.7341 79.8034 8.54046 79.9514 8.35403ZM78.7269 10.9084C78.9086 10.9967 78.9844 11.2158 78.896 11.3975C78.7264 11.7466 78.5697 12.1066 78.4303 12.4675C78.3582 12.6561 78.1456 12.75 77.957 12.6772C77.7685 12.6044 77.6747 12.3925 77.7475 12.204C77.8942 11.8239 78.0591 11.4449 78.2377 11.0777C78.247 11.0586 78.2577 11.0407 78.2696 11.0241C78.3715 10.8817 78.564 10.8293 78.7269 10.9084ZM81.2953 6.88005C81.5896 6.59862 81.9 6.32587 82.218 6.0696C82.3755 5.94274 82.6059 5.96749 82.7328 6.1249C82.8596 6.28227 82.8347 6.51249 82.6775 6.63961C82.3755 6.88297 82.0807 7.14186 81.8013 7.40916C81.6551 7.54884 81.4234 7.54371 81.2837 7.39755C81.1601 7.26831 81.15 7.07206 81.2505 6.93176C81.2635 6.91353 81.2784 6.89616 81.2953 6.88005ZM77.5983 13.8377C77.795 13.884 77.9172 14.0811 77.8708 14.2778C77.7821 14.655 77.7085 15.0405 77.652 15.4235C77.6225 15.6237 77.4366 15.7618 77.2365 15.7322C77.0365 15.7027 76.8983 15.5167 76.9278 15.3168C76.9873 14.9134 77.0648 14.5074 77.1582 14.1102C77.1695 14.0622 77.1897 14.0186 77.2167 13.9808C77.3006 13.8639 77.4496 13.8028 77.5983 13.8377ZM83.8521 4.92844C84.2009 4.71879 84.5636 4.52115 84.9302 4.34097C85.1116 4.25178 85.3309 4.32648 85.4201 4.50783C85.5094 4.68931 85.4346 4.90864 85.2532 4.99783C84.905 5.16906 84.5605 5.35675 84.2293 5.55588C84.056 5.66001 83.8311 5.60398 83.7269 5.43069C83.6494 5.30158 83.6607 5.14386 83.7431 5.02879C83.7714 4.98937 83.808 4.95495 83.8521 4.92844ZM86.775 3.58487C87.1622 3.45622 87.5592 3.34241 87.9552 3.24656C88.1518 3.19909 88.3495 3.31978 88.3971 3.51629C88.4447 3.71308 88.324 3.91081 88.1274 3.95811C87.7512 4.04919 87.3738 4.15732 87.0059 4.27954C86.814 4.34331 86.6069 4.23945 86.5431 4.04761C86.5048 3.93201 86.5272 3.81082 86.5931 3.71884C86.6365 3.65813 86.6988 3.61016 86.775 3.58487ZM89.9214 2.91019C90.3276 2.86888 90.7401 2.84426 91.1472 2.83697C91.3494 2.83337 91.5161 2.99429 91.5197 3.19639C91.5233 3.3988 91.3623 3.5653 91.1603 3.5689C90.7734 3.57574 90.3816 3.59923 89.9955 3.63852C89.7943 3.65899 89.6147 3.51251 89.5943 3.31145C89.5849 3.21907 89.6106 3.13127 89.6607 3.0613C89.7198 2.9789 89.8127 2.92126 89.9214 2.91019ZM93.1399 2.93791C93.5453 2.98637 93.9533 3.05275 94.3525 3.13523C94.5505 3.17609 94.6779 3.36973 94.637 3.56777C94.5962 3.76541 94.4024 3.89299 94.2044 3.85208C93.8254 3.77378 93.4381 3.71078 93.0529 3.66475C92.8522 3.64072 92.709 3.4586 92.733 3.2579C92.7406 3.1945 92.764 3.1369 92.7987 3.08843C92.8739 2.98345 93.0025 2.92153 93.1399 2.93791ZM96.2753 3.67262C96.6591 3.80889 97.0421 3.96346 97.4139 4.13199C97.598 4.21546 97.6796 4.43245 97.5961 4.61654C97.5128 4.80005 97.2958 4.88227 97.1116 4.7988C96.7585 4.63864 96.3947 4.49194 96.0302 4.36239C95.8398 4.2948 95.7402 4.08545 95.8079 3.89501C95.8197 3.86185 95.8357 3.83139 95.8552 3.80412C95.9478 3.67487 96.1181 3.61673 96.2753 3.67262ZM99.1699 5.07636C99.4241 5.23593 99.6765 5.40535 99.9199 5.57982C100.008 5.64304 100.095 5.70694 100.182 5.77174C100.343 5.89297 100.381 6.12274 100.255 6.28411C100.134 6.44589 99.9042 6.4787 99.7424 6.35737C99.6604 6.29586 99.5774 6.23493 99.4936 6.1749C99.2621 6.00903 99.0223 5.84802 98.7807 5.69628C98.6095 5.58882 98.5579 5.36287 98.6653 5.19169C98.6694 5.1853 98.6736 5.17896 98.678 5.17284C98.7898 5.01682 99.0052 4.97286 99.1699 5.07636Z" fill="#91B3FA"/>
<path d="M76.8404 17.1058C76.798 17.165 76.7728 17.2372 76.7721 17.3154C76.7703 17.5135 76.7726 17.7154 76.7791 17.9156C76.7856 18.1177 76.9546 18.2761 77.1567 18.2696C77.3587 18.2631 77.5173 18.0943 77.5107 17.892C77.5046 17.7019 77.5024 17.5101 77.5041 17.322C77.506 17.1199 77.3437 16.9545 77.1415 16.9526C77.0175 16.9516 76.9075 17.0122 76.8404 17.1058Z" fill="#91B3FA"/>
</g>
<path d="M81.2334 21.5874C81.2525 21.6579 81.3141 21.7084 81.387 21.7133L83.4644 21.8536C83.9261 22.7094 84.5275 23.4977 85.2591 24.1804L84.8688 26.2242C84.8551 26.2959 84.8884 26.3684 84.9518 26.4047L87.1182 27.6473C87.1815 27.6836 87.2609 27.6758 87.3158 27.6277L88.883 26.2588C89.8416 26.5456 90.8258 26.6667 91.7976 26.6331L92.9676 28.3554C93.0086 28.4157 93.0834 28.4435 93.1538 28.4244L95.5644 27.7711C95.6348 27.752 95.6854 27.6903 95.6903 27.6175L95.8305 25.5401C96.6863 25.0784 97.4746 24.477 98.1573 23.7454L100.201 24.1357C100.273 24.1493 100.345 24.1161 100.382 24.0527L101.624 21.8862C101.661 21.8229 101.653 21.7435 101.605 21.6886L100.236 20.1215C100.523 19.1628 100.644 18.1786 100.61 17.2069L102.332 16.0369C102.393 15.9959 102.42 15.9211 102.401 15.8506L101.748 13.44C101.729 13.3696 101.667 13.319 101.594 13.3141L99.517 13.1739C99.0554 12.3181 98.4539 11.5298 97.7223 10.8471L98.1126 8.80327C98.1263 8.73159 98.093 8.6591 98.0297 8.62278L95.8632 7.38019C95.7999 7.34388 95.7205 7.35175 95.6656 7.39977L94.0985 8.76867C93.1398 8.48193 92.1556 8.36079 91.1839 8.3944L90.0139 6.67212C89.9729 6.61173 89.8981 6.58405 89.8276 6.60313L87.4171 7.25644C87.3467 7.27552 87.2961 7.33722 87.2912 7.41003L87.151 9.48746C86.2951 9.94911 85.5069 10.5506 84.8241 11.2821L82.7803 10.8919C82.7086 10.8782 82.6361 10.9115 82.5998 10.9748L81.3573 13.1413C81.321 13.2046 81.3288 13.284 81.3769 13.3389L82.7457 14.906C82.4589 15.8647 82.3379 16.8488 82.3715 17.8206L80.6492 18.9906C80.5888 19.0316 80.5611 19.1064 80.5802 19.1769L81.2334 21.5874Z" fill="#91B3FA"/>
<path d="M89.684 15.7696C90.6457 14.774 92.2381 14.7462 93.2338 15.708C93.7162 16.1738 93.9882 16.7996 93.9999 17.4701C94.0116 18.1404 93.7615 18.7754 93.2955 19.2577C92.3338 20.2533 90.7415 20.2811 89.7457 19.3193C88.8398 18.4444 88.7352 17.0475 89.4479 16.0528C89.5186 15.9542 89.5974 15.8594 89.684 15.7696ZM93.4143 17.4802C93.4054 16.9661 93.1968 16.4864 92.8269 16.1291C92.0636 15.3919 90.8426 15.413 90.1053 16.1765C89.3675 16.9398 89.3892 18.1608 90.1526 18.8982C90.916 19.6354 92.137 19.6143 92.8743 18.8509C92.9411 18.7817 93.002 18.7084 93.0571 18.6316C93.2961 18.2979 93.4215 17.898 93.4143 17.4802Z" fill="#BDD0FB"/>
<path d="M86.5302 13.8994C86.4078 14.0702 86.2933 14.2482 86.1873 14.433C86.1539 14.4912 86.1215 14.5499 86.0899 14.6091C85.9347 14.9011 85.803 15.205 85.6967 15.5161C85.6953 15.5203 85.6938 15.5246 85.6924 15.5288C85.6883 15.5409 85.6843 15.5529 85.6803 15.565C85.6725 15.5885 85.6649 15.6121 85.6573 15.6356C85.6376 15.6976 85.6612 15.763 85.7114 15.7991C85.7236 15.8078 85.7374 15.8148 85.7524 15.8196C85.8295 15.8442 85.9116 15.8014 85.9363 15.7245C86.0626 15.3281 86.2325 14.9426 86.4413 14.5788C87.4777 12.7712 89.3349 11.7226 91.2764 11.6318C92.3562 11.5811 93.4621 11.827 94.4673 12.4036C94.6436 12.5047 94.8135 12.6139 94.9765 12.7307C96.0731 13.5166 96.8595 14.6463 97.2171 15.966C97.628 17.4819 97.4239 19.0672 96.6425 20.4295C95.0284 23.2431 91.4288 24.2177 88.6165 22.6047C88.443 22.5053 88.2753 22.3974 88.114 22.2817C87.4145 21.7803 86.8324 21.1315 86.412 20.3797C86.4011 20.3602 86.3865 20.3443 86.3695 20.3322C86.3248 20.3002 86.2639 20.2947 86.2127 20.3234C86.1423 20.3631 86.1168 20.452 86.1565 20.5227C86.5979 21.3119 87.209 21.9932 87.9433 22.5196C88.1127 22.641 88.2888 22.7542 88.4707 22.8587C91.4234 24.5523 95.2036 23.5269 96.8965 20.5752C97.7169 19.145 97.9311 17.4809 97.4998 15.8894C97.1244 14.5039 96.2987 13.318 95.1476 12.4929C94.9765 12.3703 94.7981 12.2557 94.6132 12.1495C93.1828 11.3292 91.5187 11.1149 89.9273 11.5462C88.5414 11.9218 87.3552 12.7478 86.5302 13.8994Z" fill="#BDD0FB"/>
<g opacity="0.3">
<path d="M66.4993 32.429C66.4423 32.5085 66.4417 32.6189 66.5051 32.6999C66.6232 32.8511 66.7477 33.0008 66.8748 33.1447C66.9575 33.2383 67.1002 33.2471 67.1939 33.1645C67.288 33.0821 67.2963 32.9389 67.2137 32.8454C67.0925 32.7082 66.9739 32.5655 66.8611 32.4213C66.7843 32.3229 66.6422 32.3056 66.5438 32.3824C66.5264 32.3961 66.5116 32.4119 66.4993 32.429Z" fill="#91B3FA"/>
<path d="M67.707 33.6764C67.7897 33.5829 67.9325 33.574 68.0261 33.6567C68.2623 33.8653 68.512 34.0641 68.7681 34.2476C68.8221 34.2863 68.8768 34.3245 68.932 34.3623C69.0349 34.4328 69.0612 34.5736 68.9906 34.6766C68.92 34.7713 68.7794 34.8058 68.6762 34.7352C68.6185 34.6956 68.5613 34.6556 68.5048 34.6151C68.2363 34.4228 67.9745 34.2143 67.7268 33.9955C67.6391 33.9182 67.6258 33.7878 67.6925 33.6947C67.697 33.6884 67.7019 33.6824 67.707 33.6764ZM69.9169 34.9524C70.256 35.1284 70.609 35.285 70.9662 35.4177C71.0832 35.4613 71.1427 35.5912 71.0993 35.7084C71.0558 35.8247 70.9257 35.8851 70.8086 35.8415C70.4343 35.7025 70.0642 35.5383 69.7086 35.3537C69.5978 35.2961 69.5546 35.1597 69.6121 35.0488C69.6171 35.0391 69.6229 35.0298 69.6292 35.0211C69.6936 34.9312 69.8159 34.9 69.9169 34.9524ZM72.0653 35.7498C72.4366 35.8372 72.8173 35.9022 73.197 35.943C73.321 35.9564 73.4109 36.0679 73.3976 36.1919C73.3841 36.3165 73.2729 36.406 73.1487 36.3926C72.7505 36.3498 72.3511 36.2815 71.9617 36.1899C71.8402 36.1612 71.7648 36.0395 71.7934 35.918C71.8005 35.8885 71.813 35.8615 71.8297 35.8382C71.8814 35.766 71.9734 35.7282 72.0653 35.7498ZM74.3439 35.9949C74.726 35.9886 75.1112 35.9585 75.4882 35.9054C75.612 35.888 75.7263 35.9741 75.7436 36.0978C75.7609 36.2211 75.675 36.3357 75.5514 36.3532C75.1557 36.4089 74.7521 36.4404 74.3513 36.447C74.2265 36.4492 74.1236 36.3494 74.1215 36.2247C74.1209 36.1743 74.1365 36.1276 74.1637 36.0895C74.204 36.0333 74.2695 35.9962 74.3439 35.9949ZM76.6134 35.6764C76.9823 35.5774 77.3483 35.4547 77.7018 35.3116C77.8174 35.2648 77.9492 35.3207 77.9961 35.4364C78.043 35.5522 77.9873 35.6841 77.8713 35.7308C77.501 35.8807 77.1172 36.0093 76.7307 36.1132C76.6101 36.1455 76.4861 36.074 76.4538 35.9535C76.4355 35.8854 76.4503 35.8161 76.4884 35.763C76.5177 35.722 76.5609 35.6905 76.6134 35.6764ZM78.7368 34.8166C79.0702 34.6311 79.3949 34.423 79.7023 34.1979C79.8029 34.1242 79.9445 34.1461 80.0182 34.2468C80.0919 34.3475 80.0702 34.4885 79.9694 34.5628C79.6472 34.7988 79.3063 35.0171 78.9567 35.2117C78.8476 35.2723 78.7099 35.2332 78.6492 35.1241C78.6054 35.0452 78.6137 34.9512 78.663 34.8823C78.6819 34.8561 78.7066 34.8333 78.7368 34.8166ZM80.5847 33.4641C80.8614 33.2033 81.1255 32.9216 81.3694 32.6266C81.4491 32.5305 81.5916 32.517 81.6877 32.5967C81.7839 32.6761 81.796 32.8174 81.7178 32.9151C81.4619 33.2241 81.1851 33.5195 80.8948 33.7931C80.8039 33.8787 80.6608 33.8745 80.5751 33.7837C80.4998 33.7038 80.4941 33.5833 80.5558 33.4972C80.5642 33.4855 80.5738 33.4744 80.5847 33.4641ZM82.9045 30.5886C83.0172 30.6424 83.0648 30.7773 83.011 30.89C82.8619 31.2018 82.6932 31.5109 82.5101 31.8078C82.4825 31.853 82.4544 31.8977 82.426 31.9422C82.3622 32.0488 82.2189 32.0782 82.1136 32.0105C82.0084 31.9432 81.9779 31.8034 82.0452 31.6982C82.072 31.6566 82.0983 31.6145 82.1246 31.5713C82.3 31.2872 82.4609 30.9924 82.6031 30.695C82.6089 30.6828 82.6158 30.6713 82.6234 30.6607C82.6861 30.5731 82.8042 30.5406 82.9045 30.5886Z" fill="#91B3FA"/>
</g>
<g opacity="0.3">
<path d="M66.3442 20.8863C66.5778 20.569 66.8329 20.2634 67.1022 19.9774C67.1878 19.8867 67.3309 19.8823 67.4218 19.968C67.5128 20.0537 67.5155 20.1965 67.4313 20.2876C67.1744 20.5601 66.9312 20.8518 66.7083 21.1545C66.6344 21.2551 66.4927 21.2765 66.3923 21.2025C66.2926 21.129 66.2706 20.9892 66.3425 20.8888C66.343 20.888 66.3437 20.8871 66.3442 20.8863ZM66.0089 21.7949C66.1175 21.8564 66.1558 21.9943 66.0943 22.1029C65.9095 22.4299 65.7425 22.7713 65.5983 23.1178C65.5503 23.2322 65.418 23.2876 65.3025 23.2394C65.1872 23.1915 65.1329 23.0593 65.1808 22.9439C65.332 22.5808 65.5069 22.2229 65.7007 21.8804C65.7048 21.8732 65.7092 21.8664 65.7139 21.8597C65.7803 21.7671 65.9072 21.7374 66.0089 21.7949ZM67.9657 19.1669C68.2692 18.9153 68.5906 18.6801 68.9211 18.4679C69.0262 18.4005 69.1661 18.431 69.2335 18.536C69.3011 18.641 69.2706 18.7803 69.1656 18.8484C68.8503 19.0508 68.5438 19.275 68.254 19.5149C68.1579 19.5946 68.0154 19.5812 67.9358 19.4852C67.8688 19.4044 67.8676 19.2908 67.926 19.2093C67.9371 19.1939 67.9502 19.1796 67.9657 19.1669ZM65.0719 23.9063C65.1921 23.9398 65.2624 24.0645 65.2289 24.1848C65.1281 24.5466 65.0485 24.918 64.9926 25.2891C64.9738 25.4124 64.8586 25.4974 64.7354 25.479C64.6119 25.4603 64.5269 25.3451 64.5455 25.2217C64.6041 24.8325 64.6876 24.4428 64.7934 24.0634C64.8008 24.0372 64.8124 24.0134 64.8274 23.9924C64.8811 23.9174 64.9779 23.8802 65.0719 23.9063ZM69.9539 17.8907C70.3082 17.7199 70.6767 17.5691 71.0492 17.4422C71.1674 17.402 71.2959 17.4653 71.3361 17.5834C71.3764 17.7016 71.3134 17.8302 71.1949 17.8704C70.8395 17.9912 70.4881 18.1351 70.1503 18.2981C70.0378 18.3523 69.9027 18.3051 69.8484 18.1925C69.8112 18.1155 69.8218 18.0276 69.8684 17.9626C69.8897 17.9329 69.9186 17.9077 69.9539 17.8907ZM72.1905 17.1286C72.5762 17.0475 72.9702 16.9892 73.3616 16.955C73.4859 16.9442 73.5955 17.0361 73.6063 17.1605C73.6172 17.2847 73.5253 17.3945 73.4007 17.4054C73.0276 17.438 72.6516 17.4937 72.2836 17.5711C72.1614 17.5969 72.0415 17.5186 72.0158 17.3964C72.0023 17.3319 72.0177 17.2679 72.0534 17.2181C72.0851 17.1738 72.133 17.1407 72.1905 17.1286ZM74.5455 16.924C74.9396 16.9375 75.3364 16.9754 75.7245 17.0365C75.8479 17.056 75.932 17.1717 75.9126 17.295C75.8933 17.4183 75.7774 17.5024 75.6543 17.4832C75.2841 17.4249 74.9058 17.3887 74.5301 17.376C74.4052 17.3717 74.3075 17.2671 74.3119 17.1423C74.3134 17.0959 74.3288 17.0535 74.3539 17.0185C74.3964 16.9591 74.4669 16.9213 74.5455 16.924Z" fill="#91B3FA"/>
<path d="M64.4812 26.2865C64.4558 26.322 64.4404 26.3651 64.4391 26.412C64.4339 26.6054 64.4344 26.7998 64.4405 26.9899C64.4446 27.1147 64.549 27.2127 64.6738 27.2087C64.7983 27.2043 64.8963 27.1002 64.8925 26.9754C64.8866 26.7941 64.8862 26.6086 64.8911 26.424C64.8945 26.2992 64.7959 26.1953 64.6711 26.192C64.5932 26.19 64.5234 26.2276 64.4812 26.2865Z" fill="#91B3FA"/>
</g>
<path d="M67.4 29.4478C67.4129 29.4949 67.4541 29.5288 67.5028 29.5321L68.8929 29.6259C69.2019 30.1986 69.6043 30.726 70.0939 31.1829L69.8328 32.5506C69.8236 32.5985 69.8459 32.647 69.8882 32.6713L71.3379 33.5028C71.3803 33.5271 71.4334 33.5218 71.4702 33.4897L72.5188 32.5737C73.1603 32.7656 73.8189 32.8467 74.4692 32.8242L75.2521 33.9766C75.2795 34.017 75.3296 34.0355 75.3767 34.0228L76.9897 33.5857C77.0369 33.5729 77.0707 33.5316 77.074 33.4829L77.1679 32.0928C77.7405 31.7839 78.268 31.3814 78.7249 30.8918L80.0925 31.153C80.1405 31.1621 80.189 31.1399 80.2133 31.0975L81.0448 29.6478C81.0691 29.6054 81.0638 29.5523 81.0317 29.5155L80.1157 28.4669C80.3076 27.8253 80.3886 27.1668 80.3661 26.5166L81.5186 25.7336C81.559 25.7062 81.5776 25.6562 81.5648 25.609L81.1277 23.996C81.1149 23.9489 81.0736 23.9151 81.0249 23.9118L79.6348 23.8179C79.3259 23.2452 78.9234 22.7177 78.4338 22.2609L78.695 20.8932C78.7042 20.8452 78.6819 20.7968 78.6395 20.7724L77.1898 19.941C77.1475 19.9167 77.0944 19.9219 77.0576 19.9541L76.0089 20.8701C75.3674 20.6782 74.7088 20.5972 74.0586 20.6197L73.2757 19.4672C73.2483 19.4267 73.1982 19.4082 73.151 19.421L71.538 19.8581C71.4908 19.8709 71.457 19.9122 71.4537 19.9609L71.3599 21.351C70.7872 21.6599 70.2597 22.0624 69.8029 22.552L68.4352 22.2908C68.3873 22.2816 68.3388 22.3039 68.3145 22.3463L67.483 23.796C67.4587 23.8383 67.4639 23.8915 67.4961 23.9282L68.4121 24.9769C68.2202 25.6184 68.1391 26.2769 68.1616 26.9272L67.0091 27.7101C66.9687 27.7375 66.9502 27.7876 66.963 27.8347L67.4 29.4478Z" fill="#91B3FA"/>
<path d="M73.0327 25.5344C73.35 25.2057 73.7764 25.0204 74.2331 25.0125C74.6897 25.0045 75.1222 25.1748 75.4507 25.4923C76.1289 26.1472 76.1475 27.2301 75.4928 27.9103C74.8375 28.5885 73.7529 28.6072 73.0749 27.9523C72.7463 27.635 72.561 27.2087 72.553 26.752C72.5466 26.3808 72.658 26.0256 72.8704 25.7291C72.9193 25.6609 72.9735 25.5958 73.0327 25.5344ZM75.1368 25.8175C74.895 25.584 74.5769 25.4587 74.2409 25.4645C73.9051 25.4704 73.5914 25.6067 73.358 25.8484C73.1249 26.0904 72.9993 26.4082 73.0051 26.7443C73.0108 27.0801 73.1474 27.3937 73.3889 27.627C73.8878 28.1088 74.6856 28.095 75.1676 27.5963C75.211 27.5512 75.2504 27.5038 75.2859 27.4544C75.643 26.9559 75.5905 26.2558 75.1368 25.8175Z" fill="#BDD0FB"/>
<path d="M70.8388 24.2327C70.7555 24.349 70.6775 24.4705 70.6047 24.597C70.4604 24.8485 70.3415 25.1149 70.2512 25.3895C70.2472 25.4019 70.2432 25.4142 70.2393 25.4266C70.2087 25.5223 70.2453 25.6233 70.3227 25.679C70.3416 25.6925 70.3629 25.7033 70.3861 25.7107C70.505 25.7486 70.6317 25.6824 70.67 25.5638C70.7519 25.3066 70.8619 25.0571 70.9968 24.8222L70.9969 24.8221C71.0042 24.8092 71.0118 24.7963 71.0193 24.7836C71.3437 24.2304 71.7936 23.779 72.3287 23.4567C72.6192 23.2817 72.9351 23.1449 73.2699 23.0509C73.2726 23.0502 73.2753 23.0494 73.278 23.0486C73.2865 23.0464 73.2947 23.044 73.303 23.0418C74.2844 22.7759 75.3106 22.908 76.1926 23.4139C76.3068 23.4792 76.4166 23.5499 76.5221 23.6255C77.232 24.1343 77.7411 24.8657 77.9728 25.7201C78.2387 26.7015 78.1064 27.7276 77.6006 28.6095C77.0947 29.4907 76.2756 30.1236 75.2944 30.3898C74.313 30.6557 73.2868 30.5236 72.4048 30.0177C72.2925 29.9534 72.184 29.8835 72.0796 29.8087C71.6266 29.484 71.2499 29.0641 70.9778 28.5774C70.9609 28.5475 70.9384 28.5228 70.9122 28.5041C70.8433 28.4547 70.7491 28.4463 70.6702 28.4905C70.5613 28.5517 70.5222 28.6891 70.5833 28.7983C70.8878 29.3428 71.3094 29.8128 71.8159 30.176C71.9329 30.2598 72.0542 30.3379 72.1797 30.4099C73.1666 30.9759 74.3147 31.1237 75.4127 30.8261C76.5105 30.5285 77.4272 29.8222 77.9928 28.8346C78.5589 27.8478 78.7067 26.6998 78.4089 25.6018C78.15 24.6459 77.5804 23.8277 76.7862 23.2585C76.6683 23.174 76.5452 23.0948 76.4176 23.0216C74.5073 21.926 72.095 22.4795 70.8388 24.2327Z" fill="#BDD0FB"/>
<path d="M18.6222 4.62943C18.568 3.96834 19.4032 3.63246 19.8297 4.14046C24.1612 9.29882 34.2462 24.4028 28.4781 48.0172C21.2413 77.6451 26.1996 89.3594 33.1994 96.9775C33.1994 96.9775 22.868 92.5581 17.4559 80.6262C4.168 51.3305 19.5861 16.384 18.6222 4.62943Z" fill="#BDD0FB"/>
<path d="M21.2165 14.4602C21.4286 17.8794 21.5732 21.3011 21.5924 24.7232C21.6297 28.1445 21.5631 31.5655 21.3901 34.9794C21.204 38.3924 20.9538 41.8014 20.5592 45.1946C20.1799 48.5895 19.6553 51.9643 19.1166 55.3508C18.5972 58.7383 18.0547 62.148 17.8596 65.6236C17.6617 69.0917 17.8746 72.6392 18.7295 76.0426C18.9434 76.8909 19.1737 77.7386 19.4516 78.5643C19.7144 79.3955 20.014 80.2153 20.3281 81.0294C20.9647 82.6549 21.7103 84.2408 22.5701 85.7643C24.2978 88.8072 26.4876 91.5847 28.9752 94.0107C29.237 94.266 29.6563 94.2608 29.9117 93.999C30.1624 93.7419 30.1618 93.333 29.9138 93.0765L29.9121 93.0747C29.3237 92.4675 28.743 91.8543 28.1917 91.2174C27.9109 90.9032 27.6446 90.5773 27.3723 90.2565C27.1125 89.9258 26.8397 89.6051 26.5904 89.2667C25.5705 87.9304 24.6456 86.5241 23.8293 85.0564C22.1841 82.1323 20.9674 78.9471 20.145 75.6972C19.7521 74.0672 19.4799 72.411 19.3362 70.7396C19.1937 69.0679 19.1794 67.3827 19.2613 65.6954C19.425 62.3189 19.9341 58.9396 20.4291 55.5486C20.9199 52.1561 21.3897 48.7436 21.7184 45.3171C21.8873 43.6045 22.0255 41.8891 22.1329 40.1721C22.1915 39.3139 22.2335 38.4548 22.277 37.5958C22.3123 36.7365 22.3428 35.877 22.3664 35.0175C22.4541 31.5792 22.4369 28.1398 22.3111 24.7058C22.1688 21.2724 21.9355 17.844 21.5704 14.4303C21.56 14.3327 21.4725 14.2621 21.3749 14.2725C21.2802 14.2826 21.2108 14.366 21.2165 14.4602Z" fill="white"/>
<path d="M17.8839 88.7939C17.4014 89.9168 15.9288 90.182 15.0734 89.309C10.3533 84.4924 -1.76052 69.6674 0.866714 46.5356C3.08531 27.0019 2.43204 16.199 1.79565 11.3155C1.6611 10.2828 2.92304 9.67861 3.64461 10.4295C11.6054 18.7142 35.3684 48.1043 17.8839 88.7939Z" fill="#91B3FA"/>
<path d="M16.2306 88.7073C16.2044 88.7225 16.1765 88.7354 16.1468 88.7457C15.8979 88.8323 15.6259 88.7007 15.5393 88.4518C15.4412 88.1696 5.7498 59.9213 7.60768 32.6216C7.62563 32.3589 7.85319 32.1602 8.11622 32.1778C8.3792 32.1958 8.57774 32.4234 8.55997 32.6864C6.71555 59.7875 16.3433 87.8581 16.4407 88.1384C16.517 88.3576 16.424 88.5947 16.2306 88.7073Z" fill="white"/>
<path d="M51.8981 94.2842L49.0859 119.506H81.7127L77.4631 94.2842H51.8981Z" fill="url(#paint1_linear_1083_1144)"/>
<path d="M88.7414 124.666H40.9899C39.6926 124.666 38.7184 123.743 38.9692 122.751L39.582 120.327C39.7662 119.599 40.568 119.064 41.5202 119.034L87.5544 117.597C88.5492 117.566 89.4301 118.095 89.6469 118.852L90.7514 122.712C91.0384 123.714 90.0596 124.666 88.7414 124.666Z" fill="url(#paint2_linear_1083_1144)"/>
<path d="M10.9688 32.1444V89.9078C10.9688 94.6596 14.7554 98.5454 19.5056 98.6679C40.6036 99.212 94.9441 100.531 115.028 100.235C118.48 100.184 121.276 97.4218 121.376 93.971C121.763 80.5518 122.392 48.283 120.064 33.3019C119.574 30.1471 116.911 27.7879 113.72 27.6858C96.0427 27.1203 37.2699 25.3246 17.1954 25.7755C13.7333 25.8533 10.9688 28.6814 10.9688 32.1444Z" fill="url(#paint3_linear_1083_1144)"/>
<path d="M14.5938 31.8636V86.7428C14.5938 89.5172 16.8208 91.7778 19.5949 91.8193L112.139 93.2029C114.889 93.2441 117.144 91.0313 117.154 88.2808L117.341 33.8919C117.349 31.9251 115.782 30.3137 113.816 30.2658L18.6044 27.9494C16.4053 27.8959 14.5938 29.6639 14.5938 31.8636Z" fill="#7D97F4"/>
<path d="M117.996 95.4732C117.995 95.4732 117.994 95.4732 117.993 95.4732L14.5892 93.3799C14.4916 93.3779 14.4142 93.2971 14.416 93.1996C14.4181 93.102 14.5003 93.0251 14.5964 93.0264L118 95.1197C118.097 95.1217 118.175 95.2024 118.173 95.3C118.171 95.3964 118.092 95.4732 117.996 95.4732Z" fill="#91B3FA"/>
<path d="M63.3555 98.0301C62.5532 98.0301 61.9004 97.3774 61.9004 96.5751C61.9004 95.7728 62.5532 95.1201 63.3555 95.1201C64.1578 95.1201 64.8105 95.7728 64.8105 96.5751C64.8105 97.3774 64.1578 98.0301 63.3555 98.0301ZM63.3555 95.4736C62.7481 95.4736 62.2539 95.9677 62.2539 96.5751C62.2539 97.1825 62.7481 97.6766 63.3555 97.6766C63.9628 97.6766 64.4569 97.1825 64.4569 96.5751C64.4569 95.9677 63.9627 95.4736 63.3555 95.4736Z" fill="#91B3FA"/>
<path d="M66.6963 119.712C66.5998 119.712 66.5209 119.634 66.5195 119.537C66.5182 119.44 66.5962 119.359 66.6937 119.358L68.6664 119.329C68.7624 119.328 68.8443 119.406 68.8457 119.503C68.8471 119.601 68.7691 119.681 68.6715 119.683L66.6989 119.712C66.6981 119.712 66.6972 119.712 66.6963 119.712Z" fill="white"/>
<path d="M40.7374 123.351C40.7283 123.351 40.7188 123.351 40.7095 123.349C40.613 123.334 40.5474 123.243 40.5628 123.147L40.8441 121.384C40.9969 120.427 41.8114 119.722 42.7807 119.708L63.7034 119.402C63.7967 119.396 63.8813 119.478 63.8827 119.576C63.8841 119.673 63.806 119.754 63.7085 119.755L42.7858 120.061C41.9887 120.073 41.3188 120.653 41.1931 121.44L40.9118 123.202C40.898 123.289 40.8229 123.351 40.7374 123.351Z" fill="#91B3FA"/>
<path d="M93.666 38.0773C92.5244 38.0773 91.5957 37.1486 91.5957 36.007C91.5957 34.8654 92.5244 33.9365 93.666 33.9365C94.8076 33.9365 95.7363 34.8654 95.7363 36.007C95.7363 37.1486 94.8076 38.0773 93.666 38.0773ZM93.666 34.5484C92.8619 34.5484 92.2076 35.2027 92.2076 36.007C92.2076 36.8111 92.8619 37.4654 93.666 37.4654C94.4702 37.4654 95.1245 36.8111 95.1245 36.007C95.1245 35.2027 94.4702 34.5484 93.666 34.5484Z" fill="#BDD0FB"/>
<path d="M100.537 38.0773C99.3957 38.0773 98.4668 37.1486 98.4668 36.007C98.4668 34.8654 99.3957 33.9365 100.537 33.9365C101.679 33.9365 102.608 34.8654 102.608 36.007C102.608 37.1486 101.679 38.0773 100.537 38.0773ZM100.537 34.5484C99.733 34.5484 99.0787 35.2027 99.0787 36.007C99.0787 36.8111 99.733 37.4654 100.537 37.4654C101.341 37.4654 101.996 36.8111 101.996 36.007C101.996 35.2027 101.341 34.5484 100.537 34.5484Z" fill="#BDD0FB"/>
<path d="M107.41 38.0773C106.269 38.0773 105.34 37.1486 105.34 36.007C105.34 34.8654 106.269 33.9365 107.41 33.9365C108.552 33.9365 109.48 34.8654 109.48 36.007C109.48 37.1486 108.552 38.0773 107.41 38.0773ZM107.41 34.5484C106.606 34.5484 105.952 35.2027 105.952 36.007C105.952 36.8111 106.606 37.4654 107.41 37.4654C108.214 37.4654 108.869 36.8111 108.869 36.007C108.869 35.2027 108.214 34.5484 107.41 34.5484Z" fill="#BDD0FB"/>
<path d="M75.328 81.3777L21.8173 81.7388C20.2827 81.7491 19.0492 80.3405 19.1012 78.637L20.1235 45.1527C20.1701 43.6272 21.3007 42.4184 22.675 42.4248L74.7719 42.6688C76.1768 42.6754 77.3099 43.9457 77.3026 45.506L77.144 79.359C77.1388 80.4705 76.3287 81.371 75.328 81.3777Z" fill="#BDD0FB"/>
<path d="M76.5093 86.7418H19.8929C19.498 86.7418 19.1777 86.3711 19.1777 85.9138V84.4008C19.1777 83.9392 19.5038 83.5667 19.9024 83.5728L76.5187 84.4416C76.91 84.4476 77.2245 84.8165 77.2245 85.2695V85.9138C77.2245 86.3711 76.9042 86.7418 76.5093 86.7418Z" fill="#BDD0FB"/>
<path d="M111.588 90.4003C111.571 90.4003 111.553 90.4002 111.535 90.3999L19.4922 88.7405C17.6016 88.7063 16.0886 87.1403 16.1196 85.2497L16.9557 34.1447C16.9727 33.1078 17.3941 32.1411 18.1423 31.4228C18.8904 30.7044 19.8742 30.3175 20.9104 30.3478L111.116 32.5375C112.982 32.5828 114.443 34.0797 114.443 35.9455V87.5443C114.443 88.3169 114.139 89.0404 113.588 89.5818C113.049 90.1108 112.341 90.4003 111.588 90.4003ZM20.8145 30.9586C19.9718 30.9586 19.1761 31.2784 18.566 31.8642C17.9364 32.4687 17.5818 33.2823 17.5675 34.155L16.7314 85.26C16.706 86.8137 17.9494 88.1006 19.5033 88.1287L111.546 89.7881C112.148 89.8002 112.726 89.5707 113.159 89.1454C113.592 88.72 113.831 88.1514 113.831 87.5445V35.9456C113.831 34.4147 112.632 33.1863 111.101 33.1491L20.8953 30.9595C20.8685 30.9589 20.8414 30.9586 20.8145 30.9586Z" fill="#BDD0FB"/>
<path d="M109.176 58.7229H109.172L82.8753 58.2149C81.6507 58.1912 80.6543 57.1754 80.6543 55.9504V44.6416C80.6543 43.0108 81.981 41.6841 83.6118 41.6841H109.176C110.807 41.6841 112.134 43.0108 112.134 44.6416V55.7653C112.134 57.3961 110.807 58.7229 109.176 58.7229ZM83.6118 42.1429C82.234 42.1429 81.1132 43.2638 81.1132 44.6415V55.9503C81.1132 56.9271 81.9076 57.7371 82.8843 57.7559L109.179 58.264C110.555 58.263 111.675 57.1424 111.675 55.7653V44.6416C111.675 43.2638 110.554 42.143 109.176 42.143L83.6118 42.1429Z" fill="#BDD0FB"/>
<path opacity="0.4" d="M110.897 86.85H81.8896C81.3336 86.85 80.8828 86.3992 80.8828 85.8432V84.4721C80.8828 83.908 81.3463 83.454 81.9103 83.4655L110.917 84.0605C111.465 84.0717 111.904 84.5191 111.904 85.067V85.8431C111.904 86.3992 111.453 86.85 110.897 86.85Z" fill="white"/>
<path d="M110.42 81.9625C110.411 81.9625 110.403 81.9625 110.394 81.9624L82.2627 81.5532C81.3316 81.5396 80.5742 80.7712 80.5742 79.84V71.7455C80.5742 71.283 80.7557 70.8495 81.0852 70.5249C81.4083 70.2066 81.8343 70.0322 82.2869 70.0322C82.2958 70.0322 82.3048 70.0322 82.3136 70.0324L110.445 70.4606C111.375 70.4748 112.132 71.2434 112.132 72.1738V80.2492C112.132 80.7115 111.951 81.1449 111.621 81.4695C111.298 81.7881 110.872 81.9625 110.42 81.9625ZM82.2871 70.4912C81.9557 70.4912 81.644 70.6189 81.4072 70.852C81.166 71.0896 81.0331 71.4069 81.0331 71.7456V79.8401C81.0331 80.5217 81.5877 81.0845 82.2693 81.0943L110.401 81.5035C110.738 81.5152 111.058 81.3803 111.299 81.1427C111.541 80.9051 111.673 80.5878 111.673 80.2493V72.1739C111.673 71.4927 111.119 70.9301 110.438 70.9196L82.3068 70.4914C82.3002 70.4912 82.2936 70.4912 82.2871 70.4912Z" fill="#BDD0FB"/>
<path d="M109.967 68.8344C109.958 68.8344 109.949 68.8344 109.94 68.8343L82.7643 68.4127C81.8722 68.3987 81.1465 67.6615 81.1465 66.7694V60.4709C81.1465 60.025 81.3222 59.6076 81.6409 59.2958C81.9597 58.984 82.3844 58.8148 82.8266 58.8278L110.003 59.4362C110.889 59.4561 111.609 60.1931 111.609 61.0792V67.1912C111.609 67.635 111.435 68.0508 111.119 68.3622C110.809 68.6672 110.401 68.8344 109.967 68.8344ZM82.7889 59.2864C82.4779 59.2864 82.1851 59.4056 81.9618 59.624C81.7319 59.8487 81.6054 60.1494 81.6054 60.4708V66.7693C81.6054 67.4124 82.1285 67.9438 82.7714 67.9538L109.947 68.3753C110.265 68.3818 110.569 68.2597 110.797 68.035C111.025 67.8107 111.15 67.5108 111.15 67.191V61.0791C111.15 60.4403 110.631 59.9092 109.992 59.8949L82.8163 59.2866C82.8073 59.2864 82.798 59.2864 82.7889 59.2864Z" fill="#BDD0FB"/>
<path d="M21.2844 32.8645L87.0628 34.6626C87.7796 34.6822 88.3505 35.2689 88.3505 35.9859V39.362C88.3505 40.0969 87.7518 40.6912 87.0169 40.6858L20.6481 40.1959C19.9208 40.1905 19.334 39.5994 19.334 38.8721V34.7623C19.334 33.6934 20.216 32.8353 21.2844 32.8645Z" fill="#BDD0FB"/>
<path d="M86.1956 39.5358C86.1919 39.5358 86.1883 39.5358 86.1845 39.5358L21.5702 39.2593C20.7247 39.2556 20.0625 38.8264 20.0625 38.2822V35.628C20.0625 35.4316 20.1476 35.2439 20.3087 35.0854C20.5934 34.805 21.0836 34.6431 21.6197 34.6512L86.2338 35.6756C87.0773 35.6891 87.7134 36.109 87.7134 36.6525V38.5589C87.7134 38.7535 87.6297 38.9397 87.4713 39.0973C87.1951 39.3723 86.7187 39.5358 86.1956 39.5358ZM21.5814 35.1098C21.1894 35.1098 20.8187 35.2272 20.6304 35.4124C20.5581 35.4837 20.5214 35.5563 20.5214 35.628V38.2822C20.5214 38.5247 20.9707 38.7977 21.5723 38.8004L86.1866 39.077C86.1895 39.077 86.1923 39.077 86.1952 39.077C86.588 39.077 86.9612 38.9578 87.1476 38.7721C87.2184 38.7014 87.2545 38.6297 87.2545 38.5589V36.6525C87.2545 36.4153 86.8323 36.1441 86.2267 36.1346L21.6125 35.1101C21.602 35.1099 21.5917 35.1098 21.5814 35.1098Z" fill="url(#paint4_linear_1083_1144)"/>
<path d="M23.2554 38.5098L18.4785 43.3728C18.2781 43.5768 18.294 43.9082 18.5129 44.0921L18.5488 44.1223C18.7425 44.285 19.0317 44.2589 19.1931 44.0642L23.5672 38.7885L23.2554 38.5098Z" fill="url(#paint5_linear_1083_1144)"/>
<path opacity="0.2" d="M28.1625 34.6139C28.9011 36.1616 28.2222 38.026 26.6461 38.7782C25.0699 39.5304 23.1935 38.8855 22.4548 37.3378C21.7162 35.7901 22.3951 33.9257 23.9713 33.1735C25.5473 32.4213 27.4239 33.0662 28.1625 34.6139Z" fill="url(#paint6_linear_1083_1144)"/>
<path d="M23.8204 32.8574C22.0666 33.6943 21.3111 35.769 22.133 37.4911C22.9549 39.2133 25.0429 39.9309 26.7967 39.0939C28.5505 38.2569 29.306 36.1823 28.4841 34.4601C27.6622 32.7379 25.5742 32.0204 23.8204 32.8574ZM26.5781 38.6358C25.082 39.3499 23.3006 38.7377 22.5995 37.2685C21.8983 35.7993 22.5428 34.0294 24.039 33.3154C25.5352 32.6014 27.3165 33.2136 28.0176 34.6827C28.7188 36.1519 28.0743 37.9218 26.5781 38.6358Z" fill="url(#paint7_linear_1083_1144)"/>
<path d="M82.1744 63.9907H65.6748C61.7444 63.9907 58.5469 60.7932 58.5469 56.8629V54.7509C58.5469 50.8206 61.7444 47.623 65.6748 47.623H82.1744C86.1047 47.623 89.3023 50.8206 89.3023 54.7509V56.8629C89.3023 60.7932 86.1047 63.9907 82.1744 63.9907ZM65.6748 50.263C63.2001 50.263 61.1868 52.2763 61.1868 54.7509V56.8629C61.1868 59.3375 63.2002 61.3508 65.6748 61.3508H82.1744C84.6491 61.3508 86.6623 59.3375 86.6623 56.8629V54.7509C86.6623 52.2763 84.649 50.263 82.1744 50.263H65.6748Z" fill="url(#paint8_linear_1083_1144)"/>
<path d="M58.8424 63.9907H42.3427C38.4124 63.9907 35.2148 60.7932 35.2148 56.8629V54.7509C35.2148 50.8206 38.4124 47.623 42.3427 47.623H58.8424C62.7727 47.623 65.9703 50.8206 65.9703 54.7509V56.8629C65.9702 60.7932 62.7727 63.9907 58.8424 63.9907ZM60.0166 50.4188C59.6422 50.3172 59.2485 50.263 58.8424 50.263H42.3427C39.8681 50.263 37.8548 52.2763 37.8548 54.7509V56.8628C37.8548 59.3375 39.8681 61.3507 42.3427 61.3507H58.8424C61.317 61.3507 63.3303 59.3374 63.3303 56.8628V54.7509C63.3303 52.6824 61.9236 50.9363 60.0166 50.4188Z" fill="url(#paint9_linear_1083_1144)"/>
<path d="M61.7517 52.573C62.5191 51.1965 63.9892 50.263 65.6739 50.263H82.1735C83.8582 50.263 85.3283 51.1965 86.0957 52.573H88.9607C88.0381 49.7046 85.3446 47.623 82.1735 47.623H65.6739C62.5029 47.623 59.8093 49.7046 58.8867 52.573H61.7517Z" fill="url(#paint10_linear_1083_1144)"/>
<path d="M57.3869 73.327C57.4334 73.4748 56.8951 73.6998 56.5782 73.0954C56.5671 72.8057 56.391 71.5648 56.564 71.3288C57.4859 70.072 59.2731 68.4966 59.2731 68.4966C59.5752 68.7946 59.3263 69.0874 59.3263 69.0874L58.4593 69.9906C58.6406 70.3184 58.8619 70.595 58.9655 70.9914C59.0441 71.2916 58.9961 71.6124 58.8444 71.8856C58.6922 72.1598 58.4846 72.5162 58.2882 72.7951C57.9168 73.323 57.3869 73.327 57.3869 73.327Z" fill="url(#paint11_linear_1083_1144)"/>
<path d="M58.0812 70.5767L57.2911 71.2464L57.043 71.9133L57.7474 72.6948C57.7474 72.6948 57.9843 71.3716 58.1603 71.0853C58.3364 70.7989 58.2451 70.6604 58.0812 70.5767Z" fill="url(#paint12_linear_1083_1144)"/>
<path d="M41.8668 122.654C41.8668 122.654 41.6672 123.784 41.5694 124.903C41.5311 125.34 41.8681 125.72 42.3066 125.738C43.7962 125.8 46.9827 125.921 48.126 125.87C48.2979 125.862 48.4103 125.686 48.3467 125.526C48.2934 125.392 48.1905 125.284 48.0595 125.224L42.7962 122.805L41.8668 122.654Z" fill="url(#paint13_linear_1083_1144)"/>
<path d="M41.7031 121.99L41.8635 123.342C41.8635 123.342 42.7855 123.771 43.4152 123.288L43.0333 121.781L41.7031 121.99Z" fill="url(#paint14_linear_1083_1144)"/>
<path d="M41.8227 96.5793C41.7534 96.9323 41.4509 114.194 43.296 121.929C43.3261 122.055 43.2621 122.185 43.142 122.234C42.859 122.35 42.3042 122.518 41.6393 122.54C41.4334 122.547 41.2488 122.413 41.1907 122.215C40.6633 120.421 38.136 111.428 37.8063 102.839C37.4379 93.2402 37.8063 102.512 37.8063 102.512L38.0224 96.5786L41.8227 96.5793Z" fill="url(#paint15_linear_1083_1144)"/>
<path d="M35.8127 123.244C35.8127 123.244 35.495 123.814 35.1873 125.33C35.1318 125.604 35.3231 125.866 35.6011 125.893C36.093 125.942 36.8502 126.004 37.4567 126C37.7364 125.998 37.9546 125.754 37.9209 125.477C37.8537 124.923 37.6443 124.015 36.9978 123.308L35.8127 123.244Z" fill="url(#paint16_linear_1083_1144)"/>
<path d="M35.5332 121.505L35.9079 123.549C35.9079 123.549 36.2785 123.825 37.0114 123.625L36.8325 121.426L35.5332 121.505Z" fill="url(#paint17_linear_1083_1144)"/>
<path d="M34.5204 97.1086C33.0113 106.216 34.8477 119.618 35.4671 122.241C35.5049 122.402 35.6346 122.525 35.7974 122.552C36.0738 122.597 36.529 122.635 36.9777 122.505C37.1322 122.46 37.2409 122.32 37.2472 122.159C37.3303 120.039 37.1807 107.02 38.5868 101.874C38.6581 101.614 38.8173 101.386 39.0376 101.23L41.7668 99.2895L41.976 96.1533L34.5204 97.1086Z" fill="url(#paint18_linear_1083_1144)"/>
<path d="M44.1362 79.8525C39.6139 79.7778 34.624 81.04 34.624 81.04C33.276 88.9056 34.3883 97.9781 34.3883 97.9781C37.8894 98.8962 41.8388 97.4167 41.8388 97.4167C42.4207 94.1291 45.1357 84.8766 45.1357 84.8766C47.3453 84.6023 49.1655 83.9648 50.6645 83.122C49.5211 81.7966 48.9821 80.1102 48.748 79.1133C47.149 79.6102 45.5311 79.8756 44.1362 79.8525Z" fill="url(#paint19_linear_1083_1144)"/>
<path d="M57.4945 73.1913C57.0502 72.6548 56.488 72.9086 56.488 72.9086C55.8225 75.7198 52.333 77.9991 48.748 79.1133C48.9821 80.1102 49.5212 81.7966 50.6646 83.122C56.6141 79.7767 57.4945 73.1913 57.4945 73.1913Z" fill="url(#paint20_linear_1083_1144)"/>
<path d="M36.3585 85.4185L34.6239 81.0396C34.6239 81.0396 30.3998 83.9097 29.7051 87.5486C30.5032 87.6074 31.9556 87.815 33.3772 88.5328C33.6896 86.8145 36.3585 85.4185 36.3585 85.4185Z" fill="url(#paint21_linear_1083_1144)"/>
<path d="M39.5548 76.1807L38.1158 80.342C38.092 80.4109 38.1203 80.4873 38.1841 80.5226C38.5764 80.7394 39.9895 81.3663 41.6926 80.2866C41.87 80.1741 41.9907 79.9906 42.0177 79.7823L42.4837 76.1807H39.5548Z" fill="url(#paint22_linear_1083_1144)"/>
<path d="M42.6843 72.3271C42.6843 72.3271 44.2645 75.3015 44.0619 76.503C43.8594 77.7045 41.9011 77.6183 40.191 76.6424L38.9961 73.4308L42.6843 72.3271Z" fill="url(#paint23_linear_1083_1144)"/>
<path d="M40.2664 75.0653C40.3359 75.0345 40.3615 74.9494 40.3199 74.8858C40.1933 74.6924 39.956 74.2979 39.8802 73.9525C39.8802 73.9525 39.5962 73.7705 40.6033 73.5295C41.6103 73.2885 43.112 72.9143 43.4277 72.0572C43.7354 71.2215 42.9268 69.1198 41.6368 70.7943C41.5877 70.8581 41.4916 70.8594 41.4426 70.7957C41.2311 70.5204 40.675 69.9491 39.9031 70.2955C39.1807 70.6196 39.0994 71.1489 39.1093 71.4157C39.1122 71.4942 39.042 71.5552 38.9649 71.5405C38.5997 71.4709 37.7232 71.411 37.3142 72.3101C36.9772 73.0506 37.1962 73.4699 37.3957 73.6749C37.4603 73.7414 37.432 73.8507 37.3434 73.8779C37.1033 73.9514 36.7934 74.1549 36.8244 74.7173C36.8673 75.4947 37.7365 75.4262 37.984 75.3908C38.0246 75.385 38.0654 75.3989 38.0929 75.4293C38.3051 75.6641 39.2612 76.6612 40.2959 76.7814C40.3855 76.7918 40.455 76.7033 40.4256 76.618L39.9778 75.3163C39.957 75.2558 39.9859 75.1895 40.0444 75.1636L40.2664 75.0653Z" fill="url(#paint24_linear_1083_1144)"/>
<path d="M40.4479 75.2499C40.4479 75.2499 39.3229 74.478 39.2407 75.1281C39.1585 75.7781 40.2538 76.0696 40.7963 75.8273L40.4479 75.2499Z" fill="url(#paint25_linear_1083_1144)"/>
<path d="M33.3764 88.5328C33.3764 88.5328 31.9 95.1935 33.2374 98.9381C31.5978 99.6982 31.9007 99.555 31.9007 99.555C31.9007 99.555 28.6571 90.078 29.7043 87.5486C31.7689 87.3296 32.793 87.8843 33.3764 88.5328Z" fill="url(#paint26_linear_1083_1144)"/>
<path d="M33.2383 98.9384C33.2383 98.9384 34.0832 100.032 34.0156 100.467C33.948 100.903 33.9319 101.08 33.9319 101.08C33.9319 101.08 33.5074 100.79 33.5341 100.419C33.5931 101.597 33.9872 102.936 33.6289 102.871C33.2705 102.806 31.4154 101.096 31.8348 99.2737C32.7865 98.6123 33.0534 98.6842 33.2383 98.9384Z" fill="url(#paint27_linear_1083_1144)"/>
<g opacity="0.9">
<path d="M77.752 125.173C67.8523 120.259 60.2152 112.528 59.3633 96.3521C59.3633 96.3521 85.1294 104.954 77.752 125.173Z" fill="#91B3FA"/>
<path d="M76.1503 121.544C76.0961 121.544 76.0454 121.51 76.0264 121.456C71.5269 108.629 62.8025 101.207 62.7149 101.133C62.6594 101.087 62.652 101.004 62.6987 100.948C62.7452 100.893 62.8279 100.885 62.8836 100.932C62.9717 101.006 71.7497 108.471 76.2742 121.369C76.2982 121.437 76.2622 121.512 76.1938 121.536C76.1794 121.541 76.1648 121.544 76.1503 121.544Z" fill="#BDD0FB"/>
</g>
<path d="M76.751 124.773C69.7929 125.415 63.1174 123.791 57.2891 115.37C57.2891 115.37 74.0087 111.445 76.751 124.773Z" fill="#BDD0FB"/>
<path d="M72.8019 122.549C72.7647 122.549 72.7277 122.533 72.7018 122.503C68.7748 117.874 59.9892 116.38 59.901 116.365C59.8295 116.353 59.781 116.286 59.7928 116.214C59.8046 116.143 59.8712 116.093 59.9436 116.106C60.0328 116.121 68.9132 117.631 72.902 122.333C72.9488 122.388 72.942 122.471 72.8868 122.518C72.8622 122.539 72.832 122.549 72.8019 122.549Z" fill="url(#paint28_linear_1083_1144)"/>
<path d="M77.9628 70.5243C76.5404 70.6422 75.4453 71.8286 75.4354 73.2559C75.3751 81.9843 75.2115 112.091 75.7369 122.75C75.7926 123.879 76.7145 124.769 77.8449 124.786C83.436 124.869 99.5189 125.045 108.652 124.499C110.554 124.385 112.04 122.816 112.046 120.91C112.072 111.749 112.031 85.9849 110.824 74.2035C110.679 72.7919 109.55 71.6859 108.135 71.57C102.039 71.07 85.8498 69.8708 77.9628 70.5243Z" fill="url(#paint29_linear_1083_1144)"/>
<path d="M77.7543 75.926C77.5768 83.0768 77.039 106.865 77.5016 115.649C77.5692 116.933 78.6004 117.954 79.8851 118.006C85.1746 118.221 98.7397 118.661 106.479 117.902C107.872 117.765 108.947 116.617 108.998 115.217C109.26 107.92 109.992 85.7663 109.544 77.0801C109.473 75.6944 108.378 74.5812 106.994 74.4818C101.269 74.0708 86.5653 73.112 79.9857 73.589C78.7506 73.6786 77.785 74.688 77.7543 75.926Z" fill="url(#paint30_linear_1083_1144)"/>
<path opacity="0.09" d="M79.2131 77.5497C79.0564 84.0874 78.5823 105.836 78.9997 113.868C79.0608 115.041 79.985 115.975 81.1361 116.023C85.8754 116.221 98.0295 116.628 104.963 115.936C106.212 115.812 107.175 114.762 107.219 113.483C107.452 106.812 108.101 86.5569 107.696 78.6152C107.632 77.3483 106.651 76.3302 105.411 76.2389C100.281 75.8612 87.1067 74.9798 81.2117 75.4138C80.105 75.4952 79.2402 76.4178 79.2131 77.5497Z" fill="white"/>
<path d="M89.2227 71.848C89.2275 72.1157 89.4401 72.3328 89.7077 72.342C91.0287 72.3876 94.7502 72.5167 96.4135 72.5834C96.7414 72.5966 96.9933 72.2975 96.9254 71.9764L96.9138 71.9216C96.8674 71.7025 96.6821 71.5402 96.4588 71.5238C95.3338 71.4409 91.9397 71.2161 89.6956 71.3364C89.4261 71.3509 89.2179 71.5781 89.2227 71.848Z" fill="url(#paint31_linear_1083_1144)"/>
<path opacity="0.4" d="M103.083 105.724L82.8444 105.485C81.3031 105.467 80.0727 104.195 80.1061 102.653L80.5778 80.9044C80.6108 79.3833 81.8637 78.1732 83.385 78.1931L103.483 78.4561C105.016 78.4762 106.241 79.7369 106.218 81.2697L105.887 102.994C105.863 104.521 104.61 105.742 103.083 105.724Z" fill="white"/>
<path d="M93.9475 99.1239C90.8222 99.1798 88.2405 96.7624 88.1864 93.7352C88.1322 90.7021 90.6259 88.1939 93.7452 88.1382C96.8705 88.0823 99.4523 90.4998 99.5064 93.527L99.5065 93.5328C99.5606 96.56 97.0668 99.0682 93.9475 99.1239ZM93.757 88.4624C90.816 88.5149 88.4695 90.8749 88.5204 93.7233C88.5715 96.5775 91.0007 98.8522 93.9357 98.7997C96.8767 98.7471 99.2232 96.3871 99.1722 93.5388L99.1721 93.5329C99.1213 90.6846 96.6921 88.4099 93.757 88.4624Z" fill="white"/>
<path d="M92.3351 96.418C92.177 96.4208 92.0444 96.3008 92.0374 96.1465L91.8169 91.2995C91.8096 91.1396 91.8867 90.9904 92.0229 90.9004C92.1591 90.8103 92.3302 90.7952 92.4808 90.8604L97.457 93.0127C97.6212 93.0837 97.7281 93.2361 97.736 93.4106C97.7438 93.5849 97.651 93.7461 97.4938 93.8311L93.1769 96.1633C93.0352 96.2397 92.857 96.1903 92.7784 96.0532C92.6998 95.916 92.7508 95.7429 92.8922 95.6664L97.0096 93.442L92.4106 91.4529L92.623 96.1208C92.6301 96.2777 92.5048 96.4107 92.3432 96.4178C92.3404 96.4179 92.3378 96.4179 92.3351 96.418Z" fill="white"/>
<defs>
<linearGradient id="paint0_linear_1083_1144" x1="138.92" y1="144.415" x2="50.8098" y2="50.6204" gradientUnits="userSpaceOnUse">
<stop stop-color="#DAE3FE"/>
<stop offset="1" stop-color="#E9EFFD"/>
</linearGradient>
<linearGradient id="paint1_linear_1083_1144" x1="62.5364" y1="125.202" x2="78.4452" y2="56.9783" gradientUnits="userSpaceOnUse">
<stop stop-color="#09005D"/>
<stop offset="1" stop-color="#1A0F91"/>
</linearGradient>
<linearGradient id="paint2_linear_1083_1144" x1="68.6519" y1="83.4805" x2="65.2866" y2="118.663" gradientUnits="userSpaceOnUse">
<stop stop-color="#09005D"/>
<stop offset="1" stop-color="#1A0F91"/>
</linearGradient>
<linearGradient id="paint3_linear_1083_1144" x1="67.9601" y1="-1.53512" x2="65.2067" y2="97.8946" gradientUnits="userSpaceOnUse">
<stop stop-color="#09005D"/>
<stop offset="1" stop-color="#1A0F91"/>
</linearGradient>
<linearGradient id="paint4_linear_1083_1144" x1="20.0625" y1="37.0934" x2="87.7133" y2="37.0934" gradientUnits="userSpaceOnUse">
<stop stop-color="#DAE3FE"/>
<stop offset="1" stop-color="#E9EFFD"/>
</linearGradient>
<linearGradient id="paint5_linear_1083_1144" x1="29.6451" y1="25.9646" x2="5.55703" y2="68.1481" gradientUnits="userSpaceOnUse">
<stop stop-color="#4F52FF"/>
<stop offset="1" stop-color="#4042E2"/>
</linearGradient>
<linearGradient id="paint6_linear_1083_1144" x1="22.4548" y1="37.3378" x2="28.1625" y2="34.6139" gradientUnits="userSpaceOnUse">
<stop stop-color="#53D8FF"/>
<stop offset="1" stop-color="#3840F7"/>
</linearGradient>
<linearGradient id="paint7_linear_1083_1144" x1="30.686" y1="26.5586" x2="6.59787" y2="68.7421" gradientUnits="userSpaceOnUse">
<stop stop-color="#4F52FF"/>
<stop offset="1" stop-color="#4042E2"/>
</linearGradient>
<linearGradient id="paint8_linear_1083_1144" x1="83.7181" y1="40.9439" x2="44.707" y2="100.149" gradientUnits="userSpaceOnUse">
<stop stop-color="#FF928E"/>
<stop offset="1" stop-color="#FE7062"/>
</linearGradient>
<linearGradient id="paint9_linear_1083_1144" x1="50.3909" y1="56.7813" x2="36.5163" y2="123.842" gradientUnits="userSpaceOnUse">
<stop stop-color="#4F52FF"/>
<stop offset="1" stop-color="#4042E2"/>
</linearGradient>
<linearGradient id="paint10_linear_1083_1144" x1="82.123" y1="39.8934" x2="43.1121" y2="99.0983" gradientUnits="userSpaceOnUse">
<stop stop-color="#FF928E"/>
<stop offset="1" stop-color="#FE7062"/>
</linearGradient>
<linearGradient id="paint11_linear_1083_1144" x1="-9.4354" y1="-18.135" x2="-24.0145" y2="-37.3839" gradientUnits="userSpaceOnUse">
<stop stop-color="#FEBBBA"/>
<stop offset="1" stop-color="#FF928E"/>
</linearGradient>
<linearGradient id="paint12_linear_1083_1144" x1="61.3148" y1="69.1008" x2="48.7859" y2="78.4406" gradientUnits="userSpaceOnUse">
<stop stop-color="#FEBBBA"/>
<stop offset="1" stop-color="#FF928E"/>
</linearGradient>
<linearGradient id="paint13_linear_1083_1144" x1="47.9594" y1="121.093" x2="28.6852" y2="142.057" gradientUnits="userSpaceOnUse">
<stop stop-color="#4F52FF"/>
<stop offset="1" stop-color="#4042E2"/>
</linearGradient>
<linearGradient id="paint14_linear_1083_1144" x1="41.7031" y1="122.649" x2="43.4151" y2="122.649" gradientUnits="userSpaceOnUse">
<stop stop-color="#FEBBBA"/>
<stop offset="1" stop-color="#FF928E"/>
</linearGradient>
<linearGradient id="paint15_linear_1083_1144" x1="49.476" y1="97.3839" x2="33.0755" y2="119.613" gradientUnits="userSpaceOnUse">
<stop stop-color="#4F52FF"/>
<stop offset="1" stop-color="#4042E2"/>
</linearGradient>
<linearGradient id="paint16_linear_1083_1144" x1="43.636" y1="117.117" x2="24.3619" y2="138.082" gradientUnits="userSpaceOnUse">
<stop stop-color="#4F52FF"/>
<stop offset="1" stop-color="#4042E2"/>
</linearGradient>
<linearGradient id="paint17_linear_1083_1144" x1="35.5332" y1="122.562" x2="37.0114" y2="122.562" gradientUnits="userSpaceOnUse">
<stop stop-color="#FEBBBA"/>
<stop offset="1" stop-color="#FF928E"/>
</linearGradient>
<linearGradient id="paint18_linear_1083_1144" x1="46.5537" y1="95.2269" x2="30.1531" y2="117.456" gradientUnits="userSpaceOnUse">
<stop stop-color="#4F52FF"/>
<stop offset="1" stop-color="#4042E2"/>
</linearGradient>
<linearGradient id="paint19_linear_1083_1144" x1="-316.639" y1="595.51" x2="-305.166" y2="579.143" gradientUnits="userSpaceOnUse">
<stop stop-color="#FF928E"/>
<stop offset="1" stop-color="#FE7062"/>
</linearGradient>
<linearGradient id="paint20_linear_1083_1144" x1="-15.4242" y1="-13.5984" x2="-30.0033" y2="-32.8474" gradientUnits="userSpaceOnUse">
<stop stop-color="#FEBBBA"/>
<stop offset="1" stop-color="#FF928E"/>
</linearGradient>
<linearGradient id="paint21_linear_1083_1144" x1="-321.664" y1="591.988" x2="-310.192" y2="575.62" gradientUnits="userSpaceOnUse">
<stop stop-color="#FF928E"/>
<stop offset="1" stop-color="#FE7062"/>
</linearGradient>
<linearGradient id="paint22_linear_1083_1144" x1="35.3149" y1="85.6879" x2="45.6798" y2="71.2226" gradientUnits="userSpaceOnUse">
<stop stop-color="#FEBBBA"/>
<stop offset="1" stop-color="#FF928E"/>
</linearGradient>
<linearGradient id="paint23_linear_1083_1144" x1="43.5232" y1="75.7568" x2="38.7115" y2="72.822" gradientUnits="userSpaceOnUse">
<stop stop-color="#FEBBBA"/>
<stop offset="1" stop-color="#FF928E"/>
</linearGradient>
<linearGradient id="paint24_linear_1083_1144" x1="53.4681" y1="75.961" x2="35.2938" y2="72.2008" gradientUnits="userSpaceOnUse">
<stop stop-color="#09005D"/>
<stop offset="1" stop-color="#1A0F91"/>
</linearGradient>
<linearGradient id="paint25_linear_1083_1144" x1="42.2606" y1="76.8511" x2="37.9315" y2="74.2107" gradientUnits="userSpaceOnUse">
<stop stop-color="#FEBBBA"/>
<stop offset="1" stop-color="#FF928E"/>
</linearGradient>
<linearGradient id="paint26_linear_1083_1144" x1="29.1802" y1="106.376" x2="25.7632" y2="126.194" gradientUnits="userSpaceOnUse">
<stop stop-color="#FEBBBA"/>
<stop offset="1" stop-color="#FF928E"/>
</linearGradient>
<linearGradient id="paint27_linear_1083_1144" x1="31.7948" y1="106.827" x2="28.3778" y2="126.645" gradientUnits="userSpaceOnUse">
<stop stop-color="#FEBBBA"/>
<stop offset="1" stop-color="#FF928E"/>
</linearGradient>
<linearGradient id="paint28_linear_1083_1144" x1="59.791" y1="119.326" x2="72.9331" y2="119.326" gradientUnits="userSpaceOnUse">
<stop stop-color="#DAE3FE"/>
<stop offset="1" stop-color="#E9EFFD"/>
</linearGradient>
<linearGradient id="paint29_linear_1083_1144" x1="62.0405" y1="150.605" x2="141.584" y2="16.6046" gradientUnits="userSpaceOnUse">
<stop stop-color="#09005D"/>
<stop offset="1" stop-color="#1A0F91"/>
</linearGradient>
<linearGradient id="paint30_linear_1083_1144" x1="130.517" y1="22.7204" x2="81.8726" y2="118.173" gradientUnits="userSpaceOnUse">
<stop stop-color="#FF928E"/>
<stop offset="1" stop-color="#FE7062"/>
</linearGradient>
<linearGradient id="paint31_linear_1083_1144" x1="99.2025" y1="44.8268" x2="91.401" y2="79.3979" gradientUnits="userSpaceOnUse">
<stop stop-color="#4F52FF"/>
<stop offset="1" stop-color="#4042E2"/>
</linearGradient>
</defs>
</svg>
