<svg width="206" height="206" viewBox="0 0 206 206" fill="none" xmlns="http://www.w3.org/2000/svg">
<path d="M100.825 205.186C45.3085 205.186 0.304688 160.182 0.304688 104.666V104.666C0.304688 49.1505 45.3085 4.14624 100.825 4.14624C156.34 4.14624 201.344 49.1505 201.344 104.666V104.666C201.344 160.182 156.34 205.186 100.825 205.186Z" fill="#80B0FF"/>
<path d="M2.16797 109.526L5.24368 110.001C5.86008 110.096 6.3436 110.58 6.4386 111.196L6.91373 114.272L7.38821 111.196C7.48357 110.58 7.96673 110.096 8.58349 110.001L11.6588 109.526L8.58349 109.052C7.9668 108.956 7.48357 108.473 7.38821 107.857L6.91373 104.781L6.4386 107.857C6.3436 108.473 5.86008 108.956 5.24368 109.052L2.16797 109.526Z" fill="#25295B"/>
<path d="M33.4766 4.7454L36.5526 5.22053C37.1687 5.31553 37.6522 5.79905 37.7473 6.41545L38.2224 9.49116L38.6972 6.41545C38.7922 5.79905 39.2758 5.31553 39.8922 5.22053L42.9679 4.7454L39.8922 4.27063C39.2758 4.17528 38.7922 3.69175 38.6969 3.07571L38.2224 0L37.7473 3.07571C37.6522 3.69175 37.1687 4.17528 36.5526 4.27063L33.4766 4.7454Z" fill="#25295B"/>
<path d="M170.52 196.412L173.596 196.887C174.212 196.982 174.695 197.465 174.79 198.082L175.265 201.158L175.74 198.082C175.835 197.465 176.319 196.982 176.935 196.887L180.011 196.412L176.935 195.937C176.319 195.842 175.835 195.358 175.74 194.742L175.265 191.666L174.79 194.742C174.695 195.358 174.212 195.842 173.596 195.937L170.52 196.412Z" fill="#25295B"/>
<path d="M182.98 32.751L187.072 33.3826C187.891 33.5093 188.535 34.1524 188.661 34.9721L189.293 39.0634L189.924 34.9721C190.051 34.1524 190.694 33.5093 191.514 33.3826L195.605 32.751L191.514 32.1191C190.694 31.9924 190.051 31.3495 189.924 30.5299L189.293 26.4386L188.661 30.5299C188.535 31.3495 187.891 31.9924 187.072 32.1191L182.98 32.751Z" fill="#25295B"/>
<path d="M205.698 102.239C205.698 102.883 205.176 103.405 204.533 103.405C203.889 103.405 203.367 102.883 203.367 102.239C203.367 101.596 203.889 101.075 204.533 101.075C205.176 101.075 205.698 101.596 205.698 102.239Z" fill="#25295B"/>
<path d="M109.057 194.679C109.057 195.322 108.536 195.844 107.892 195.844C107.248 195.844 106.727 195.322 106.727 194.679C106.727 194.035 107.248 193.514 107.892 193.514C108.536 193.514 109.057 194.035 109.057 194.679Z" fill="#25295B"/>
<path d="M42.8226 178.361C42.8226 179.005 42.3012 179.526 41.6577 179.526C41.0139 179.526 40.4922 179.005 40.4922 178.361C40.4922 177.717 41.0139 177.196 41.6577 177.196C42.3012 177.196 42.8226 177.717 42.8226 178.361Z" fill="#25295B"/>
<path d="M183.744 87.2143C183.744 87.8578 183.223 88.3795 182.58 88.3795C181.936 88.3795 181.414 87.8578 181.414 87.2143C181.414 86.5708 181.936 86.0491 182.58 86.0491C183.223 86.0491 183.744 86.5708 183.744 87.2143Z" fill="#25295B"/>
<path d="M8.62276 152.032C8.62276 153.331 7.56969 154.384 6.27036 154.384C4.97104 154.384 3.91797 153.331 3.91797 152.032C3.91797 150.733 4.97097 149.68 6.27036 149.68C7.56969 149.68 8.62276 150.733 8.62276 152.032Z" fill="#25295B"/>
<path d="M165.705 53.1283C165.705 54.4276 164.652 55.4806 163.352 55.4806C162.053 55.4806 161 54.4275 161 53.1283C161 51.829 162.053 50.7759 163.352 50.7759C164.652 50.7759 165.705 51.829 165.705 53.1283Z" fill="#25295B"/>
<path d="M51.9751 190.987C76.396 191.251 141.069 173.627 176.004 155.987C184.015 151.942 188.499 143.203 187.194 134.324C182.62 103.193 170.633 75.7674 155.541 49.0812L139.288 115.655L55.8982 160.906L40.707 175.127L47.165 190.647L51.9751 190.987Z" fill="#B76042"/>
<path d="M47.4477 191.31C71.8686 191.574 136.542 173.95 171.477 156.31C179.487 152.265 183.971 143.526 182.667 134.647C178.093 103.516 166.106 76.0907 151.014 49.4044L134.76 115.979L51.3708 161.229L36.1797 175.45L42.6376 190.97L47.4477 191.31Z" fill="#A34F38"/>
<path d="M52.5391 192.606C52.3415 192.606 52.1495 192.605 51.9565 192.603C51.9243 192.603 51.8921 192.601 51.8598 192.599L47.05 192.259C46.4404 192.215 45.9072 191.832 45.6721 191.267L39.2139 175.748C38.955 175.126 39.1095 174.408 39.6013 173.947L54.7925 159.726C54.893 159.632 55.0052 159.551 55.1264 159.485L137.887 114.577L153.97 48.6977C154.127 48.0538 154.662 47.5712 155.318 47.4803C155.974 47.389 156.62 47.7085 156.947 48.2854C174.922 80.0694 184.743 106.532 188.792 134.089C190.203 143.694 185.356 153.074 176.731 157.429C143.233 174.344 78.6516 192.606 52.5391 192.606ZM52.0396 189.372C52.1944 189.373 52.3524 189.374 52.5107 189.374C76.1469 189.374 139.428 172.645 175.275 154.544C182.656 150.817 186.803 142.785 185.594 134.559C181.758 108.452 172.637 83.2956 156.136 53.4562L140.856 116.039C140.749 116.482 140.458 116.858 140.057 117.076L56.85 162.227L42.6286 175.541L48.273 189.105L52.0396 189.372Z" fill="#650000"/>
<path d="M109.793 65.3792L101.632 49.6271L97.8263 42.2851L84.3403 16.2488L30.5378 44.1207L10.5156 54.4955L18.1677 69.2617L21.9686 76.603L30.1296 92.3551" fill="#29B860"/>
<g opacity="0.6">
<path d="M109.793 65.3791L106.136 66.6148L100.046 54.859L96.241 47.5169L82.7548 21.4808L28.9524 49.3526L12.3175 57.9703L10.5156 54.4955L30.5378 44.1207L84.3402 16.2488L97.8263 42.2851L101.632 49.627L109.793 65.3791Z" fill="white"/>
</g>
<path d="M30.1298 93.9716C29.5451 93.9716 28.981 93.6535 28.6934 93.0986L9.07951 55.239C8.88263 54.8584 8.84446 54.4152 8.97404 54.0065C9.10369 53.598 9.39062 53.2576 9.77104 53.0606L29.7931 42.6859L83.5958 14.8139C83.9766 14.617 84.4194 14.5794 84.8283 14.7087C85.2368 14.8383 85.577 15.125 85.7742 15.5057L111.227 64.6357C111.638 65.4282 111.328 66.4035 110.535 66.8141C109.742 67.2241 108.767 66.9146 108.357 66.1225L83.6476 18.4273L12.6929 55.1868L31.5634 91.6117C31.974 92.4042 31.6643 93.3795 30.8718 93.7901C30.6343 93.9131 30.3799 93.9714 30.1298 93.9716Z" fill="#650000"/>
<path d="M101.176 68.295L93.0196 52.5436L84.4313 35.9703C80.2336 38.1466 75.0673 36.5037 72.891 32.306L30.2346 54.4073C32.4109 58.605 30.768 63.7713 26.5703 65.9476L30.5772 73.6864L38.7388 89.4338" fill="#4FEC91"/>
<path d="M74.0814 76.4887C78.2378 72.3323 78.2378 65.5935 74.0814 61.437C69.925 57.2806 63.1862 57.2806 59.0297 61.437C54.8733 65.5935 54.8733 72.3323 59.0297 76.4887C63.1862 80.6451 69.925 80.6451 74.0814 76.4887Z" fill="#1FBC61"/>
<path d="M144.006 65.8805L141.033 48.3908L139.645 40.2384L134.733 11.3311L74.9967 21.4845L52.7656 25.2655L55.5546 41.6611L56.938 49.8114L59.9114 67.3011" fill="#29B860"/>
<g opacity="0.6">
<path d="M144.006 65.8804L140.147 65.9431L137.929 52.8908L136.541 44.7384L131.629 15.8311L71.8927 25.9846L53.423 29.1241L52.7656 25.2655L74.9968 21.4845L134.733 11.3311L139.645 40.2384L141.033 48.3908L144.006 65.8804Z" fill="white"/>
</g>
<path d="M59.9085 68.9174C59.1349 68.9176 58.4514 68.3602 58.3172 67.572L51.1713 25.5366C51.0995 25.1141 51.1986 24.6803 51.4463 24.3307C51.6943 23.9811 52.0709 23.7442 52.4938 23.6724L74.7252 19.8913L134.462 9.7379C134.884 9.66537 135.318 9.76524 135.667 10.0131C136.017 10.2611 136.254 10.6377 136.326 11.0604L145.599 65.6097C145.748 66.4896 145.156 67.3241 144.276 67.4737C143.395 67.6242 142.561 67.0309 142.412 66.1513L133.41 13.195L75.2668 23.0777L54.6288 26.5877L61.5039 67.0303C61.6535 67.9102 61.0614 68.7447 60.1814 68.8943C60.0899 68.9099 59.9985 68.9174 59.9085 68.9174Z" fill="#650000"/>
<path d="M134.913 66.0327L131.944 48.5451L128.814 30.143C124.153 30.9369 119.733 27.798 118.939 23.1367L71.5766 31.1901C72.3705 35.8513 69.2316 40.2713 64.5703 41.0653L66.0288 49.657L69.0042 67.1424" fill="#4FEC91"/>
<path d="M109.261 63.6469C113.418 59.4905 113.418 52.7517 109.261 48.5953C105.105 44.4388 98.3658 44.4388 94.2094 48.5953C90.053 52.7517 90.053 59.4905 94.2094 63.6469C98.3658 67.8033 105.105 67.8033 109.261 63.6469Z" fill="#1FBC61"/>
<path d="M171.133 75.5083L173.656 57.948L174.831 49.7623L179.004 20.739L119.027 12.1185L96.7058 8.91254L94.3419 25.3749L93.1639 33.5574L90.6406 51.1177" fill="#29B860"/>
<g opacity="0.6">
<path d="M171.131 75.5082L167.438 74.3865L169.322 61.2818L170.496 53.096L174.669 24.0728L114.693 15.4523L96.1484 12.7872L96.7038 8.91254L119.025 12.1185L179.002 20.739L174.829 49.7622L173.654 57.948L171.131 75.5082Z" fill="white"/>
</g>
<path d="M171.135 77.1247C171.058 77.1247 170.981 77.1193 170.903 77.1081C170.019 76.9811 169.406 76.162 169.533 75.2786L177.174 22.1088L98.0747 10.7422L92.2394 51.3475C92.1125 52.2314 91.29 52.8445 90.4099 52.7174C89.5264 52.5904 88.9133 51.7713 89.04 50.8879L95.1051 8.68311C95.1661 8.25885 95.3931 7.87613 95.7361 7.61912C96.0794 7.36233 96.5089 7.25234 96.9346 7.31311L119.256 10.5191L179.233 19.1396C179.657 19.2006 180.04 19.4276 180.297 19.7707C180.554 20.1138 180.664 20.545 180.603 20.9692L172.732 75.7383C172.617 76.5437 171.925 77.1247 171.135 77.1247Z" fill="#650000"/>
<path d="M162.429 72.8694L164.955 55.3124L167.608 36.8356C162.928 36.1644 159.681 31.8231 160.352 27.1427L112.798 20.3109C112.127 24.9914 107.786 28.2384 103.105 27.5672L101.864 36.1929L99.3438 53.7498" fill="#4FEC91"/>
<path d="M141.402 60.8039C145.558 56.6474 145.558 49.9085 141.402 45.7521C137.245 41.5957 130.507 41.5957 126.35 45.7522C122.194 49.9086 122.194 56.6475 126.35 60.8039C130.506 64.9603 137.245 64.9603 141.402 60.8039Z" fill="#1FBC61"/>
<path d="M118.129 102.138L126.78 117.627L130.811 124.848L145.111 150.446L92.2109 179.994L72.5225 190.989L64.4141 176.468L60.3811 169.252L51.7305 153.763" fill="#29B860"/>
<path d="M72.5219 192.605C72.374 192.605 72.2258 192.585 72.0811 192.544C71.6687 192.427 71.3198 192.151 71.111 191.777L50.3189 154.551C49.8834 153.772 50.1623 152.788 50.9418 152.352C51.7199 151.917 52.7054 152.196 53.1406 152.975L73.1448 188.79L142.911 149.823L116.718 102.926C116.282 102.147 116.561 101.163 117.341 100.727C118.119 100.292 119.105 100.571 119.54 101.35L146.521 149.658C146.73 150.032 146.782 150.474 146.665 150.886C146.549 151.299 146.273 151.648 145.898 151.857L73.31 192.4C73.067 192.536 72.7951 192.605 72.5219 192.605Z" fill="#650000"/>
<path d="M110.948 107.722L119.6 123.206L128.701 139.504C124.572 141.809 123.097 147.025 125.402 151.154L83.4578 174.579C81.1534 170.45 75.9366 168.975 71.8079 171.28L67.5565 163.673L58.9102 148.186" fill="#4FEC91"/>
<path d="M98.8432 143.772C103 139.615 103 132.877 98.8432 128.72C94.6867 124.564 87.9479 124.564 83.7915 128.72C79.6351 132.877 79.6351 139.615 83.7915 143.772C87.9479 147.928 94.6867 147.928 98.8432 143.772Z" fill="#1FBC61"/>
<path d="M57.4133 147.477C57.1926 147.944 57.1932 148.508 57.4644 148.993L70.3624 172.088C70.8082 172.886 71.8167 173.172 72.6151 172.726C75.9416 170.869 80.1568 172.063 82.012 175.386C82.2261 175.77 82.5837 176.052 83.0065 176.172C83.4291 176.292 83.8821 176.239 84.2654 176.025L126.209 152.6C127.009 152.154 127.294 151.145 126.848 150.347C124.992 147.02 126.185 142.805 129.508 140.95C129.892 140.736 130.175 140.377 130.295 139.956C130.415 139.533 130.361 139.08 130.147 138.697L112.394 106.914C111.948 106.116 110.938 105.83 110.14 106.277C109.341 106.722 109.056 107.732 109.502 108.53L126.513 138.983C123.095 141.699 121.779 146.341 123.266 150.45L83.9795 172.391C81.263 168.972 76.6202 167.658 72.5116 169.144L60.3563 147.378C59.9104 146.58 58.9015 146.294 58.1029 146.74C57.79 146.915 57.5556 147.176 57.4133 147.477Z" fill="#650000"/>
<path d="M148.8 112.303L152.233 129.708L153.831 137.822L159.506 166.589L100.058 178.314L77.9332 182.675L74.7172 166.358L73.1158 158.248L69.6836 140.842" fill="#29B860"/>
<path d="M77.9325 184.291C77.6143 184.291 77.3004 184.197 77.0324 184.017C76.6765 183.779 76.4299 183.408 76.3468 182.988L68.0973 141.155C67.9245 140.279 68.4945 139.429 69.3704 139.257C70.2445 139.083 71.0958 139.654 71.2685 140.53L79.2055 180.777L99.7443 176.728L157.607 165.316L147.214 112.616C147.041 111.74 147.611 110.89 148.487 110.717C149.361 110.545 150.212 111.115 150.385 111.99L161.09 166.276C161.173 166.697 161.086 167.133 160.847 167.489C160.608 167.845 160.238 168.092 159.818 168.175L100.37 179.899L78.2448 184.261C78.1413 184.281 78.0365 184.291 77.9325 184.291Z" fill="#650000"/>
<path d="M140.244 115.39L143.68 132.792L147.289 151.106C142.65 152.02 139.633 156.524 140.546 161.163L93.4118 170.456C92.4985 165.817 87.9944 162.8 83.3551 163.713L81.6669 155.164L78.2383 137.761" fill="#4FEC91"/>
<path d="M120.277 143.965C124.433 139.808 124.433 133.069 120.277 128.913C116.12 124.756 109.381 124.756 105.225 128.913C101.069 133.069 101.069 139.808 105.225 143.965C109.381 148.121 116.12 148.121 120.277 143.965Z" fill="#1FBC61"/>
<path d="M165.175 115.979L162.538 133.522L161.307 141.7L156.95 170.696L97.0301 161.691L74.7305 158.337L77.2043 141.891L78.4311 133.715L81.0684 116.172" fill="#29B860"/>
<path d="M156.95 172.312C156.87 172.312 156.789 172.306 156.709 172.294L96.7888 163.289L74.4892 159.935C74.0653 159.871 73.6841 159.642 73.4294 159.297C73.175 158.952 73.0675 158.52 73.1313 158.097L79.4693 115.932C79.6021 115.049 80.4208 114.441 81.3079 114.574C82.1904 114.706 82.7982 115.529 82.6658 116.412L76.5681 156.979L155.592 168.858L163.576 115.738C163.709 114.856 164.53 114.247 165.414 114.38C166.297 114.513 166.905 115.336 166.772 116.219L158.548 170.936C158.484 171.36 158.255 171.741 157.91 171.996C157.63 172.202 157.293 172.312 156.95 172.312Z" fill="#650000"/>
<path d="M156.078 116.001L153.444 133.542L150.668 152.001C145.992 151.297 141.633 154.52 140.929 159.195L93.421 152.052C94.1253 147.377 90.9022 143.018 86.2266 142.313L87.5199 133.695L90.1593 116.156" fill="#4FEC91"/>
<path d="M123.1 137.191C128.978 137.191 133.744 132.426 133.744 126.548C133.744 120.669 128.978 115.904 123.1 115.904C117.222 115.904 112.457 120.669 112.457 126.548C112.457 132.426 117.222 137.191 123.1 137.191Z" fill="#1FBC61"/>
<path d="M156.931 145.689C109.464 163.071 54.5075 177.034 55.2509 183.531L54.9373 190.732L54.9276 190.964C49.8919 191.12 45.4219 190.712 41.8795 189.384C38.5245 188.13 36.136 185.134 35.5768 181.594C30.735 150.934 24.5035 121.687 17.0566 93.6704C15.0688 86.1783 17.9971 78.2434 24.4098 73.8896C49.9825 56.5201 90.6559 43.0679 134.148 33.9112C142.726 32.1077 151.304 36.9429 154.2 45.214C159.588 60.5926 164.753 77.4289 169.763 95.2735C171.317 100.8 172.856 106.424 174.381 112.132C178.124 126.147 170.551 140.701 156.931 145.689Z" fill="#B76042"/>
<g opacity="0.4">
<path d="M37.5161 185.15C32.6744 154.49 26.4428 125.242 18.9959 97.2259C17.0081 89.7338 19.9364 81.7988 26.3491 77.4451C51.9218 60.0756 92.5952 46.6233 136.087 37.4667C143.037 36.0055 149.986 38.9027 153.914 44.4534C150.771 36.6491 142.459 32.1638 134.148 33.9113C90.6559 43.068 49.9825 56.5202 24.4098 73.8898C17.9972 78.2435 15.0688 86.1784 17.0566 93.6705C24.5035 121.687 30.735 150.934 35.5768 181.595C35.8692 183.446 36.6659 185.145 37.8358 186.528C37.6991 186.079 37.5904 185.62 37.5161 185.15Z" fill="white"/>
</g>
<path d="M156.929 145.689C109.462 163.071 54.5059 177.034 55.2493 183.531L54.9357 190.732L54.48 190.121C52.594 189.954 50.6749 190.076 48.7728 190.105C44.6583 190.17 43.8897 189.832 43.1674 189.542C41.2574 188.776 38.7809 186.913 38.4421 184.5C38.038 181.623 40.8263 179.051 41.8423 178.113C52.055 168.692 118.691 149.852 146.864 139.887C155.966 136.668 165.802 132.401 169.874 123.652C174.247 114.249 170.372 103.266 166.487 93.6541C167.634 94.084 168.727 94.6301 169.761 95.2734C171.316 100.8 172.854 106.424 174.38 112.132C178.123 126.147 170.55 140.701 156.929 145.689Z" fill="#A34F38"/>
<path d="M52.9641 192.612C48.2082 192.612 44.3822 192.048 41.3118 190.899C37.4436 189.451 34.6349 185.983 33.9819 181.847C29.2789 152.077 23.0594 122.549 15.4965 94.0843C13.3293 85.9287 16.5461 77.2756 23.5008 72.5521C53.4771 52.1936 100.036 39.4427 133.815 32.331C143.152 30.365 152.572 35.6743 155.727 44.6804C162.274 63.373 168.887 85.3008 175.943 111.716C177.857 118.884 177.025 126.457 173.601 133.041C170.177 139.624 164.454 144.655 157.486 147.206C140.485 153.433 122.445 159.246 106.528 164.376C92.5468 168.882 80.4726 172.773 71.4425 176.156C58.8695 180.866 57.0968 182.884 56.8648 183.443C56.9117 184.291 56.2895 185.038 55.4347 185.136C54.5452 185.236 53.7468 184.601 53.6455 183.714C53.0664 178.65 65.8475 174.09 105.536 161.3C121.425 156.179 139.433 150.376 156.375 144.171C169.301 139.438 176.371 125.844 172.82 112.55C165.785 86.2146 159.196 64.3636 152.676 45.7488C150.056 38.2699 142.236 33.8617 134.48 35.4938C100.986 42.5457 54.8576 55.1631 25.3168 75.2259C19.4962 79.179 16.8049 86.4241 18.62 93.2543C26.2116 121.826 32.454 151.463 37.1742 181.343C37.6461 184.33 39.6655 186.831 42.4447 187.871C45.5358 189.028 49.6022 189.512 54.878 189.349C55.7626 189.324 56.5158 190.023 56.5431 190.915C56.5705 191.807 55.8698 192.552 54.9775 192.58C54.2888 192.601 53.6175 192.612 52.9641 192.612ZM56.8568 183.347C56.8568 183.348 56.8568 183.348 56.8568 183.349C56.8568 183.348 56.8568 183.348 56.8568 183.347Z" fill="#650000"/>
<path d="M190.812 115.862C188.967 116.987 186.849 117.857 184.503 118.509C183.336 114.133 182.266 110.132 181.274 106.421C178.74 103.968 176.284 101.858 173.979 100.403C172.315 99.3526 170.285 99.0262 168.368 99.4722C160.317 101.337 153.08 105.054 143.487 105.636C135.239 106.292 129.004 101.534 125.39 94.9149C122.779 90.1346 121.531 84.3781 121.877 78.9869C122.323 72.0346 126.412 65.8159 132.585 62.5903C139.185 59.1415 145.636 56.3522 151.849 54.6488C155.268 53.7115 158.911 53.941 162.166 55.3469C167.175 57.5125 172.137 60.1823 177.053 63.3239C180.582 65.5799 183.407 68.7798 185.285 72.5258C189.781 81.4756 193.007 90.3123 194.649 98.2247C195.227 101.004 195.612 103.671 195.786 106.185C196.058 110.09 194.151 113.82 190.812 115.862Z" fill="#B76042"/>
<g opacity="0.4">
<path d="M195.788 106.185C195.614 103.671 195.229 101.004 194.65 98.2246C193.008 90.3123 189.783 81.4755 185.287 72.5257C183.409 68.7797 180.584 65.5798 177.055 63.3238C172.138 60.1821 167.177 57.5124 162.167 55.3468C158.912 53.9409 155.27 53.7114 151.85 54.6487C145.638 56.352 139.187 59.1413 132.587 62.5901C126.413 65.8158 122.325 72.0344 121.879 78.9868C121.804 80.1532 121.808 81.337 121.88 82.5241C122.332 75.579 126.419 69.3684 132.587 66.1455C139.187 62.6968 145.638 59.9074 151.85 58.2041C151.852 58.2036 151.853 58.2032 151.855 58.2028C152.177 58.1147 152.517 58.107 152.846 58.1712C154.126 58.4217 155.336 59.0458 156.252 59.9768C157.254 60.9951 157.889 62.3089 158.506 63.5971C160.664 68.0982 162.821 72.5993 164.977 77.1005C163.78 73.1961 162.582 69.2917 161.385 65.3872C161.059 64.3252 160.815 63.2373 160.706 62.1317C160.637 61.4357 160.663 60.7092 161.03 60.1231C161.069 60.062 161.11 60.0035 161.155 59.9477C161.686 59.2792 162.638 59.1072 163.416 59.4574C168.002 61.519 172.547 63.9989 177.055 66.8791C180.584 69.1351 183.409 72.3349 185.287 76.081C189.783 85.0308 193.008 93.8675 194.65 101.78C195.137 104.116 195.484 106.371 195.687 108.524C195.804 107.76 195.843 106.977 195.788 106.185Z" fill="white"/>
</g>
<path d="M190.488 115.862C188.643 116.987 186.526 117.857 184.179 118.51C183.012 114.133 181.943 110.132 180.95 106.421C178.416 103.968 175.96 101.858 173.655 100.403C171.991 99.3526 169.961 99.0262 168.044 99.4722C159.993 101.337 152.756 105.054 143.163 105.636C134.915 106.292 128.68 101.534 125.066 94.9149C125.273 94.5045 125.512 94.1101 125.777 93.7319L125.971 93.7837C126.788 95.7942 128.732 99.694 132.82 101.757C137.34 104.039 142.006 102.826 147.365 101.434C154.865 99.4856 162.006 95.5962 162.556 95.2931C164.611 94.1609 167.407 92.4752 171.606 91.7377C174.244 91.2744 175.562 91.0428 177.204 91.5276C180.649 92.5451 181.611 94.6847 186.768 100.629C188.164 102.239 190.078 104.098 192.091 103.396C193.151 103.024 193.866 101.987 194.153 100.898C194.38 100.028 194.376 99.1232 194.325 98.2247C194.903 101.004 195.288 103.671 195.463 106.185C195.734 110.09 193.827 113.82 190.488 115.862Z" fill="#A34F38"/>
<path d="M184.181 120.125C183.902 120.125 183.625 120.053 183.379 119.912C183.005 119.698 182.731 119.343 182.62 118.926L179.506 107.274C176.9 104.777 174.702 102.974 172.795 101.771C171.512 100.961 169.911 100.698 168.409 101.046C165.645 101.686 163.007 102.542 160.213 103.447C155.037 105.125 149.685 106.86 143.262 107.249C137.536 107.703 132.27 105.754 128.061 101.609C122.505 96.1353 119.393 87.4271 119.941 78.8821C120.419 71.4317 124.853 64.6405 131.514 61.1586C138.811 57.3436 145.217 54.7043 151.098 53.0899C154.881 52.0521 158.924 52.3265 162.483 53.8635C167.494 56.0275 172.58 58.7521 177.6 61.9618C181.326 64.3443 184.372 67.7459 186.408 71.7992C192.611 84.1488 196.4 96.3207 197.076 106.073C197.391 110.603 195.189 114.883 191.331 117.241C189.424 118.407 187.164 119.357 184.614 120.066C184.472 120.106 184.326 120.125 184.181 120.125ZM174.52 99.0378C176.695 100.41 179.166 102.446 182.075 105.261C182.285 105.464 182.436 105.722 182.512 106.005L185.309 116.471C186.932 115.92 188.385 115.254 189.645 114.483C192.471 112.756 194.082 109.62 193.852 106.297C193.204 96.9618 189.535 85.2257 183.52 73.25C181.744 69.7161 179.096 66.7543 175.859 64.685C170.985 61.5687 166.054 58.9261 161.201 56.8309C158.314 55.584 155.03 55.3621 151.954 56.207C146.298 57.7595 140.101 60.3161 133.011 64.0231C127.344 66.9852 123.572 72.7582 123.166 79.089C122.684 86.6094 125.496 94.5451 130.329 99.3062C133.85 102.774 138.247 104.404 143.036 104.025C149.08 103.658 154.233 101.988 159.216 100.373C161.952 99.4861 164.781 98.5691 167.679 97.8974C170.018 97.3554 172.512 97.7707 174.52 99.0378Z" fill="#650000"/>
<path d="M181.076 104.31C183.221 106.187 184.75 108.661 186.151 111.13L178.897 106.697C178.133 106.23 177.892 105.231 178.359 104.467C178.86 103.633 180.015 103.437 180.766 104.054L181.076 104.31Z" fill="#650000"/>
<g opacity="0.25">
<path d="M51.0499 111.686L38.696 117.566C36.2564 118.727 33.5778 117.295 32.7541 114.389L27.6907 96.5289C26.8861 93.6908 28.1564 90.5108 30.5428 89.3889L42.8296 83.613C45.2558 82.4725 47.9123 83.89 48.7442 86.7691L53.8748 104.526C54.6937 107.361 53.435 110.551 51.0499 111.686Z" fill="white"/>
</g>
<g opacity="0.25">
<path d="M57.7188 128.732L42.2178 135.776C40.6188 136.503 38.884 135.555 38.3469 133.661L37.4679 130.562C36.9418 128.707 37.7599 126.627 39.3127 125.871L54.6729 118.395C56.2794 117.613 58.0548 118.544 58.6077 120.459L59.6274 123.991C60.1731 125.881 59.3178 128.006 57.7188 128.732Z" fill="white"/>
</g>
<g opacity="0.3">
<path d="M49.0263 173.85C53.0976 171.985 57.3425 170.494 61.542 168.943C65.7251 167.399 69.8682 165.748 74.0661 164.241C82.4758 161.221 90.989 158.493 99.504 155.789C108.305 152.995 117.116 150.23 125.912 147.417C134.696 144.609 143.456 141.705 152.083 138.436C155.834 137.014 159.641 135.526 162.849 133.055C163.644 132.443 164.398 131.786 165.091 131.058C165.801 130.311 166.261 129.438 166.807 128.573C167.884 126.868 168.771 125.059 169.576 123.212C169.969 122.313 170.314 121.408 170.623 120.476C170.746 120.105 170.175 119.863 169.991 120.209C169.047 121.992 168.155 123.784 167.121 125.517C166.621 126.356 166.038 127.133 165.41 127.881C165.098 128.252 164.731 128.55 164.368 128.87C163.981 129.212 163.648 129.613 163.278 129.974C160.471 132.714 156.811 134.35 153.2 135.738C144.701 139.005 136.032 141.832 127.366 144.613C118.662 147.407 109.938 150.138 101.222 152.894C92.7741 155.566 84.3362 158.266 75.9893 161.244C71.8203 162.731 67.6684 164.273 63.5726 165.953C59.4732 167.635 55.5542 169.645 51.6356 171.701C50.649 172.219 49.6437 172.7 48.6489 173.202C48.2143 173.421 48.5951 174.047 49.0263 173.85Z" fill="white"/>
</g>
<path d="M142.835 93.3728C147.741 93.1351 151.504 88.5279 151.24 83.0825C150.976 77.637 146.785 73.4153 141.879 73.653C136.973 73.8908 133.21 78.4979 133.474 83.9434C133.738 89.3888 137.929 93.6105 142.835 93.3728Z" fill="#A34F38"/>
<path d="M141.549 90.4447C146.012 90.4447 149.629 86.827 149.629 82.3644C149.629 77.9017 146.012 74.2841 141.549 74.2841C137.086 74.2841 133.469 77.9017 133.469 82.3644C133.469 86.827 137.086 90.4447 141.549 90.4447Z" fill="#FEDA24"/>
<path d="M145.459 75.2925C146.354 76.1546 147.036 77.2635 147.385 78.5522C148.408 82.3309 146.188 86.2203 142.425 87.2395C138.663 88.2586 134.783 86.0216 133.759 82.2429C133.663 81.8895 133.596 81.5352 133.556 81.1822C133.499 81.5682 133.469 81.9626 133.469 82.3643C133.469 86.8269 137.086 90.4446 141.549 90.4446C146.012 90.4446 149.629 86.8269 149.629 82.3643C149.629 79.3201 147.945 76.6702 145.459 75.2925Z" fill="#EA9F1B"/>
<path d="M141.549 91.7376C136.381 91.7376 132.176 87.5327 132.176 82.3644C132.176 77.196 136.381 72.991 141.549 72.991C146.717 72.991 150.922 77.1959 150.922 82.3644C150.922 87.5328 146.717 91.7376 141.549 91.7376ZM141.549 75.5769C137.806 75.5769 134.761 78.6218 134.761 82.3645C134.761 86.107 137.806 89.1518 141.549 89.1518C145.292 89.1518 148.336 86.1069 148.336 82.3645C148.336 78.6217 145.292 75.5769 141.549 75.5769Z" fill="#650000"/>
</svg>
