<svg width="12" height="13" viewBox="0 0 12 13" fill="none" xmlns="http://www.w3.org/2000/svg">
<path d="M6 0.5C2.6916 0.5 0 3.1916 0 6.5V8.9858C0 9.6002 0.5382 10.1 1.2 10.1H1.8C1.95913 10.1 2.11174 10.0368 2.22426 9.92426C2.33679 9.81174 2.4 9.65913 2.4 9.5V6.4142C2.4 6.25507 2.33679 6.10246 2.22426 5.98994C2.11174 5.87741 1.95913 5.8142 1.8 5.8142H1.2552C1.5888 3.4922 3.5868 1.7 6 1.7C8.4132 1.7 10.4112 3.4922 10.7448 5.8142H10.2C10.0409 5.8142 9.88826 5.87741 9.77574 5.98994C9.66321 6.10246 9.6 6.25507 9.6 6.4142V10.1C9.6 10.7618 9.0618 11.3 8.4 11.3H7.2V10.7H4.8V12.5H8.4C9.7236 12.5 10.8 11.4236 10.8 10.1C11.4618 10.1 12 9.6002 12 8.9858V6.5C12 3.1916 9.3084 0.5 6 0.5Z" fill="white"/>
</svg>
