<svg width="126" height="136" viewBox="0 0 126 136" fill="none" xmlns="http://www.w3.org/2000/svg">
<path d="M18.3575 126.309C42.8338 139.209 82.5175 139.21 106.994 126.31C131.47 113.409 131.47 92.4948 106.994 79.5949C82.5172 66.695 42.8335 66.695 18.3572 79.5946C-6.11912 92.4945 -6.11912 113.41 18.3575 126.309Z" fill="#F5F5F5"/>
<path d="M7.8629 110.172L8.99873 110.82C9.36235 111.029 9.95168 111.029 10.315 110.819L62.8112 80.5122C63.1745 80.3026 63.1739 79.9632 62.8103 79.7545L61.6823 79.1111C61.3184 78.9025 60.7291 78.9031 60.3658 79.113L7.86199 109.414C7.49867 109.624 7.49928 109.963 7.8629 110.172Z" fill="#E0E0E0"/>
<path d="M94.9797 118.519C88.7234 121.949 78.5799 121.949 72.3233 118.519C66.0667 115.089 66.0667 109.527 72.3233 106.097C78.5796 102.667 88.7231 102.667 94.9797 106.097C101.236 109.527 101.236 115.089 94.9797 118.519Z" fill="#E0E0E0"/>
<path d="M110.9 95.2047C106.073 97.8512 98.2476 97.8512 93.4208 95.2047C88.5941 92.5588 88.5941 88.268 93.4208 85.6211C98.2476 82.9752 106.073 82.9752 110.9 85.6211C115.727 88.268 115.727 92.5588 110.9 95.2047Z" fill="#E0E0E0"/>
<path d="M108.207 83.6045C108.189 82.0525 109.272 78.8249 110.859 76.7902C112.445 74.7558 114.959 73.2521 116.765 73.8457C118.447 74.3986 118.292 76.5982 116.277 78.0791C114.262 79.5597 111.229 81.4258 110.366 83.9539L108.527 87.0652L108.207 83.6045Z" fill="#27DEBF"/>
<path opacity="0.1" d="M108.207 83.6045C108.189 82.0525 109.272 78.8249 110.859 76.7902C112.445 74.7558 114.959 73.2521 116.765 73.8457C118.447 74.3986 118.292 76.5982 116.277 78.0791C114.262 79.5597 111.229 81.4258 110.366 83.9539L108.527 87.0652L108.207 83.6045Z" fill="black"/>
<path d="M108.118 85.7294C108.167 85.7249 108.21 85.6878 108.219 85.6371C109.194 80.3271 113.428 75.9697 115.982 74.9875C116.04 74.9651 116.069 74.8995 116.047 74.8411C116.025 74.7831 115.96 74.7524 115.9 74.7761C113.298 75.7771 108.986 80.2058 107.996 85.5964C107.985 85.6578 108.025 85.717 108.087 85.7282C108.097 85.7301 108.108 85.7307 108.118 85.7294Z" fill="white"/>
<path d="M108.948 89.1115C109.186 88.2363 110.235 86.7837 111.944 85.574C113.835 84.2356 116.24 83.6019 116.784 82.5712C117.437 81.3333 116.386 80.1835 114.431 80.4499C112.475 80.7163 109.065 83.4297 108.562 87.459L108.948 89.1115Z" fill="#27DEBF"/>
<path d="M108.557 88.2002C108.6 88.1963 108.639 88.1677 108.654 88.124C110.224 83.5661 113.668 81.9317 115.269 81.7042C115.331 81.6954 115.374 81.638 115.365 81.576C115.356 81.5137 115.302 81.4706 115.237 81.4797C113.466 81.7313 110.043 83.3981 108.44 88.0505C108.419 88.1097 108.451 88.1744 108.51 88.1947C108.526 88.1999 108.542 88.2017 108.557 88.2002Z" fill="white"/>
<path d="M9.28108 109.407L9.05052 109.274C8.68173 109.061 8.38281 108.543 8.38281 108.117V30.2729C8.38281 29.847 8.68173 29.3294 9.05052 29.1164L59.2094 0.159711C59.5782 -0.0532371 60.1761 -0.0532371 60.5448 0.159711L60.7754 0.292767C61.1442 0.505715 61.4431 1.02335 61.4431 1.44925V79.2936C61.4431 79.7195 61.1442 80.2371 60.7754 80.4501L10.6165 109.407C10.2477 109.62 9.64957 109.62 9.28108 109.407Z" fill="#27DEBF"/>
<path opacity="0.4" d="M61.4368 1.34194C61.3913 0.995632 61.1115 0.869868 60.7758 1.06216L10.6154 30.0213C10.4301 30.1261 10.2657 30.3114 10.1433 30.518L8.58008 29.6158C8.69886 29.4059 8.86684 29.2242 9.05215 29.1158L59.2092 0.159939C59.5798 -0.0533131 60.178 -0.0533131 60.545 0.159939L60.7758 0.292994C61.1118 0.488931 61.3949 0.940041 61.4368 1.34194Z" fill="white"/>
<path opacity="0.1" d="M10.5039 109.459C10.1367 109.617 9.61567 109.599 9.28334 109.407L9.04913 109.274C8.68186 109.06 8.38477 108.543 8.38477 108.116V30.2731C8.38477 30.0598 8.45828 29.822 8.5807 29.6157L10.1439 30.5179C10.0252 30.7279 9.94801 30.9654 9.94801 31.1753V109.022C9.94801 109.403 10.1892 109.582 10.5039 109.459Z" fill="black"/>
<path d="M15.8612 81.2538L15.6306 81.1207C15.2618 80.9078 14.9629 80.3898 14.9629 79.9642V65.9725C14.9629 65.5466 15.2618 65.029 15.6306 64.816L61.169 38.5C61.5378 38.2871 62.1357 38.2871 62.5045 38.5L62.735 38.6331C63.1038 38.846 63.4027 39.3637 63.4027 39.7896V53.7813C63.4027 54.2072 63.1038 54.7248 62.735 54.9378L17.1966 81.2538C16.8278 81.4667 16.2299 81.4667 15.8612 81.2538Z" fill="#EBEBEB"/>
<path d="M63.3965 39.6823C63.3509 39.336 63.0714 39.2102 62.7354 39.4025L17.1955 65.7212C17.0102 65.826 16.8458 66.0116 16.7234 66.2179L15.1602 65.3157C15.2792 65.1058 15.4469 64.9241 15.6322 64.8156L61.1689 38.5003C61.5395 38.287 62.1376 38.287 62.5046 38.5003L62.7354 38.633C63.0711 38.829 63.3545 39.2801 63.3965 39.6823Z" fill="#FAFAFA"/>
<path d="M17.084 81.3065C16.7167 81.4638 16.1958 81.4462 15.8634 81.2539L15.6292 81.1212C15.2619 80.9079 14.9648 80.3903 14.9648 79.9638V65.9733C14.9648 65.76 15.0384 65.5222 15.1608 65.3159L16.724 66.2181C16.6052 66.428 16.5281 66.6656 16.5281 66.8755V80.8694C16.5281 81.2506 16.7693 81.4289 17.084 81.3065Z" fill="#E0E0E0"/>
<path d="M23.6357 64.782C26.233 63.2822 28.3385 64.4491 28.3382 67.3881C28.3379 70.3269 26.23 73.9008 23.6303 75.3702C21.0302 76.8399 18.9226 75.6718 18.9238 72.7632C18.925 69.8542 21.0384 66.2815 23.6357 64.782Z" fill="#27DEBF"/>
<path d="M15.8612 100.214L15.6306 100.081C15.2618 99.8682 14.9629 99.3503 14.9629 98.9247V84.933C14.9629 84.5071 15.2618 83.9894 15.6306 83.7765L61.169 57.4605C61.5378 57.2475 62.1357 57.2475 62.5045 57.4605L62.735 57.5935C63.1038 57.8065 63.4027 58.3241 63.4027 58.75V72.7417C63.4027 73.1676 63.1038 73.6853 62.735 73.8982L17.1966 100.214C16.8278 100.427 16.2299 100.427 15.8612 100.214Z" fill="#EBEBEB"/>
<path d="M63.3965 58.6427C63.3509 58.2964 63.0714 58.1707 62.7354 58.3629L17.1955 84.6817C17.0102 84.7865 16.8458 84.9721 16.7234 85.1783L15.1602 84.2761C15.2792 84.0662 15.4469 83.8846 15.6322 83.7761L61.1689 57.4607C61.5395 57.2475 62.1376 57.2475 62.5046 57.4607L62.7354 57.5935C63.0711 57.7894 63.3545 58.2405 63.3965 58.6427Z" fill="#FAFAFA"/>
<path d="M17.084 100.267C16.7167 100.424 16.1958 100.406 15.8634 100.214L15.6292 100.081C15.2619 99.8679 14.9648 99.3503 14.9648 98.9237V84.9333C14.9648 84.72 15.0384 84.4821 15.1608 84.2759L16.724 85.1781C16.6052 85.388 16.5281 85.6256 16.5281 85.8355V99.8293C16.5281 100.211 16.7693 100.389 17.084 100.267Z" fill="#E0E0E0"/>
<path d="M23.6357 83.7428C26.233 82.2434 28.3385 83.4099 28.3382 86.3489C28.3379 89.2877 26.23 92.8616 23.6303 94.331C21.0302 95.8007 18.9226 94.6326 18.9238 91.724C18.925 88.815 21.0384 85.2423 23.6357 83.7428Z" fill="#27DEBF"/>
<path d="M15.8612 49.5438L15.6306 49.4107C15.2618 49.1978 14.9629 48.6799 14.9629 48.2543V34.2626C14.9629 33.8367 15.2618 33.319 15.6306 33.1061L61.169 6.79008C61.5378 6.57713 62.1357 6.57713 62.5045 6.79008L62.735 6.92314C63.1038 7.13609 63.4027 7.65372 63.4027 8.07962V22.0713C63.4027 22.4972 63.1038 23.0149 62.735 23.2278L17.1966 49.5438C16.8278 49.7568 16.2299 49.7568 15.8612 49.5438Z" fill="#EBEBEB"/>
<path d="M63.3965 7.97231C63.3509 7.626 63.0714 7.50024 62.7354 7.69253L17.1955 34.0112C17.0102 34.1161 16.8458 34.3014 16.7234 34.5079L15.1602 33.6057C15.2792 33.3958 15.4469 33.2141 15.6322 33.1057L61.1689 6.79031C61.5395 6.57706 62.1376 6.57706 62.5046 6.79031L62.7354 6.92336C63.0711 7.119 63.3545 7.57011 63.3965 7.97231Z" fill="#FAFAFA"/>
<path d="M17.084 49.5965C16.7167 49.7539 16.1958 49.7366 15.8634 49.544L15.6292 49.4112C15.2619 49.198 14.9648 48.6803 14.9648 48.2538V34.2633C14.9648 34.0501 15.0384 33.8122 15.1608 33.606L16.724 34.5082C16.6052 34.7181 16.5281 34.9556 16.5281 35.1656V49.1594C16.5281 49.5406 16.7693 49.7189 17.084 49.5965Z" fill="#E0E0E0"/>
<path d="M23.6357 33.0719C26.233 31.5725 28.3385 32.739 28.3382 35.678C28.3379 38.6168 26.23 42.1907 23.6303 43.6601C21.0302 45.1298 18.9226 43.9617 18.9238 41.0531C18.925 38.1441 21.0384 34.5714 23.6357 33.0719Z" fill="#27DEBF"/>
<path d="M19.0623 67.308L18.8318 67.1749C18.463 66.962 18.1641 66.444 18.1641 66.0184V52.0267C18.1641 51.6008 18.463 51.0832 18.8318 50.8702L64.3702 24.5542C64.739 24.3413 65.3368 24.3413 65.7056 24.5542L65.9362 24.6873C66.305 24.9002 66.6039 25.4182 66.6039 25.8438V39.8355C66.6039 40.2614 66.305 40.779 65.9362 40.992L20.3977 67.308C20.029 67.5209 19.4311 67.5209 19.0623 67.308Z" fill="#37474F"/>
<path d="M66.5976 25.7365C66.5521 25.3902 66.2723 25.2644 65.9366 25.4567L20.3966 51.7754C20.2113 51.8802 20.047 52.0658 19.9246 52.2721L18.3613 51.3699C18.4801 51.16 18.6481 50.9783 18.8334 50.8698L64.37 24.5545C64.7406 24.3412 65.3388 24.3412 65.7057 24.5545L65.9366 24.6875C66.2723 24.8832 66.5557 25.3343 66.5976 25.7365Z" fill="#455A64"/>
<path d="M20.2849 67.3607C19.9176 67.518 19.3966 67.5004 19.0646 67.3081L18.8304 67.1754C18.4631 66.9621 18.166 66.4445 18.166 66.018V52.0275C18.166 51.8142 18.2395 51.5764 18.362 51.3701L19.9252 52.2723C19.8064 52.4822 19.7293 52.7198 19.7293 52.9297V66.9236C19.7286 67.3048 19.9702 67.4831 20.2849 67.3607Z" fill="#263238"/>
<path d="M26.8369 50.8367C29.4342 49.3369 31.5397 50.5038 31.5394 53.4428C31.5391 56.3816 29.4312 59.9555 26.8314 61.4249C24.2314 62.8946 22.1238 61.7265 22.125 58.8179C22.1265 55.9089 24.2396 52.3361 26.8369 50.8367Z" fill="#F5F5F5"/>
<path d="M26.9305 59.2902C26.7094 59.4178 26.4989 59.4287 26.3537 59.3188L24.288 57.7561C24.0118 57.5478 24.0465 56.9715 24.3654 56.4687C24.6838 55.9648 25.1668 55.7278 25.4414 55.9368L26.8813 57.0256L30.8797 48.432C31.1297 47.8952 31.6069 47.5358 31.9462 47.6276C32.2861 47.7193 32.359 48.2291 32.1096 48.7649L27.5454 58.5754C27.4078 58.871 27.1927 59.1274 26.9606 59.2723C26.9509 59.2784 26.9406 59.2844 26.9305 59.2902Z" fill="#27DEBF"/>
<path d="M66.595 46.516L65.2745 45.7536V45.7569C64.7 45.427 63.9983 45.7533 63.6268 45.9814L62.8029 45.506C61.8029 44.9021 60.4131 46.1652 60.102 46.4684L59.7457 46.2627L59.746 46.2633C58.6858 45.6238 56.7593 47.3344 56.7593 47.3344V40.9697L57.5962 40.5641L56.2644 39.794C56.2635 39.7934 56.2626 39.7928 56.2614 39.7922L56.2523 39.7868L56.252 39.7877C55.9461 39.6172 55.5274 39.6446 55.0648 39.9116C54.1289 40.452 53.3703 41.7662 53.3703 42.8467V57.6009C52.1525 56.6975 50.8572 56.1431 49.721 56.3451C48.6967 56.5274 47.7814 57.3998 47.5156 57.8682C46.9551 58.8561 47.8798 59.4761 49.0709 60.8386C50.2514 62.1889 51.2931 63.815 52.3685 64.8181C53.4441 65.8214 54.2236 66.0824 54.2236 66.0824V68.0056L55.5323 68.7611L64.1812 62.2566V60.3334C64.1812 60.3334 65.4169 55.4073 65.8115 53.3483C66.1916 51.3656 66.5409 48.2051 65.8881 46.5637L66.5947 46.5157L66.595 46.516Z" fill="#27DEBF"/>
<path opacity="0.4" d="M66.595 46.516L65.2745 45.7536V45.7569C64.7 45.427 63.9983 45.7533 63.6268 45.9814L62.8029 45.506C61.8029 44.9021 60.4131 46.1652 60.102 46.4684L59.7457 46.2627L59.746 46.2633C58.6858 45.6238 56.7593 47.3344 56.7593 47.3344V40.9697L57.5962 40.5641L56.2644 39.794C56.2635 39.7934 56.2626 39.7928 56.2614 39.7922L56.2523 39.7868L56.252 39.7877C55.9461 39.6172 55.5274 39.6446 55.0648 39.9116C54.1289 40.452 53.3703 41.7662 53.3703 42.8467V57.6009C52.1525 56.6975 50.8572 56.1431 49.721 56.3451C48.6967 56.5274 47.7814 57.3998 47.5156 57.8682C46.9551 58.8561 47.8798 59.4761 49.0709 60.8386C50.2514 62.1889 51.2931 63.815 52.3685 64.8181C53.4441 65.8214 54.2236 66.0824 54.2236 66.0824V68.0056L55.5323 68.7611L64.1812 62.2566V60.3334C64.1812 60.3334 65.4169 55.4073 65.8115 53.3483C66.1916 51.3656 66.5409 48.2051 65.8881 46.5637L66.5947 46.5157L66.595 46.516Z" fill="white"/>
<path d="M56.8393 63.4731L50.2965 59.6959L47.4309 58.0415C47.0664 58.9328 47.9504 59.5577 49.0704 60.8387C50.2509 62.189 51.2926 63.8151 52.3679 64.8182C53.4436 65.8216 54.2231 66.0825 54.2231 66.0825V68.0057L55.5318 68.7612L57.4426 67.3244C57.1953 65.6897 56.8393 63.4731 56.8393 63.4731Z" fill="#27DEBF"/>
<path d="M54.6798 43.6027L53.3711 42.8472V58.3231L54.6798 58.3569V43.6027Z" fill="#27DEBF"/>
<path d="M64.9417 47.5097L65.9554 46.7618C65.9335 46.6953 65.9129 46.627 65.8883 46.5647L66.2565 46.5395L65.4435 46.5024L64.0844 45.7539C63.9079 45.8232 63.7485 45.907 63.627 45.9817L64.0513 46.2287L64.9417 47.5097Z" fill="#27DEBF"/>
<path d="M61.3464 47.2879L62.2991 46.5631L60.9862 45.769C60.5697 46.0297 60.2355 46.3377 60.1016 46.4683L61.0129 46.9954L61.3464 47.2879Z" fill="#27DEBF"/>
<path d="M59.3608 47.2177L58.0625 46.4579L58.068 46.4458V48.0901L59.5814 47.5348L59.3608 47.2177Z" fill="#27DEBF"/>
<g opacity="0.15">
<path d="M56.8393 63.4731L50.2965 59.6959L47.4309 58.0415C47.0664 58.9328 47.9504 59.5577 49.0704 60.8387C50.2509 62.189 51.2926 63.8151 52.3679 64.8182C53.4436 65.8216 54.2231 66.0825 54.2231 66.0825V68.0057L55.5318 68.7612L57.4426 67.3244C57.1953 65.6897 56.8393 63.4731 56.8393 63.4731Z" fill="black"/>
<path d="M54.6798 43.6027L53.3711 42.8472V58.3231L54.6798 58.3569V43.6027Z" fill="black"/>
<path d="M64.9417 47.5097L65.9554 46.7618C65.9335 46.6953 65.9129 46.627 65.8883 46.5647L66.2565 46.5395L65.4435 46.5024L64.0844 45.7539C63.9079 45.8232 63.7485 45.907 63.627 45.9817L64.0513 46.2287L64.9417 47.5097Z" fill="black"/>
<path d="M61.3464 47.2879L62.2991 46.5631L60.9862 45.769C60.5697 46.0297 60.2355 46.3377 60.1016 46.4683L61.0129 46.9954L61.3464 47.2879Z" fill="black"/>
<path d="M59.3608 47.2177L58.0625 46.4579L58.068 46.4458V48.0901L59.5814 47.5348L59.3608 47.2177Z" fill="black"/>
</g>
<path d="M55.5323 68.7615V66.8383C55.5323 66.8383 54.7528 66.5771 53.6772 65.574C52.6015 64.5709 51.5601 62.9445 50.3797 61.5945C49.1885 60.232 48.2635 59.6123 48.8243 58.6241C49.0901 58.1557 50.0051 57.283 51.0297 57.101C52.1662 56.899 53.4612 57.4534 54.679 58.3568V43.6026C54.679 42.5218 55.4376 41.2079 56.3735 40.6675C57.3094 40.1271 58.068 40.5652 58.068 41.646V48.0903C58.068 48.0903 60.4031 46.0164 61.3467 47.2884C61.3467 47.2884 63.6408 44.8852 64.6767 46.915C64.6767 46.915 66.3611 45.5547 67.1206 47.1334C67.88 48.7122 67.5152 52.0461 67.1206 54.1048C66.726 56.1635 65.4902 61.0899 65.4902 61.0899V63.0131L55.5323 68.7615Z" fill="#27DEBF"/>
<path d="M58.0697 50.8573C58.0697 50.8573 58.2824 47.9171 59.3626 47.2178C59.3623 47.2178 59.3471 47.2223 59.324 47.229C58.6363 47.5878 58.0697 48.0902 58.0697 48.0902V48.0346C58.0579 48.0717 58.0697 48.0902 58.0697 48.0902V50.8573Z" fill="#455A64"/>
<path d="M61.3477 47.2877V49.9777C61.3477 49.9777 61.646 47.2118 62.266 46.5435C61.738 46.88 61.3501 47.2856 61.3477 47.2877Z" fill="#455A64"/>
<path d="M64.6777 46.9145V49.6142C64.6777 49.6142 64.8421 46.8945 65.4278 46.4932C65.0019 46.6536 64.6799 46.913 64.6777 46.9145Z" fill="#455A64"/>
<path d="M55.0545 38.0535C54.8442 38.1748 54.6738 38.1028 54.6738 37.8925V35.7579C54.6738 35.5477 54.8442 35.2788 55.0545 35.1576C55.2647 35.0361 55.4351 35.1084 55.4351 35.3183V37.453C55.4351 37.6635 55.2647 37.9323 55.0545 38.0535Z" fill="#EBEBEB"/>
<path d="M51.8653 41.4196C51.7168 41.6769 51.4756 41.8161 51.327 41.7304L50.0919 41.0171C49.9433 40.9315 49.9433 40.6532 50.0919 40.3956C50.2404 40.1383 50.4816 39.9992 50.6302 40.0848L51.8653 40.7978C52.0142 40.8838 52.0142 41.162 51.8653 41.4196Z" fill="#EBEBEB"/>
<path d="M50.5448 45.8339V45.8949C50.5448 46.1206 50.3616 46.4095 50.1359 46.5399L48.446 47.5156C48.2203 47.6459 48.0371 47.5684 48.0371 47.3427V47.2817C48.0371 47.056 48.2203 46.7671 48.446 46.6365L50.1359 45.6607C50.3619 45.5307 50.5448 45.6082 50.5448 45.8339Z" fill="#EBEBEB"/>
<path d="M59.5645 40.6877V40.6266C59.5645 40.4009 59.7476 40.112 59.9733 39.9814L61.6633 39.0057C61.889 38.8753 62.0721 38.9528 62.0721 39.1785V39.2396C62.0721 39.4653 61.889 39.7542 61.6633 39.8848L59.9733 40.8605C59.7476 40.9908 59.5645 40.9134 59.5645 40.6877Z" fill="#EBEBEB"/>
<path d="M58.2423 37.7374C58.0937 37.6514 58.0937 37.3732 58.2423 37.1159L59.4774 34.9767C59.626 34.7194 59.8669 34.5802 60.0157 34.6659C60.1643 34.7516 60.1643 35.0298 60.0157 35.2874L58.7806 37.4266C58.632 37.6842 58.3911 37.8234 58.2423 37.7374Z" fill="#EBEBEB"/>
<path d="M106.295 87.8038V87.4581C106.159 87.8637 105.527 89.6092 104.567 90.4841C103.805 91.1794 102.765 91.9829 102.5 92.7582C102.225 93.5647 103.948 93.8354 104.66 93.7093C105.488 93.5629 106.559 93.0932 107.141 92.3769C107.551 91.8736 107.812 91.2766 108.105 90.8808C108.397 90.485 109.072 90.0427 109.23 89.5846C109.317 89.3328 109.214 88.7814 109.092 88.3157C108.98 87.8883 108.858 87.4184 108.712 87.4585C108.712 87.5107 108.712 87.7218 108.712 87.7218C108.537 87.9162 108.051 88.1094 107.504 88.1304C107.15 88.1438 106.293 88.0736 106.295 87.8038Z" fill="#263238"/>
<path d="M103.879 91.096C104.115 90.8849 104.353 90.6786 104.569 90.4818C105.239 89.8706 105.75 88.8341 106.043 88.1266C106.21 87.7229 106.297 87.2918 106.297 86.8547V85.4771H108.714V87.7195V87.7198V87.7797L108.702 87.7858C108.585 88.2882 107.476 89.6242 106.846 90.4955C106.424 91.0796 105.621 91.8227 104.662 91.9506C103.752 92.0721 103.288 91.7853 103.879 91.096Z" fill="#FFA8A7"/>
<path d="M96.8676 85.4213V85.0756C96.7312 85.4812 96.0987 87.2267 95.1397 88.1016C94.3772 88.7969 93.3371 89.6004 93.0725 90.3757C92.7972 91.1822 94.52 91.4529 95.2323 91.3268C96.0601 91.1804 97.131 90.7104 97.7139 89.9944C98.1237 89.4911 98.3846 88.8941 98.6772 88.498C98.9697 88.1022 99.6444 87.6599 99.8027 87.2018C99.8896 86.9499 99.7863 86.3986 99.6642 85.9329C99.5521 85.5055 99.4306 85.0355 99.2847 85.0756C99.2844 85.1276 99.2847 85.339 99.2847 85.339C99.1092 85.5334 98.6237 85.7266 98.0763 85.7476C97.7227 85.7613 96.8648 85.6911 96.8676 85.4213Z" fill="#263238"/>
<path d="M94.4488 88.7132C94.6854 88.5021 94.9233 88.2958 95.139 88.099C95.8091 87.4878 96.3198 86.4513 96.6132 85.7438C96.7806 85.3401 96.8669 84.909 96.8669 84.4719V83.0942H99.284V85.3367V85.337V85.3969L99.2719 85.403C99.1555 85.9054 98.0464 87.2414 97.4161 88.1126C96.9936 88.6968 96.191 89.4399 95.2316 89.5677C94.3227 89.689 93.8583 89.4025 94.4488 88.7132Z" fill="#FFA8A7"/>
<path d="M108.233 50.2373C110.107 54.3304 108.165 68.7486 108.165 68.7486C108.221 69.4127 108.981 70.7198 109.264 73.6431C109.598 77.0974 108.739 85.7702 108.739 85.7702C108.739 85.7702 107.62 86.502 106.296 85.8674C106.296 85.8674 103.992 72.8053 103.559 69.3711C103.181 66.374 102.456 59.7838 102.456 59.7838L100.393 69.355C100.393 69.355 100.922 71.0339 101.046 72.3131C101.242 74.3333 99.2847 83.7385 99.2847 83.7385C99.2847 83.7385 98.4505 84.0444 96.8675 83.8115C96.8675 83.8115 96.1752 71.3301 95.9927 68.8969C95.6861 64.8101 96.7715 52.0584 97.5213 49.6392L108.233 50.2373Z" fill="#37474F"/>
<path d="M102.455 59.7832L101.847 55.9818C101.847 55.9818 99.2729 55.4486 98.1055 54.3511C98.1055 54.3511 99.3303 55.8745 101.149 56.3736L101.833 59.3005L100.638 68.1626L102.455 59.7832Z" fill="#263238"/>
<path d="M100.928 35.9056C100.928 35.9056 99.113 35.6392 97.8526 37.2835C96.8848 38.5464 93.1827 43.3673 93.1827 43.3673C93.1827 43.3673 87.7256 40.6363 87.4574 40.3128C87.1888 39.989 87.3398 39.3344 87.4136 38.9741C87.4877 38.6138 87.6095 37.8136 87.6897 37.5885C87.8301 37.1961 87.2493 37.3021 86.9072 37.6687C86.557 38.0445 86.4133 38.7526 86.2422 38.876C86.0718 38.9993 84.7735 37.5059 84.1431 36.7854C83.5131 36.0648 83.2175 35.5605 82.7953 35.8579C82.4909 36.0721 82.6862 36.4998 83.1379 37.1174C83.5897 37.7347 83.6556 37.8012 83.7215 37.9352C83.7756 38.0457 83.6088 38.1341 83.5429 38.1931C83.4207 38.3024 83.2032 38.4816 83.1881 38.6527C83.1798 38.7459 83.1969 38.8422 83.171 38.9325C83.1121 39.1378 82.8578 39.2344 82.7862 39.4355C82.7342 39.581 82.7916 39.7442 82.7622 39.896C82.7433 39.9939 82.6893 40.0823 82.6719 40.1804C82.6376 40.373 82.7482 40.561 82.8739 40.7105C83.3166 41.2369 83.9217 41.4386 84.5019 41.7597C84.9843 42.0267 85.4825 42.1437 86.0378 42.3904C86.5934 42.6373 93.0402 47.1062 94.06 46.543C95.0797 45.9801 100.348 39.852 100.348 39.852C101.868 37.3346 100.928 35.9056 100.928 35.9056Z" fill="#FFA8A7"/>
<path d="M104.929 36.0175C107.332 36.1827 107.5 37.3431 108.101 38.612C108.559 39.578 108.564 40.6984 108.215 41.7087L106.541 46.5522C106.541 46.5522 107.325 48.4468 108.235 50.2373C104.033 52.5825 98.7868 51.3497 97.5234 49.6386C97.47 49.2755 97.7947 46.4379 97.9946 44.5843C97.2546 42.7279 97.0593 41.5514 97.3715 40.3244C97.9512 38.0467 100.201 35.8276 101.196 35.9084L104.929 36.0175Z" fill="#F5F5F5"/>
<path d="M102.62 34.0261H103.552C106.264 34.0261 108.463 31.8277 108.463 29.1155C108.463 26.3888 106.252 24.1782 103.525 24.1782H102.646C99.9196 24.1782 97.709 26.3888 97.709 29.1155C97.709 31.8277 99.9077 34.0261 102.62 34.0261Z" fill="#263238"/>
<path d="M111.091 36.6144C109.488 36.6144 108.189 35.3155 108.189 33.7131V27.5005C109.792 27.5005 111.091 28.7994 111.091 30.4019V36.6144Z" fill="#263238"/>
<path d="M108.721 26.3984L107.994 27.5674C108.316 27.7831 108.741 27.6962 108.942 27.3733C109.142 27.0506 109.044 26.6141 108.721 26.3984Z" fill="#263238"/>
<path d="M99.4748 26.3525C98.9067 26.6882 98.205 28.1166 98.2743 31.1112C98.3329 33.6493 99.1555 34.276 99.5687 34.4567C99.9818 34.6375 100.778 34.5275 101.553 34.3984V35.9215C101.553 35.9215 100.483 37.1649 100.55 37.8633C100.617 38.5617 102.096 38.7266 103.097 38.0443C104.099 37.3621 104.741 36.3234 104.741 36.3234V32.6417C104.741 32.6417 105.264 33.3397 106.119 32.772C106.974 32.2042 107.006 30.7983 106.509 30.2938C106.012 29.7889 104.94 29.949 104.741 30.6461C104.741 30.6461 103.505 30.6911 101.861 29.7877C100.216 28.8842 99.5842 27.3368 99.4748 26.3525Z" fill="#FFA8A7"/>
<path d="M101.391 30.4735C101.382 30.6564 101.517 30.8113 101.693 30.8198C101.87 30.828 102.02 30.6867 102.029 30.5039C102.038 30.321 101.903 30.1661 101.726 30.1576C101.551 30.1494 101.4 30.2906 101.391 30.4735Z" fill="#263238"/>
<path d="M101.022 32.6255L100.281 32.8618C100.343 33.0739 100.559 33.1929 100.763 33.1276C100.968 33.0623 101.084 32.8375 101.022 32.6255Z" fill="#F28F8F"/>
<path d="M98.7752 29.4938L99.421 29.0463C99.3031 28.8619 99.0631 28.8127 98.8848 28.9363C98.7062 29.06 98.6573 29.3094 98.7752 29.4938Z" fill="#263238"/>
<path d="M98.9243 30.2431C98.9151 30.4259 99.0503 30.5809 99.2265 30.5894C99.4024 30.5979 99.5528 30.4563 99.5619 30.2734C99.571 30.0906 99.4358 29.9356 99.2599 29.9271C99.0837 29.9186 98.9334 30.0602 98.9243 30.2431Z" fill="#263238"/>
<path d="M100.482 30.0605L100.431 31.9819L99.4199 31.6687L100.482 30.0605Z" fill="#F28F8F"/>
<path d="M101.551 34.3989C102.367 34.292 104.046 33.8096 104.308 33.1455C104.308 33.1455 104.221 33.5626 103.719 33.9927C103.218 34.4226 101.551 34.9071 101.551 34.9071V34.3989Z" fill="#F28F8F"/>
<path opacity="0.1" d="M103.853 50.6911C105.233 50.3642 106.108 48.9683 105.744 47.5977C105.73 47.5457 105.716 47.5011 105.701 47.4655C105.431 46.8161 104.85 46.9014 104.85 46.9014C105.395 46.5402 105.773 45.977 105.9 45.3361L106.411 42.3007C106.411 42.3007 106.525 41.6297 106.282 40.8283L107.97 38.875C107.97 38.875 108.092 38.9595 108.282 39.0919C108.545 39.9379 108.506 40.8611 108.213 41.7083L106.539 46.5518C106.539 46.5518 107.323 48.4464 108.233 50.2369C105.137 51.9651 101.475 51.7494 99.2559 50.8317C101.009 51.1033 102.632 50.9799 103.853 50.6911Z" fill="black"/>
<path d="M112.534 48.0736C110.353 39.1571 108.74 36.1834 106.09 36.2181C105.317 37.1428 105.53 39.9357 106.753 41.6308C106.753 41.6308 109.479 47.3816 109.914 49.4257C110.296 51.2217 110.728 53.4812 110.701 55.0253C110.696 55.2987 110.583 55.5587 110.398 55.7598C109.901 56.2993 109.898 56.7337 109.576 57.3303C109.324 57.7976 109.047 57.9722 109.126 58.0773C109.227 58.2125 109.547 58.3887 109.945 58.1378C110.144 58.0117 110.274 57.8635 110.565 57.543C110.565 57.543 110.486 58.2663 110.073 59.1971C109.514 60.4586 109.65 61.1024 111.353 60.6531C112.42 60.3715 113.09 59.4826 113.249 56.9178C113.296 56.179 113.365 55.0134 113.278 54.079C113.049 51.6467 112.885 49.509 112.534 48.0736Z" fill="#FFA8A7"/>
<path d="M90.8937 73.5639C91.1273 64.8861 90.4316 62.8065 88.1214 61.2168L87.2265 66.2452C87.2265 66.2452 88.2788 72.1707 88.1658 74.1441C88.0664 75.8777 87.8978 78.0467 87.4877 79.4483C87.4151 79.6965 87.2474 79.9055 87.0281 80.0428C86.4397 80.4107 86.2024 80.7886 85.7595 81.2525C85.4126 81.6158 85.117 81.706 85.1629 81.8218C85.2215 81.9703 85.4691 82.2106 85.8944 82.0809C86.1083 82.0156 86.3844 81.8482 86.7292 81.6279C86.7292 81.6279 86.4828 82.3509 85.8744 83.097C85.0496 84.1083 85.0132 84.7295 86.6788 84.7441C87.7222 84.7535 88.5552 84.1095 89.3405 81.8099C89.5668 81.1474 89.921 80.1015 90.0741 79.2275C90.473 76.9516 90.856 74.9606 90.8937 73.5639Z" fill="#B16668"/>
<path d="M86.1777 60.5578C87.2804 60.398 88.7796 60.6292 89.7477 62.3607C90.7159 64.0926 90.9534 67.0714 91.0637 70.0336C91.0637 70.0336 89.1402 71.6421 86.8333 70.851L86.1777 60.5578Z" fill="#27DEBF"/>
<path opacity="0.1" d="M86.1777 60.5578C87.2804 60.398 88.7796 60.6292 89.7477 62.3607C90.7159 64.0926 90.9534 67.0714 91.0637 70.0336C91.0637 70.0336 89.1402 71.6421 86.8333 70.851L86.1777 60.5578Z" fill="black"/>
<path d="M89.4216 108.286C89.5966 108.352 89.6409 108.686 89.6674 109.349C89.6874 109.851 89.7949 110.726 89.2071 110.901C88.6193 111.076 87.7584 110.987 87.3817 110.514C86.9115 109.924 86.5937 109.404 85.9227 108.683C85.3406 108.059 84.7109 107.475 84.4761 106.599C84.2638 105.807 84.4406 105.463 84.981 105.233C85.724 104.917 86.8911 105.951 87.4732 106.114C87.9744 106.255 89.2466 108.22 89.4216 108.286Z" fill="#263238"/>
<path d="M89.4217 107.672V108.486C89.4217 108.486 88.5751 109.136 87.3643 108.542C87.3287 108.463 87.1504 107.377 87.1504 107.377L89.4217 107.672Z" fill="#B16668"/>
<path d="M82.8277 112.979C82.8277 112.979 83.0613 113.687 83.1874 114.306C83.2873 114.798 83.4307 115.621 83.2584 115.991C83.0859 116.362 82.4136 116.601 81.3711 116.593C80.6958 116.587 79.6438 117.046 78.9232 117.448C78.1793 117.863 76.6315 118.029 75.8444 117.936C74.917 117.827 73.9562 117.289 73.8061 116.905C73.656 116.521 73.8553 116.122 76.0413 115.191C76.0613 115.182 79.08 114.201 80.1377 113.033L82.8277 112.979Z" fill="#263238"/>
<path d="M82.8282 112.098C82.8282 112.098 82.8251 112.702 82.8282 113.048C82.8312 113.393 82.4232 113.908 81.3676 113.87C80.6261 113.844 80.1084 113.644 80.1379 113.033V112.153L82.8282 112.098Z" fill="#B16668"/>
<path d="M89.9528 96.8662C89.58 94.2057 88.9913 92.6255 88.9913 92.6255C88.9913 92.6255 89.282 88.9668 89.4215 85.4976C89.5721 81.7505 89.4136 77.0405 89.4846 76.1057C89.4846 76.1057 77.3937 73.6594 77.178 77.991C76.9623 82.3225 77.6552 93.3485 77.7983 95.2513C77.9411 97.1542 78.2701 98.8371 78.6632 101.921C79.0511 104.965 80.1386 112.153 80.1386 112.153C81.5199 112.9 82.8289 112.098 82.8289 112.098C82.8289 112.098 83.6798 103.437 83.5904 101.242C83.4814 98.5604 82.7578 96.4491 82.7578 96.4491C82.7578 96.4491 82.9871 92.8776 83.1895 89.7709C83.3918 86.6641 83.6062 85.172 83.6533 83.8208L83.9137 83.692C83.9137 83.692 84.1789 89.0515 84.3216 90.9544C84.4647 92.8573 84.7673 94.6818 85.3177 98.2162C85.7953 101.282 87.2176 107.77 87.2176 107.77C88.5988 108.516 89.423 107.672 89.423 107.672C89.423 107.672 90.3258 99.5267 89.9528 96.8662Z" fill="#37474F"/>
<path d="M83.6523 83.8207C83.6523 83.8207 86.5853 82.3753 88.0535 81.0718C88.0535 81.0718 86.6904 82.9926 84.9012 83.8441C84.9012 83.8441 84.2648 90.502 84.2681 90.3698L83.9005 83.8109L83.6523 83.8207Z" fill="#263238"/>
<path d="M81.043 59.1858L81.7584 63.1237L85.3156 62.8639L84.5686 58.3999L81.043 59.1858Z" fill="#B16668"/>
<path d="M89.0704 62.5764C88.7183 61.5056 87.3602 60.3403 86.0007 60.593C83.5037 61.0569 81.5228 61.5527 80.0482 62.0794C78.8039 62.5239 77.6702 63.5995 77.567 67.6929C77.567 67.6929 77.1502 77.2358 77.1426 79.0813C80.2675 80.318 83.5177 80.2797 85.3139 79.8872C89.0537 79.07 89.5045 77.5189 89.5045 77.5189C89.5045 77.5189 89.5528 70.6566 89.4407 67.6929C89.3456 65.1746 89.3122 63.3116 89.0704 62.5764Z" fill="#27DEBF"/>
<path d="M78.2998 54.3955C78.2998 54.3955 77.3979 55.8336 77.5072 55.9703C77.6169 56.107 78.3068 56.2173 78.3068 56.2173L78.2998 54.3955Z" fill="#B16668"/>
<path d="M80.8046 50.4166C78.9236 50.858 78.3969 51.7009 78.2863 54.7071C78.1709 57.8482 78.5132 58.8273 78.9349 59.2404C79.2195 59.519 80.7667 59.536 81.5419 59.3033C82.5119 59.0123 84.7003 58.1808 85.6979 56.5796C86.8711 54.6956 87.1339 52.1724 85.8094 51.1696C83.9457 49.7583 81.5702 50.237 80.8046 50.4166Z" fill="#B16668"/>
<path d="M81.0845 59.4008C81.7227 58.8875 81.6656 58.5566 81.6656 58.5566C81.2078 58.9841 79.5136 59.3504 78.9355 59.2407C79.1713 59.4716 80.2725 59.5223 81.0845 59.4008Z" fill="#9A4A4D"/>
<path d="M78.3058 51.1994C78.8577 52.1445 80.0558 52.5962 80.0558 52.5962C80.4164 53.0072 80.2178 54.6096 80.8527 54.8639C80.8527 54.8639 81.1251 53.6977 82.1057 53.8213C83.0927 53.9459 83.2537 55.1968 82.6513 55.9727C82.0483 56.7485 81.4639 56.4693 81.4639 56.4693C81.4639 56.4693 81.5316 58.1261 82.2868 59.0478C82.2868 59.0478 83.1289 59.2996 84.6584 58.9372C85.5986 58.7146 86.9079 57.5037 87.4413 56.2406C88.5698 53.5686 88.5993 51.1866 86.8945 50.5113C86.6843 49.2965 85.7125 48.7716 84.6125 48.545C82.2455 48.0571 80.7193 49.5344 78.8972 49.4062C77.8541 49.3327 77.6593 50.0921 78.3058 51.1994Z" fill="#263238"/>
<path d="M86.9346 50.9186L88.0504 50.2266C87.8593 49.9185 87.4544 49.8235 87.1464 50.0148C86.8383 50.2056 86.7436 50.6102 86.9346 50.9186Z" fill="#263238"/>
<path d="M80.1456 62.0625C80.1456 62.0625 78.378 62.3891 77.4539 63.7874C76.5298 65.1856 72.5345 70.1962 72.5345 70.1962C72.5345 70.1962 66.7858 67.3194 66.5033 66.9782C66.2204 66.6371 66.3796 65.9475 66.4574 65.5681C66.5355 65.1887 66.664 64.3454 66.7484 64.1084C66.8961 63.695 66.2845 63.8068 65.924 64.1932C65.5549 64.589 65.4036 65.3351 65.2234 65.4651C65.0439 65.5948 63.676 64.0219 63.0119 63.2627C62.3482 62.5036 62.0368 61.9723 61.5921 62.2858C61.2716 62.5115 61.4773 62.962 61.9533 63.6127C62.4293 64.2631 62.4986 64.3329 62.5678 64.4742C62.6249 64.5905 62.4493 64.6835 62.3795 64.7461C62.2507 64.8615 62.0219 65.0502 62.0058 65.2303C61.997 65.3287 62.0149 65.4302 61.9879 65.525C61.9259 65.7413 61.658 65.843 61.5824 66.0548C61.5277 66.2082 61.5878 66.3801 61.5571 66.5399C61.5374 66.6429 61.4806 66.7361 61.4621 66.8394C61.4259 67.042 61.5423 67.2404 61.675 67.3981C62.1413 67.9528 62.7789 68.1651 63.3901 68.5032C63.8984 68.7845 64.423 68.9075 65.0084 69.1676C65.5934 69.4276 72.485 74.5207 73.5594 73.9278C74.6339 73.3348 80.1465 66.8941 80.1465 66.8941C81.7465 64.2418 80.1456 62.0625 80.1456 62.0625Z" fill="#B16668"/>
<path d="M80.7618 61.855C80.0015 61.9425 78.9364 61.8015 77.447 63.4009C75.9576 65.0003 74.0957 67.7136 74.0957 67.7136C74.0957 67.7136 74.6127 70.307 77.4288 70.8514C77.4288 70.8514 80.0364 68.1796 80.7618 66.7087C81.4869 65.2375 81.657 62.8477 80.7618 61.855Z" fill="#27DEBF"/>
<path opacity="0.1" d="M80.7618 61.855C80.0015 61.9425 78.9364 61.8015 77.447 63.4009C75.9576 65.0003 74.0957 67.7136 74.0957 67.7136C74.0957 67.7136 74.6127 70.307 77.4288 70.8514C77.4288 70.8514 80.0364 68.1796 80.7618 66.7087C81.4869 65.2375 81.657 62.8477 80.7618 61.855Z" fill="black"/>
</svg>
