<svg width="140" height="122" viewBox="0 0 140 122" fill="none" xmlns="http://www.w3.org/2000/svg">
<path d="M15.658 44.6396C15.53 44.6396 15.4112 44.5576 15.3704 44.4292C15.2673 44.1045 15.1688 43.7818 15.0753 43.4609C15.0286 43.301 15.1205 43.1335 15.2805 43.087C15.4408 43.0401 15.6082 43.1324 15.6547 43.2921C15.747 43.6084 15.844 43.9266 15.9458 44.2466C15.9962 44.4053 15.9083 44.5748 15.7495 44.6253C15.7191 44.635 15.6882 44.6396 15.658 44.6396ZM14.9943 42.3206C14.8593 42.3206 14.7366 42.2297 14.7019 42.0931C14.618 41.7625 14.5393 41.4342 14.4656 41.1079C14.4289 40.9455 14.5311 40.7841 14.6936 40.7474C14.8567 40.711 15.0179 40.8129 15.0545 40.9752C15.1271 41.2964 15.2045 41.6196 15.2871 41.9449C15.328 42.1063 15.2303 42.2703 15.0687 42.3113C15.0438 42.3176 15.0188 42.3206 14.9943 42.3206ZM14.4769 39.9648C14.3341 39.9648 14.2073 39.8631 14.1805 39.7178C14.1189 39.3847 14.062 39.0483 14.0112 38.718C13.9858 38.5534 14.0988 38.3994 14.2636 38.3741C14.4283 38.3478 14.5826 38.4617 14.6078 38.6263C14.6578 38.9507 14.7138 39.2812 14.7742 39.6085C14.8045 39.7722 14.6961 39.9295 14.5321 39.9597C14.5135 39.9631 14.495 39.9648 14.4769 39.9648ZM14.1254 37.5787C13.9735 37.5787 13.8427 37.4643 13.8258 37.3099C13.7891 36.974 13.7576 36.6339 13.7321 36.2992C13.7194 36.1331 13.844 35.9882 14.0102 35.9756C14.1773 35.9625 14.3215 36.0874 14.3341 36.2535C14.359 36.5817 14.3899 36.9151 14.4259 37.2444C14.444 37.4099 14.3243 37.5588 14.1586 37.5769C14.1474 37.5781 14.1365 37.5787 14.1254 37.5787ZM13.9603 35.1729C13.7974 35.1729 13.6632 35.0432 13.6588 34.8795C13.6519 34.625 13.6484 34.372 13.6484 34.1206C13.6484 34.0348 13.6488 33.9491 13.6496 33.8636C13.6512 33.6981 13.786 33.5648 13.9515 33.5648C13.9524 33.5648 13.9533 33.5648 13.9543 33.5648C14.121 33.5665 14.2549 33.7027 14.2533 33.8693C14.2525 33.9528 14.2521 34.0367 14.2521 34.1206C14.2521 34.3667 14.2555 34.6141 14.2622 34.8632C14.2666 35.0297 14.1353 35.1682 13.9686 35.1727C13.9659 35.1729 13.963 35.1729 13.9603 35.1729ZM14.002 32.7633C13.9956 32.7633 13.9893 32.7631 13.9829 32.7627C13.8166 32.7523 13.6901 32.6091 13.7005 32.4429C13.7217 32.1054 13.7498 31.7647 13.7841 31.4303C13.801 31.2646 13.9497 31.1427 14.1151 31.161C14.281 31.178 14.4016 31.326 14.3846 31.4917C14.3511 31.8182 14.3236 32.151 14.303 32.4806C14.293 32.6404 14.1601 32.7633 14.002 32.7633ZM14.2685 30.3692C14.2525 30.3692 14.2364 30.368 14.2201 30.3654C14.0555 30.3389 13.9436 30.1841 13.9701 30.0197C14.0243 29.6845 14.0859 29.3479 14.1535 29.0194C14.1871 28.8563 14.3472 28.7518 14.5098 28.7847C14.6731 28.8181 14.7784 28.9776 14.7447 29.1407C14.6789 29.4609 14.6188 29.7889 14.5661 30.1157C14.5422 30.2638 14.414 30.3692 14.2685 30.3692ZM14.7738 28.0143C14.7478 28.0143 14.7214 28.0109 14.695 28.0038C14.5341 27.9604 14.4388 27.7949 14.4823 27.6341C14.5708 27.3062 14.6674 26.9778 14.7693 26.6578C14.8199 26.499 14.9895 26.4111 15.1485 26.462C15.3074 26.5125 15.3951 26.6822 15.3445 26.8408C15.2453 27.1521 15.1512 27.4718 15.0651 27.7911C15.0288 27.9256 14.9068 28.0143 14.7738 28.0143ZM15.5253 25.726C15.4889 25.726 15.4519 25.7193 15.4159 25.7054C15.2605 25.6449 15.1837 25.4701 15.2441 25.3149C15.3663 25.0018 15.4978 24.6856 15.6353 24.3751C15.7026 24.2229 15.8809 24.1537 16.0334 24.2214C16.1858 24.2887 16.2548 24.4668 16.1874 24.6191C16.0536 24.9213 15.9255 25.229 15.8068 25.5337C15.7603 25.653 15.6462 25.726 15.5253 25.726ZM16.5224 23.5307C16.4754 23.5307 16.4276 23.5196 16.3831 23.4964C16.2352 23.4194 16.178 23.2373 16.255 23.0896C16.4113 22.7902 16.5767 22.4902 16.7464 22.1982C16.8301 22.0541 17.0147 22.0051 17.159 22.0887C17.3031 22.1724 17.3522 22.3569 17.2685 22.501C17.1032 22.7851 16.9424 23.0771 16.7903 23.3684C16.7364 23.4716 16.6313 23.5307 16.5224 23.5307ZM17.7503 21.4598C17.6928 21.4598 17.6346 21.4434 17.5831 21.409C17.4445 21.3166 17.407 21.1294 17.4996 20.9909C17.6871 20.71 17.8837 20.4294 18.0834 20.157C18.1819 20.0226 18.3708 19.9935 18.5053 20.0921C18.6397 20.1905 18.6689 20.3792 18.5704 20.5136C18.3757 20.7788 18.1844 21.052 18.0016 21.3256C17.9435 21.4127 17.8478 21.4598 17.7503 21.4598ZM19.192 19.5284C19.1242 19.5284 19.0559 19.5057 18.9995 19.459C18.8712 19.3527 18.8534 19.1627 18.9598 19.0344C19.1744 18.7759 19.3984 18.517 19.6258 18.2652C19.7373 18.1417 19.9282 18.1319 20.0521 18.2434C20.1758 18.3548 20.1856 18.5456 20.074 18.6692C19.8523 18.9147 19.6338 19.1671 19.4245 19.4193C19.3649 19.4912 19.2787 19.5284 19.192 19.5284ZM98.5495 19.3117C98.5021 19.3117 98.454 19.3005 98.4092 19.277L98.271 19.2042C98.1236 19.1265 98.0672 18.944 98.1451 18.7968C98.2229 18.6494 98.4054 18.5934 98.5528 18.6709L98.6901 18.7432C98.8375 18.8207 98.8943 19.0029 98.8169 19.1504C98.7629 19.253 98.658 19.3117 98.5495 19.3117ZM97.1616 18.5917C97.1154 18.5917 97.0684 18.5809 97.0244 18.5586C96.7271 18.4068 96.4292 18.2565 96.1311 18.108C95.9819 18.0337 95.9214 17.8525 95.9958 17.7035C96.0701 17.5544 96.2519 17.494 96.4007 17.5683C96.7003 17.7178 96.9998 17.8688 97.2991 18.0214C97.4475 18.0972 97.5064 18.2789 97.4306 18.4272C97.3771 18.5315 97.2713 18.5917 97.1616 18.5917ZM20.8216 17.7517C20.7439 17.7517 20.6662 17.722 20.6072 17.6624C20.4899 17.5441 20.4908 17.3532 20.6091 17.236C20.8476 16.9999 21.0953 16.7641 21.3454 16.5349C21.4682 16.4221 21.6591 16.4305 21.7719 16.5533C21.8845 16.676 21.8763 16.8667 21.7534 16.9793C21.5091 17.2033 21.2669 17.4338 21.034 17.6644C20.9752 17.7227 20.8984 17.7517 20.8216 17.7517ZM95.0016 17.5194C94.9575 17.5194 94.9127 17.5096 94.8703 17.4892C94.5688 17.3436 94.267 17.1996 93.965 17.0571C93.8142 16.9861 93.7498 16.8063 93.8209 16.6557C93.8923 16.5051 94.0721 16.4409 94.2228 16.5118C94.5264 16.655 94.8298 16.7998 95.1332 16.9462C95.2831 17.0188 95.346 17.1991 95.2735 17.349C95.2215 17.4567 95.1138 17.5194 95.0016 17.5194ZM92.8164 16.4935C92.7746 16.4935 92.732 16.4846 92.6913 16.4662C92.3865 16.3272 92.0815 16.1897 91.7765 16.0539C91.6242 15.9861 91.5559 15.8079 91.6236 15.6557C91.6916 15.5036 91.8702 15.4353 92.0221 15.5031C92.3287 15.6396 92.6355 15.7777 92.942 15.9175C93.0935 15.9866 93.1605 16.1655 93.0911 16.317C93.0406 16.4279 92.931 16.4935 92.8164 16.4935ZM22.6117 16.1357C22.5247 16.1357 22.4383 16.0984 22.3787 16.0261C22.2726 15.8976 22.2908 15.7076 22.4192 15.6016C22.6779 15.3884 22.9454 15.1756 23.2145 14.9692C23.3465 14.8679 23.5361 14.8926 23.6377 15.0249C23.7392 15.1569 23.7143 15.3463 23.582 15.4477C23.3186 15.6497 23.0566 15.858 22.8036 16.0666C22.7474 16.1131 22.6793 16.1357 22.6117 16.1357ZM90.6087 15.5155C90.569 15.5155 90.5285 15.5076 90.4896 15.4909C90.1819 15.3587 89.8741 15.228 89.5662 15.0989C89.4125 15.0345 89.34 14.8578 89.4047 14.7042C89.469 14.5507 89.646 14.4785 89.7997 14.5428C90.1092 14.6725 90.4189 14.8038 90.7282 14.9369C90.8813 15.0027 90.952 15.1801 90.8861 15.333C90.837 15.4472 90.7256 15.5155 90.6087 15.5155ZM24.5358 14.681C24.4402 14.681 24.3462 14.6359 24.2876 14.5514C24.1924 14.4148 24.2263 14.2267 24.3633 14.1318C24.6386 13.9408 24.9224 13.7507 25.2068 13.5668C25.3467 13.4763 25.5335 13.5163 25.6242 13.6561C25.7148 13.7959 25.6748 13.9826 25.5347 14.0731C25.2559 14.2534 24.9775 14.4398 24.7076 14.6271C24.6551 14.6635 24.5951 14.681 24.5358 14.681ZM88.3805 14.5865C88.3427 14.5865 88.3044 14.5795 88.2675 14.5645C87.9566 14.4391 87.646 14.3152 87.3353 14.193C87.1802 14.1321 87.104 13.957 87.1651 13.8021C87.2262 13.6469 87.4017 13.5708 87.5565 13.632C87.8688 13.7547 88.181 13.8792 88.4934 14.0054C88.6481 14.0677 88.7228 14.2434 88.6603 14.3978C88.6129 14.5153 88.4997 14.5865 88.3805 14.5865ZM86.132 13.7072C86.0965 13.7072 86.0603 13.701 86.0252 13.6876C85.7119 13.569 85.3985 13.4522 85.0852 13.3371C84.9288 13.2797 84.8486 13.1063 84.906 12.9501C84.9636 12.7937 85.1366 12.7132 85.2936 12.7712C85.6087 12.8869 85.9237 13.0045 86.2389 13.1237C86.3948 13.1827 86.4733 13.3567 86.4142 13.5125C86.3686 13.633 86.2538 13.7072 86.132 13.7072ZM26.5696 13.3831C26.4661 13.3831 26.3654 13.33 26.309 13.2343C26.2247 13.0907 26.2727 12.906 26.4164 12.8216C26.7043 12.6527 27.0012 12.4843 27.2991 12.3212C27.4453 12.2412 27.6286 12.2946 27.7088 12.4406C27.7889 12.5867 27.7354 12.77 27.5893 12.85C27.2967 13.0102 27.005 13.1756 26.7222 13.3416C26.6742 13.3698 26.6215 13.3831 26.5696 13.3831ZM83.8642 12.8785C83.8308 12.8785 83.797 12.8729 83.7637 12.8612C83.4476 12.7498 83.1318 12.6401 82.816 12.532C82.6584 12.478 82.5743 12.3066 82.6283 12.149C82.6822 11.9915 82.8536 11.9072 83.0117 11.9615C83.3291 12.0702 83.6468 12.1806 83.9646 12.2925C84.1218 12.3479 84.2044 12.5201 84.1489 12.6772C84.1051 12.8011 83.9885 12.8785 83.8642 12.8785ZM28.6923 12.2357C28.5814 12.2357 28.4747 12.1743 28.4219 12.0684C28.3476 11.9194 28.4083 11.7385 28.5576 11.6641C28.8566 11.5153 29.1641 11.3675 29.4712 11.2249C29.6226 11.1545 29.8019 11.2204 29.8722 11.3712C29.9424 11.5223 29.8768 11.7016 29.7257 11.7718C29.4234 11.9122 29.1209 12.0576 28.8267 12.204C28.7835 12.2255 28.7375 12.2357 28.6923 12.2357ZM81.5784 12.1013C81.5473 12.1013 81.5157 12.0964 81.4844 12.0862C81.1659 11.982 80.8476 11.8796 80.5294 11.7789C80.3705 11.7285 80.2826 11.5591 80.3329 11.4003C80.3831 11.2417 80.5523 11.1537 80.7118 11.2039C81.0319 11.3052 81.3518 11.4083 81.6723 11.5132C81.8307 11.565 81.9172 11.7353 81.8653 11.8935C81.8236 12.0206 81.7053 12.1013 81.5784 12.1013ZM79.2755 11.3768C79.2466 11.3768 79.2172 11.3726 79.1881 11.3638C78.8672 11.2671 78.5465 11.1719 78.2262 11.0785C78.066 11.0319 77.9743 10.8644 78.0209 10.7046C78.0676 10.5446 78.2364 10.4528 78.3952 10.4996C78.7174 10.5935 79.0397 10.6891 79.3626 10.7865C79.5222 10.8346 79.6126 11.003 79.5642 11.1623C79.5249 11.2927 79.405 11.3768 79.2755 11.3768ZM30.8863 11.2304C30.7686 11.2304 30.6567 11.1611 30.6081 11.0459C30.5433 10.8925 30.6154 10.7156 30.7689 10.651C31.0784 10.5205 31.3914 10.3932 31.7077 10.2691C31.8629 10.208 32.038 10.2844 32.0989 10.4395C32.1599 10.5945 32.0835 10.7695 31.9283 10.8304C31.6167 10.9527 31.3086 11.078 31.0036 11.2065C30.9652 11.2227 30.9254 11.2304 30.8863 11.2304ZM76.956 10.7058C76.9293 10.7058 76.9021 10.7023 76.8752 10.6949C76.5521 10.6054 76.2295 10.5179 75.907 10.4322C75.7459 10.3893 75.6501 10.2242 75.693 10.0632C75.736 9.90224 75.9017 9.80691 76.0622 9.84933C76.3867 9.93562 76.7113 10.0238 77.0363 10.1136C77.1969 10.158 77.2912 10.3242 77.2466 10.4847C77.2096 10.6182 77.0882 10.7058 76.956 10.7058ZM33.137 10.3585C33.0129 10.3585 32.8966 10.2814 32.8527 10.1578C32.7968 10.0009 32.8788 9.82852 33.0359 9.77278C33.3522 9.66041 33.6716 9.55106 33.9939 9.44446C34.1527 9.39205 34.323 9.47813 34.3753 9.63609C34.4276 9.79419 34.3418 9.96481 34.1836 10.0171C33.8654 10.1222 33.5503 10.2301 33.2382 10.341C33.2046 10.3527 33.1706 10.3585 33.137 10.3585ZM74.6214 10.0898C74.5971 10.0898 74.5723 10.0868 74.5475 10.0806C74.2223 9.99889 73.8977 9.91898 73.5735 9.84103C73.4115 9.80204 73.3116 9.6392 73.3506 9.47728C73.3896 9.3154 73.5525 9.21569 73.7148 9.25464C74.0412 9.33314 74.3677 9.41345 74.6949 9.49572C74.8565 9.53638 74.9547 9.70016 74.914 9.86164C74.8795 9.99854 74.7565 10.0898 74.6214 10.0898ZM35.4324 9.61136C35.3022 9.61136 35.1822 9.52663 35.1431 9.39561C35.0957 9.236 35.1867 9.06814 35.3465 9.02065C35.6682 8.92516 35.9926 8.83239 36.3197 8.74268C36.4801 8.69851 36.6466 8.79294 36.6907 8.95351C36.735 9.11413 36.6404 9.28007 36.4797 9.32415C36.1567 9.4129 35.8362 9.50447 35.5185 9.5988C35.4897 9.60724 35.4609 9.61136 35.4324 9.61136ZM72.2727 9.52975C72.2506 9.52975 72.2282 9.52728 72.2058 9.52221C71.8789 9.44838 71.5524 9.37646 71.2264 9.30636C71.0634 9.27143 70.9597 9.11106 70.9948 8.94818C71.0299 8.78545 71.1904 8.68167 71.3533 8.7168C71.6814 8.78726 72.01 8.85963 72.339 8.93401C72.5016 8.97069 72.6036 9.13217 72.5667 9.29465C72.5352 9.43461 72.4105 9.52975 72.2727 9.52975ZM69.911 9.02723C69.8913 9.02723 69.8714 9.02527 69.8514 9.02125C69.5228 8.95547 69.1945 8.89169 68.867 8.82973C68.7032 8.79882 68.5955 8.64107 68.6265 8.47743C68.6574 8.3139 68.815 8.20615 68.9792 8.23726C69.3089 8.29957 69.6393 8.3638 69.97 8.42994C70.1335 8.46261 70.2394 8.62152 70.2066 8.78475C70.1779 8.92813 70.0519 9.02723 69.911 9.02723ZM37.7628 8.98115C37.627 8.98115 37.5036 8.88898 37.4698 8.75138C37.4301 8.5896 37.5291 8.42637 37.6911 8.38662C38.017 8.30681 38.3453 8.22967 38.6762 8.15534C38.8393 8.11915 39.0004 8.22082 39.0368 8.38335C39.0734 8.54578 38.9714 8.7072 38.8086 8.74369C38.4817 8.81721 38.1571 8.89335 37.8349 8.97241C37.8107 8.97829 37.7865 8.98115 37.7628 8.98115ZM67.5376 8.58377C67.5204 8.58377 67.503 8.58232 67.4854 8.57925C67.1551 8.52176 66.8255 8.46627 66.4964 8.4128C66.3319 8.38601 66.2202 8.23112 66.247 8.06669C66.2737 7.90235 66.4282 7.79118 66.5934 7.81757C66.9247 7.87144 67.2565 7.92732 67.5889 7.98502C67.7531 8.01356 67.8631 8.16976 67.8345 8.33385C67.8091 8.4804 67.6815 8.58377 67.5376 8.58377ZM40.1202 8.46029C39.9791 8.46029 39.8529 8.36089 39.8245 8.21725C39.7921 8.05392 39.8984 7.89521 40.0619 7.8628C40.391 7.79771 40.7223 7.7353 41.0557 7.67539C41.2191 7.64509 41.3767 7.7547 41.4062 7.91873C41.4358 8.08267 41.3266 8.23942 41.1626 8.26897C40.8327 8.32817 40.5048 8.38998 40.1792 8.45436C40.1594 8.45833 40.1397 8.46029 40.1202 8.46029ZM65.1534 8.20107C65.1388 8.20107 65.124 8.20006 65.109 8.19785C64.7773 8.14905 64.4464 8.10217 64.1161 8.05729C63.9509 8.03477 63.8352 7.88285 63.8577 7.71786C63.8802 7.55277 64.0334 7.43743 64.1974 7.45969C64.5299 7.50492 64.8632 7.55206 65.1971 7.60121C65.3619 7.62544 65.4759 7.77867 65.4516 7.94346C65.4296 8.09332 65.3006 8.20107 65.1534 8.20107ZM42.4981 8.04156C42.3518 8.04156 42.2233 7.93517 42.2002 7.78616C42.1747 7.62157 42.2875 7.46753 42.4523 7.442C42.7838 7.39074 43.1174 7.34189 43.4527 7.29565C43.6171 7.27208 43.7702 7.38813 43.793 7.55312C43.8158 7.71806 43.7004 7.87028 43.5353 7.89305C43.2033 7.93888 42.8731 7.98718 42.5447 8.03799C42.529 8.0405 42.5135 8.04156 42.4981 8.04156ZM62.7602 7.88109C62.7482 7.88109 62.736 7.88039 62.7239 7.87893C62.3908 7.83898 62.0588 7.80108 61.7275 7.76505C61.5617 7.74711 61.4419 7.5982 61.46 7.4327C61.4781 7.26711 61.6264 7.14765 61.7927 7.16554C62.1262 7.20178 62.4606 7.24002 62.7958 7.28018C62.9613 7.30003 63.0794 7.45009 63.0595 7.61549C63.0411 7.76857 62.9108 7.88109 62.7602 7.88109ZM44.891 7.71952C44.7398 7.71952 44.6093 7.60624 44.5916 7.45256C44.5725 7.28706 44.6913 7.13745 44.8569 7.1184C45.1901 7.08001 45.5252 7.04422 45.862 7.01075C46.0269 6.99573 46.1757 7.11529 46.1922 7.28098C46.2087 7.44678 46.0876 7.59438 45.9217 7.61086C45.588 7.64393 45.2562 7.67956 44.926 7.71756C44.9142 7.71891 44.9027 7.71952 44.891 7.71952ZM60.3589 7.62604C60.3496 7.62604 60.3402 7.62564 60.3307 7.62478C59.9969 7.59398 59.664 7.56518 59.3319 7.53849C59.1656 7.52512 59.0418 7.37978 59.0552 7.21379C59.0686 7.04779 59.2145 6.92371 59.3802 6.93738C59.7146 6.96426 60.05 6.99321 60.3863 7.02422C60.5523 7.03955 60.6744 7.18635 60.6591 7.35224C60.6446 7.50864 60.513 7.62604 60.3589 7.62604ZM47.2946 7.48814C47.1384 7.48814 47.0063 7.36807 46.994 7.21007C46.9811 7.04397 47.1053 6.89888 47.2715 6.88597C47.6059 6.85993 47.9419 6.83631 48.2796 6.8149C48.4444 6.80264 48.5893 6.93054 48.5999 7.09679C48.6104 7.26299 48.4842 7.40617 48.3178 7.41677C47.983 7.43798 47.65 7.46145 47.3184 7.48723C47.3103 7.48784 47.3025 7.48814 47.2946 7.48814ZM57.9514 7.43818C57.9449 7.43818 57.9385 7.43798 57.9319 7.43758C57.5974 7.41637 57.2637 7.39717 56.9311 7.38009C56.7646 7.37154 56.6366 7.22972 56.6452 7.06342C56.6537 6.89697 56.7947 6.76701 56.9622 6.77776C57.2971 6.79505 57.6331 6.81425 57.9702 6.83566C58.1366 6.84626 58.2628 6.98944 58.2523 7.15574C58.2422 7.31551 58.1094 7.43818 57.9514 7.43818ZM49.705 7.34269C49.5443 7.34269 49.4107 7.21615 49.4037 7.05422C49.3964 6.88787 49.5257 6.74711 49.6922 6.73992C50.0274 6.7254 50.3639 6.71334 50.7019 6.70344C50.8661 6.70097 51.0077 6.82958 51.0125 6.99603C51.0173 7.16247 50.8862 7.30138 50.7196 7.30631C50.3844 7.31606 50.0507 7.32812 49.7183 7.34244C49.7139 7.34259 49.7094 7.34269 49.705 7.34269ZM55.5396 7.32028C55.536 7.32028 55.5326 7.32018 55.529 7.32008C55.1939 7.30867 54.86 7.29947 54.5271 7.29239C54.3605 7.28887 54.2282 7.15102 54.2318 6.98457C54.2353 6.81812 54.3758 6.68202 54.5399 6.68951C54.8754 6.6966 55.212 6.7058 55.5497 6.71741C55.7163 6.72309 55.8467 6.8626 55.841 7.02905C55.8355 7.19203 55.7015 7.32028 55.5396 7.32028ZM52.1189 7.27877C51.9536 7.27877 51.8188 7.14579 51.8171 6.98025C51.8155 6.8137 51.9493 6.67735 52.1159 6.67569C52.3716 6.67313 52.6282 6.67188 52.8853 6.67188L53.1262 6.67228C53.2929 6.67288 53.4275 6.80842 53.4269 6.97492C53.4263 7.14107 53.2912 7.27535 53.1251 7.27535C53.1247 7.27535 53.1244 7.27535 53.124 7.27535L52.8853 7.27495C52.6301 7.27495 52.3757 7.27621 52.122 7.27877C52.1209 7.27877 52.1199 7.27877 52.1189 7.27877Z" fill="#292F52"/>
<path d="M82.2996 114.65C82.276 114.65 82.2523 114.649 82.2291 114.65C82.0218 114.65 81.8139 114.649 81.6054 114.647C81.4387 114.645 81.3049 114.508 81.3067 114.342C81.3085 114.176 81.4433 114.044 81.6085 114.044C81.6095 114.044 81.6105 114.044 81.6116 114.044C81.8408 114.046 82.0691 114.047 82.2971 114.047C82.4026 114.047 82.5077 114.046 82.6126 114.046C82.6134 114.046 82.614 114.046 82.6146 114.046C82.7805 114.046 82.9154 114.179 82.9164 114.345C82.9174 114.512 82.7832 114.648 82.6164 114.649C82.5109 114.649 82.4053 114.65 82.2996 114.65ZM84.0214 114.624C83.8587 114.624 83.7247 114.495 83.72 114.332C83.715 114.165 83.8463 114.026 84.0129 114.022C84.3474 114.012 84.6811 114 85.0136 113.985C85.1871 113.977 85.3213 114.106 85.3286 114.273C85.336 114.439 85.2071 114.58 85.0407 114.587C84.7047 114.602 84.3678 114.615 84.0302 114.624C84.0273 114.624 84.0244 114.624 84.0214 114.624ZM80.2007 114.617C80.1974 114.617 80.1942 114.617 80.1909 114.617C79.8551 114.606 79.5185 114.593 79.1807 114.577C79.0142 114.569 78.8857 114.427 78.8938 114.261C78.9016 114.095 79.0437 113.971 79.2097 113.974C79.544 113.99 79.8775 114.004 80.2102 114.014C80.3768 114.02 80.5075 114.159 80.5021 114.325C80.497 114.488 80.363 114.617 80.2007 114.617ZM86.4328 114.509C86.2753 114.509 86.1427 114.387 86.1319 114.228C86.1207 114.062 86.2465 113.918 86.4129 113.907C86.7468 113.884 87.0797 113.859 87.4114 113.831C87.5757 113.821 87.7234 113.941 87.7374 114.107C87.7512 114.272 87.6279 114.418 87.4617 114.432C87.1269 114.46 86.7908 114.486 86.4534 114.508C86.4465 114.509 86.4396 114.509 86.4328 114.509ZM77.7894 114.495C77.7823 114.495 77.7752 114.494 77.7681 114.494C77.4329 114.471 77.0969 114.445 76.7603 114.416C76.5942 114.402 76.471 114.256 76.4851 114.09C76.4993 113.924 76.6475 113.8 76.8113 113.815C77.1448 113.844 77.4777 113.869 77.8098 113.892C77.9762 113.904 78.1016 114.048 78.09 114.214C78.079 114.373 77.9464 114.495 77.7894 114.495ZM88.8382 114.3C88.6859 114.3 88.555 114.185 88.5385 114.03C88.5208 113.865 88.6407 113.716 88.8065 113.698C89.1394 113.663 89.4707 113.624 89.8009 113.583C89.9687 113.563 90.1172 113.68 90.1377 113.845C90.1583 114.011 90.0408 114.161 89.8755 114.182C89.5418 114.223 89.207 114.262 88.8706 114.298C88.8598 114.299 88.849 114.3 88.8382 114.3ZM75.3843 114.282C75.3735 114.282 75.3627 114.282 75.3519 114.28C75.0177 114.245 74.683 114.207 74.3476 114.165C74.1821 114.145 74.0644 113.995 74.0847 113.829C74.1051 113.664 74.2537 113.549 74.4211 113.567C74.7534 113.607 75.0849 113.646 75.416 113.681C75.5819 113.699 75.7018 113.847 75.6841 114.013C75.6675 114.167 75.5366 114.282 75.3843 114.282ZM91.2332 113.995C91.086 113.995 90.9573 113.887 90.9351 113.737C90.9105 113.573 91.0245 113.419 91.1894 113.395C91.5205 113.346 91.8502 113.294 92.1784 113.24C92.3438 113.213 92.4983 113.324 92.5254 113.488C92.5527 113.652 92.4415 113.808 92.277 113.835C91.9453 113.89 91.6124 113.942 91.2778 113.991C91.2629 113.994 91.248 113.995 91.2332 113.995ZM72.9887 113.981C72.9744 113.981 72.9599 113.98 72.9453 113.978C72.6126 113.93 72.2796 113.879 71.946 113.826C71.7815 113.8 71.6694 113.645 71.6956 113.481C71.722 113.316 71.8753 113.204 72.0414 113.231C72.3718 113.283 72.7018 113.334 73.0315 113.381C73.1964 113.405 73.3109 113.558 73.2872 113.723C73.2654 113.873 73.1363 113.981 72.9887 113.981ZM93.6141 113.593C93.472 113.593 93.3455 113.492 93.3179 113.348C93.2869 113.184 93.3944 113.026 93.5581 112.995C93.8868 112.933 94.214 112.867 94.5398 112.8C94.7022 112.766 94.8631 112.871 94.8969 113.034C94.9309 113.196 94.8262 113.356 94.6629 113.39C94.3339 113.459 94.0032 113.524 93.6709 113.588C93.6518 113.591 93.6328 113.593 93.6141 113.593ZM70.6056 113.593C70.5877 113.593 70.5695 113.591 70.5513 113.588C70.2207 113.528 69.8896 113.465 69.5584 113.4C69.3948 113.368 69.2884 113.209 69.3207 113.046C69.353 112.882 69.5123 112.776 69.6752 112.808C70.0036 112.873 70.3317 112.935 70.6594 112.995C70.8234 113.024 70.9321 113.181 70.9023 113.345C70.8757 113.491 70.7486 113.593 70.6056 113.593ZM68.2384 113.119C68.2169 113.119 68.1951 113.116 68.1733 113.111C67.8451 113.04 67.5166 112.965 67.1879 112.888C67.0256 112.85 66.925 112.688 66.9631 112.525C67.0013 112.363 67.1639 112.262 67.3259 112.301C67.6518 112.377 67.9774 112.451 68.3029 112.522C68.4656 112.558 68.5686 112.719 68.5329 112.882C68.502 113.023 68.377 113.119 68.2384 113.119ZM95.9764 113.093C95.8393 113.093 95.7153 112.999 95.6827 112.86C95.6447 112.698 95.7456 112.536 95.9079 112.498C96.2337 112.422 96.5577 112.343 96.8804 112.262C97.0423 112.221 97.206 112.319 97.2469 112.48C97.2877 112.642 97.1899 112.806 97.0281 112.846C96.7023 112.929 96.3748 113.008 96.0454 113.085C96.0223 113.091 95.9993 113.093 95.9764 113.093ZM65.8894 112.56C65.8646 112.56 65.8394 112.557 65.8142 112.551C65.4889 112.467 65.1631 112.381 64.8372 112.292C64.6764 112.248 64.5816 112.083 64.6254 111.922C64.6692 111.761 64.8352 111.666 64.996 111.71C65.319 111.798 65.6417 111.884 65.9642 111.966C66.1257 112.008 66.223 112.172 66.1816 112.333C66.1466 112.47 66.024 112.56 65.8894 112.56ZM98.3153 112.494C98.1833 112.494 98.062 112.407 98.0248 112.274C97.9799 112.114 98.0736 111.947 98.2341 111.902C98.5564 111.812 98.8769 111.72 99.1955 111.625C99.3548 111.577 99.5235 111.667 99.5712 111.827C99.6191 111.986 99.5283 112.154 99.3688 112.202C99.0467 112.298 98.7227 112.392 98.3969 112.483C98.3695 112.491 98.3422 112.494 98.3153 112.494ZM63.5617 111.919C63.5335 111.919 63.5048 111.915 63.4763 111.906C63.1541 111.812 62.8317 111.714 62.509 111.614C62.3499 111.565 62.2609 111.396 62.3104 111.237C62.36 111.078 62.529 110.989 62.6883 111.038C63.008 111.138 63.3276 111.234 63.647 111.328C63.8069 111.375 63.8983 111.543 63.8512 111.703C63.8124 111.834 63.6921 111.919 63.5617 111.919ZM100.626 111.794C100.499 111.794 100.381 111.714 100.339 111.587C100.287 111.428 100.374 111.258 100.532 111.206C100.85 111.102 101.166 110.996 101.48 110.886C101.638 110.831 101.81 110.915 101.865 111.072C101.919 111.23 101.836 111.401 101.679 111.456C101.361 111.566 101.042 111.674 100.72 111.779C100.689 111.79 100.657 111.794 100.626 111.794ZM61.2579 111.197C61.2263 111.197 61.1941 111.192 61.1626 111.181C60.8439 111.075 60.5251 110.967 60.2064 110.856C60.049 110.801 59.9659 110.629 60.0208 110.472C60.0756 110.315 60.2472 110.231 60.4051 110.286C60.7212 110.396 61.0372 110.504 61.3534 110.609C61.5116 110.662 61.597 110.833 61.5443 110.991C61.5022 111.117 61.3844 111.197 61.2579 111.197ZM102.904 110.993C102.782 110.993 102.667 110.919 102.621 110.798C102.562 110.642 102.641 110.468 102.797 110.409C103.11 110.291 103.42 110.17 103.729 110.047C103.883 109.985 104.059 110.06 104.121 110.215C104.183 110.369 104.108 110.545 103.953 110.607C103.641 110.732 103.327 110.854 103.01 110.973C102.975 110.987 102.939 110.993 102.904 110.993ZM58.9806 110.395C58.9457 110.395 58.9102 110.389 58.8755 110.377C58.5606 110.26 58.2458 110.14 57.9309 110.018C57.7754 109.958 57.6983 109.783 57.7586 109.628C57.8188 109.473 57.9934 109.395 58.1492 109.456C58.4614 109.577 58.7736 109.695 59.0857 109.811C59.242 109.869 59.3217 110.043 59.2636 110.199C59.2184 110.321 59.1031 110.395 58.9806 110.395ZM105.142 110.087C105.025 110.087 104.914 110.019 104.864 109.905C104.798 109.753 104.868 109.575 105.021 109.509C105.328 109.376 105.633 109.241 105.935 109.103C106.087 109.033 106.266 109.101 106.335 109.252C106.404 109.404 106.338 109.582 106.186 109.652C105.88 109.791 105.572 109.928 105.261 110.063C105.222 110.079 105.181 110.087 105.142 110.087ZM56.7319 109.517C56.6936 109.517 56.6548 109.51 56.6172 109.494C56.3066 109.367 55.9961 109.237 55.6855 109.104C55.5321 109.039 55.4609 108.862 55.5264 108.709C55.5917 108.555 55.7693 108.484 55.9225 108.55C56.2305 108.681 56.5386 108.81 56.8467 108.936C57.0009 109 57.0745 109.176 57.0111 109.33C56.9633 109.446 56.8506 109.517 56.7319 109.517ZM107.334 109.077C107.222 109.077 107.115 109.015 107.063 108.908C106.989 108.759 107.051 108.578 107.2 108.505C107.5 108.357 107.798 108.207 108.093 108.054C108.241 107.978 108.423 108.036 108.5 108.184C108.577 108.331 108.519 108.513 108.371 108.59C108.072 108.744 107.77 108.896 107.467 109.046C107.424 109.067 107.378 109.077 107.334 109.077ZM54.5141 108.563C54.4726 108.563 54.4306 108.555 54.3903 108.536C54.0842 108.399 53.7782 108.258 53.4722 108.116C53.3211 108.045 53.2558 107.866 53.3263 107.715C53.3968 107.564 53.5765 107.499 53.7275 107.569C54.0311 107.711 54.3346 107.85 54.6382 107.987C54.7903 108.055 54.8579 108.234 54.7895 108.385C54.7392 108.497 54.6292 108.563 54.5141 108.563ZM109.473 107.958C109.367 107.958 109.264 107.903 109.209 107.804C109.128 107.658 109.181 107.474 109.326 107.393C109.619 107.231 109.908 107.066 110.195 106.899C110.338 106.814 110.523 106.863 110.608 107.007C110.692 107.151 110.643 107.335 110.499 107.419C110.209 107.589 109.916 107.756 109.62 107.92C109.573 107.946 109.523 107.958 109.473 107.958ZM52.3295 107.536C52.2847 107.536 52.2395 107.526 52.1966 107.505C51.8953 107.358 51.5939 107.207 51.2929 107.055C51.1442 106.979 51.0849 106.798 51.1604 106.649C51.236 106.501 51.4174 106.442 51.5662 106.517C51.8649 106.668 52.1637 106.817 52.4626 106.964C52.6123 107.037 52.674 107.218 52.6005 107.367C52.5481 107.474 52.4409 107.536 52.3295 107.536ZM111.552 106.732C111.451 106.732 111.353 106.682 111.296 106.59C111.207 106.449 111.25 106.263 111.391 106.175C111.674 105.997 111.955 105.817 112.232 105.635C112.371 105.543 112.558 105.582 112.65 105.721C112.742 105.86 112.703 106.047 112.564 106.138C112.283 106.324 111.999 106.506 111.712 106.686C111.662 106.717 111.607 106.732 111.552 106.732ZM50.1795 106.438C50.1318 106.438 50.0833 106.427 50.0382 106.403C49.7417 106.246 49.4454 106.086 49.1495 105.923C49.0034 105.843 48.95 105.66 49.0302 105.514C49.1105 105.368 49.2938 105.314 49.4401 105.395C49.7337 105.556 50.0276 105.714 50.3216 105.871C50.4688 105.949 50.5246 106.131 50.4463 106.278C50.3921 106.38 50.2877 106.438 50.1795 106.438ZM113.561 105.395C113.467 105.395 113.374 105.351 113.315 105.268C113.219 105.132 113.251 104.944 113.387 104.847C113.66 104.655 113.929 104.459 114.196 104.261C114.33 104.162 114.518 104.19 114.618 104.323C114.718 104.457 114.69 104.646 114.556 104.745C114.286 104.946 114.012 105.144 113.736 105.34C113.683 105.377 113.622 105.395 113.561 105.395ZM48.0664 105.272C48.0153 105.272 47.9638 105.259 47.9164 105.232C47.6253 105.065 47.3345 104.896 47.0436 104.724C46.9001 104.639 46.8525 104.454 46.9373 104.311C47.0223 104.168 47.2072 104.12 47.3508 104.205C47.6393 104.375 47.9279 104.543 48.2169 104.709C48.3614 104.792 48.4114 104.976 48.3285 105.121C48.2727 105.218 48.171 105.272 48.0664 105.272ZM45.9911 104.039C45.9371 104.039 45.8824 104.024 45.833 103.994C45.5473 103.818 45.2619 103.64 44.9769 103.459C44.8361 103.37 44.7942 103.184 44.8834 103.043C44.9725 102.903 45.159 102.861 45.2999 102.95C45.583 103.129 45.8662 103.306 46.1498 103.481C46.2917 103.568 46.3358 103.754 46.2484 103.896C46.1913 103.988 46.0924 104.039 45.9911 104.039ZM115.492 103.947C115.403 103.947 115.315 103.908 115.256 103.833C115.152 103.703 115.173 103.514 115.303 103.41C115.564 103.201 115.822 102.991 116.076 102.777C116.203 102.67 116.394 102.687 116.501 102.814C116.608 102.942 116.592 103.132 116.464 103.239C116.206 103.456 115.945 103.669 115.68 103.881C115.624 103.925 115.558 103.947 115.492 103.947ZM43.9554 102.742C43.8983 102.742 43.8407 102.726 43.7895 102.692C43.5095 102.507 43.2296 102.32 42.9502 102.131C42.8121 102.038 42.776 101.85 42.8696 101.712C42.963 101.575 43.1507 101.539 43.2887 101.632C43.5662 101.82 43.8438 102.005 44.1219 102.189C44.261 102.28 44.2995 102.467 44.2076 102.606C44.1495 102.694 44.0535 102.742 43.9554 102.742ZM117.332 102.386C117.25 102.386 117.167 102.352 117.108 102.286C116.996 102.163 117.005 101.972 117.129 101.861C117.377 101.637 117.621 101.411 117.861 101.182C117.982 101.067 118.172 101.072 118.287 101.192C118.402 101.313 118.398 101.504 118.277 101.619C118.033 101.851 117.786 102.08 117.534 102.308C117.476 102.36 117.404 102.386 117.332 102.386ZM41.9604 101.383C41.9004 101.383 41.8398 101.365 41.787 101.328C41.5126 101.135 41.2387 100.94 40.9649 100.743C40.8298 100.645 40.7994 100.457 40.8971 100.321C40.9947 100.187 41.1833 100.156 41.3186 100.254C41.5901 100.45 41.8621 100.644 42.1344 100.835C42.2707 100.931 42.3035 101.119 42.2075 101.255C42.1487 101.339 42.0553 101.383 41.9604 101.383ZM119.069 100.712C118.993 100.712 118.918 100.684 118.859 100.627C118.739 100.511 118.737 100.32 118.853 100.2C119.084 99.9621 119.315 99.7185 119.538 99.4757C119.651 99.3528 119.842 99.3453 119.964 99.4574C120.087 99.5701 120.095 99.7609 119.983 99.8836C119.756 100.13 119.521 100.378 119.286 100.62C119.227 100.681 119.148 100.712 119.069 100.712ZM120.691 98.9259C120.622 98.9259 120.553 98.9025 120.496 98.8546C120.369 98.747 120.353 98.5566 120.461 98.4296C120.674 98.1777 120.887 97.9187 121.093 97.6599C121.197 97.5297 121.387 97.5079 121.517 97.6115C121.648 97.7152 121.669 97.905 121.565 98.0352C121.355 98.299 121.139 98.5627 120.922 98.8191C120.862 98.8895 120.777 98.9259 120.691 98.9259ZM122.182 97.03C122.12 97.03 122.058 97.0114 122.005 96.9723C121.87 96.8744 121.84 96.6859 121.938 96.5512C122.134 96.2813 122.327 96.0073 122.511 95.7369C122.605 95.5991 122.793 95.5636 122.931 95.6572C123.068 95.7509 123.104 95.9384 123.011 96.0762C122.823 96.3516 122.626 96.6308 122.426 96.9058C122.367 96.9871 122.275 97.03 122.182 97.03ZM123.526 95.0277C123.472 95.0277 123.417 95.0132 123.368 94.9829C123.226 94.8956 123.182 94.7099 123.269 94.5679C123.442 94.2872 123.613 93.9994 123.777 93.7124C123.86 93.5675 124.044 93.5172 124.189 93.5999C124.334 93.6823 124.384 93.8665 124.301 94.0112C124.134 94.3039 123.96 94.5977 123.783 94.8844C123.726 94.9768 123.627 95.0277 123.526 95.0277ZM124.707 92.9254C124.661 92.9254 124.614 92.915 124.57 92.8926C124.422 92.8172 124.362 92.6358 124.438 92.4872C124.589 92.1896 124.736 91.8889 124.873 91.5932C124.944 91.4423 125.123 91.3771 125.274 91.447C125.426 91.5172 125.491 91.6965 125.421 91.8477C125.28 92.1494 125.131 92.4564 124.976 92.7605C124.923 92.8651 124.817 92.9254 124.707 92.9254ZM125.708 90.7327C125.67 90.7327 125.632 90.7256 125.595 90.7106C125.44 90.6481 125.366 90.4722 125.429 90.3179C125.552 90.0134 125.672 89.7025 125.784 89.3933C125.841 89.2367 126.014 89.1556 126.171 89.2127C126.328 89.2696 126.409 89.4426 126.352 89.5991C126.237 89.9153 126.114 90.2333 125.988 90.5445C125.94 90.6617 125.827 90.7327 125.708 90.7327ZM126.514 88.4659C126.484 88.4659 126.454 88.4617 126.425 88.4527C126.266 88.4038 126.176 88.2354 126.225 88.076C126.321 87.7628 126.412 87.4417 126.497 87.1219C126.54 86.9611 126.705 86.8649 126.866 86.9075C127.027 86.9501 127.123 87.1152 127.081 87.2761C126.994 87.6034 126.9 87.9321 126.802 88.2526C126.762 88.3824 126.643 88.4659 126.514 88.4659ZM127.113 86.1319C127.093 86.1319 127.072 86.13 127.051 86.1256C126.888 86.0915 126.784 85.9318 126.818 85.7687C126.885 85.4472 126.947 85.1184 127.002 84.7913C127.03 84.6269 127.186 84.517 127.35 84.5439C127.514 84.5716 127.625 84.7271 127.597 84.8914C127.541 85.2261 127.477 85.5628 127.409 85.8921C127.379 86.0342 127.253 86.1319 127.113 86.1319ZM127.496 83.7469C127.485 83.7469 127.473 83.7464 127.462 83.7449C127.296 83.7261 127.177 83.5767 127.196 83.4112C127.233 83.0879 127.264 82.7555 127.289 82.423C127.301 82.2567 127.447 82.1316 127.612 82.1446C127.779 82.1569 127.903 82.3016 127.891 82.4677C127.866 82.8081 127.834 83.1486 127.796 83.4795C127.778 83.6334 127.647 83.7469 127.496 83.7469ZM127.657 81.3427C127.655 81.3427 127.653 81.3427 127.65 81.3427C127.484 81.3391 127.352 81.2013 127.355 81.0348C127.359 80.856 127.361 80.6764 127.361 80.4967C127.361 80.3454 127.359 80.1936 127.356 80.0417C127.353 79.8752 127.486 79.7378 127.653 79.7349C127.655 79.7349 127.656 79.7349 127.658 79.7349C127.823 79.7349 127.957 79.8664 127.96 80.0311C127.963 80.1866 127.964 80.3418 127.964 80.4967C127.964 80.6807 127.962 80.8643 127.959 81.0474C127.955 81.2117 127.821 81.3427 127.657 81.3427ZM127.596 78.9321C127.439 78.9321 127.307 78.8106 127.296 78.6518C127.273 78.3239 127.243 77.9908 127.208 77.6612C127.19 77.4955 127.31 77.3469 127.476 77.3292C127.642 77.3109 127.79 77.4311 127.808 77.5968C127.844 77.9336 127.874 78.2744 127.898 78.6094C127.91 78.7756 127.784 78.9197 127.618 78.9313C127.611 78.9319 127.604 78.9321 127.596 78.9321ZM127.321 76.5355C127.176 76.5355 127.047 76.4297 127.024 76.2813C126.972 75.9574 126.914 75.628 126.85 75.3017C126.818 75.1384 126.924 74.98 127.088 74.9479C127.252 74.9157 127.41 75.0223 127.442 75.1859C127.508 75.5192 127.567 75.8559 127.62 76.1867C127.646 76.3512 127.534 76.5057 127.369 76.5318C127.353 76.5343 127.337 76.5355 127.321 76.5355ZM126.842 74.1713C126.706 74.1713 126.583 74.0793 126.549 73.9419C126.471 73.6232 126.385 73.2995 126.295 72.9794C126.249 72.8191 126.343 72.6525 126.503 72.6074C126.664 72.5618 126.83 72.6555 126.876 72.8157C126.968 73.1423 127.055 73.4727 127.135 73.7978C127.175 73.9596 127.076 74.1229 126.914 74.1628C126.89 74.1686 126.866 74.1713 126.842 74.1713ZM126.172 71.8534C126.045 71.8534 125.927 71.7733 125.885 71.6467C125.782 71.3357 125.671 71.0195 125.556 70.7062C125.499 70.5499 125.579 70.3767 125.736 70.3192C125.892 70.2621 126.066 70.342 126.123 70.4985C126.24 70.8175 126.353 71.1402 126.458 71.457C126.51 71.6152 126.425 71.7859 126.266 71.8381C126.235 71.8485 126.203 71.8534 126.172 71.8534Z" fill="#292F52"/>
<path d="M15.8516 45.7456L19.9119 48.1332L18.8024 45.8261L15.8516 45.7456Z" fill="#428AEB"/>
<path d="M23.4445 39.6553L27.7804 53.2176L19.7422 44.6337L23.4445 39.6553Z" fill="#6BA9FB"/>
<path d="M18.8023 45.8262L15.2344 50.6344L27.7804 53.2175L18.8023 45.8262Z" fill="#6BA9FB"/>
<path d="M19.7423 44.6338L15.8516 45.7459L18.8024 45.8264L27.7805 53.2177L19.7423 44.6338Z" fill="#428AEB"/>
<path d="M68.8184 3.20361H51.8362C50.6073 3.20361 49.6016 4.20813 49.6016 5.43589V13.9135C49.6016 15.1413 50.6073 16.1458 51.8362 16.1458H62.0405V20.195C62.0405 21.4227 62.7514 21.7168 63.6204 20.8487L68.3281 16.1458H68.8184C70.0474 16.1458 71.0532 15.1413 71.0532 13.9135V5.43589C71.0532 4.20818 70.0474 3.20361 68.8184 3.20361Z" fill="#F59F35"/>
<path d="M45.3128 5.25439H62.2949C63.5241 5.25439 64.5296 6.25892 64.5296 7.48668V15.9643C64.5296 17.192 63.5241 18.1963 62.2949 18.1963H52.0907V22.2455C52.0907 23.4732 51.3797 23.7677 50.5108 22.8992L45.8031 18.1963H45.3128C44.0838 18.1963 43.0781 17.192 43.0781 15.9643V7.48668C43.0781 6.25892 44.0838 5.25439 45.3128 5.25439Z" fill="#F5D236"/>
<path d="M60.8491 9.87197H49.5743C49.3523 9.87197 49.1719 9.69195 49.1719 9.46992C49.1719 9.24789 49.3523 9.06787 49.5743 9.06787H60.8491C61.0716 9.06787 61.2515 9.24789 61.2515 9.46992C61.2515 9.69195 61.0716 9.87197 60.8491 9.87197Z" fill="#F5F5F5"/>
<path d="M60.8498 11.8681H46.7579C46.5359 11.8681 46.3555 11.688 46.3555 11.466C46.3555 11.244 46.5359 11.064 46.7579 11.064H60.8498C61.0723 11.064 61.2523 11.244 61.2523 11.466C61.2523 11.688 61.0723 11.8681 60.8498 11.8681Z" fill="#F5F5F5"/>
<path d="M57.8252 13.8642H46.7579C46.5359 13.8642 46.3555 13.6841 46.3555 13.4621C46.3555 13.2401 46.5359 13.0601 46.7579 13.0601H57.8252C58.0476 13.0601 58.2276 13.2401 58.2276 13.4621C58.2276 13.6841 58.0476 13.8642 57.8252 13.8642Z" fill="#F5F5F5"/>
<path d="M74.4355 109.438L82.9439 101.977C83.7759 101.247 85.1369 101.247 85.9685 101.977L94.4773 109.438H74.4355Z" fill="#F5D236"/>
<path d="M95.3219 111.07V119.996C95.3219 121.102 94.4164 122.006 93.3097 122.006H75.6021C74.4953 122.006 73.5898 121.102 73.5898 119.996V111.07C73.5898 109.965 74.4953 109.06 75.6021 109.06H93.3097C94.4164 109.06 95.3219 109.965 95.3219 111.07Z" fill="#F59F35"/>
<path d="M92.1356 118.006C92.1356 119.111 91.2301 120.016 90.1233 120.016H78.7876C77.6809 120.016 76.7754 119.111 76.7754 118.006V107.526C76.7754 106.421 77.6809 105.516 78.7876 105.516H90.1233C91.2301 105.516 92.1356 106.421 92.1356 107.526V118.006Z" fill="#F5F5F5"/>
<path d="M95.3219 111.639V119.996C95.3219 121.101 94.4164 122.006 93.3097 122.006H75.6021C74.4953 122.006 73.5898 121.101 73.5898 119.996V111.639C73.5898 111.639 76.8436 115.533 84.4559 116.464C92.0682 115.533 95.3219 111.639 95.3219 111.639Z" fill="#F5D236"/>
<path d="M89.3519 109.462H82.2423C82.0198 109.462 81.8398 109.282 81.8398 109.06C81.8398 108.838 82.0198 108.658 82.2423 108.658H89.3519C89.5743 108.658 89.7543 108.838 89.7543 109.06C89.7543 109.282 89.5743 109.462 89.3519 109.462Z" fill="#E6E6E6"/>
<path d="M89.3514 111.315H79.5587C79.3362 111.315 79.1562 111.135 79.1562 110.913C79.1562 110.691 79.3362 110.511 79.5587 110.511H89.3514C89.5739 110.511 89.7539 110.691 89.7539 110.913C89.7539 111.135 89.5739 111.315 89.3514 111.315Z" fill="#E6E6E6"/>
<path d="M86.8699 113.168H79.5587C79.3362 113.168 79.1562 112.988 79.1562 112.766C79.1562 112.544 79.3362 112.364 79.5587 112.364H86.8699C87.092 112.364 87.2724 112.544 87.2724 112.766C87.2724 112.988 87.092 113.168 86.8699 113.168Z" fill="#E6E6E6"/>
<path d="M127.664 75.4013L124.85 69.8755L126.887 71.4267L127.664 75.4013Z" fill="#428AEB"/>
<path d="M133.874 68.1302L121.453 61.1499L128.246 70.7478L133.874 68.1302Z" fill="#6BA9FB"/>
<path d="M126.887 71.4267L121.453 73.9474V61.1499L126.887 71.4267Z" fill="#6BA9FB"/>
<path d="M128.246 70.7478L127.664 75.4013L126.887 71.4267L121.453 61.1499L128.246 70.7478Z" fill="#428AEB"/>
<mask id="mask0_1083_1419" style="mask-type:luminance" maskUnits="userSpaceOnUse" x="4" y="54" width="68" height="62">
<path d="M24.4786 59.8544C57.2757 40.2254 80.3373 77.2878 68.7185 90.6534C58.8809 101.97 54.1521 91.4922 35.3868 109.7C13.7016 130.742 -16.32 84.2722 24.4786 59.8544Z" fill="white"/>
</mask>
<g mask="url(#mask0_1083_1419)">
<path d="M79.2552 51.9478H-2.44141V122.309H79.2552V51.9478Z" fill="#E8E8F7"/>
</g>
<mask id="mask1_1083_1419" style="mask-type:luminance" maskUnits="userSpaceOnUse" x="4" y="54" width="68" height="62">
<path d="M24.4786 59.8544C57.2757 40.2254 80.3373 77.2878 68.7185 90.6534C58.8809 101.97 54.1521 91.4922 35.3868 109.7C13.7016 130.742 -16.32 84.2722 24.4786 59.8544Z" fill="white"/>
</mask>
<g mask="url(#mask1_1083_1419)">
<path d="M50.913 82.45C50.913 82.45 50.2834 75.6556 50.3718 75.3977C50.4602 75.1401 53.7301 74.1014 54.1829 74.6772L54.535 79.2003C54.535 79.2003 53.6932 83.2043 52.454 82.9836C51.2148 82.7629 50.913 82.45 50.913 82.45Z" fill="#292F52"/>
<path d="M55.0377 84.9469C54.8864 82.9893 55.8925 80.1247 55.3391 79.2201C54.7858 78.3154 53.9306 78.0298 53.9306 78.0298C53.9306 78.0298 51.8177 77.7118 51.9183 81.7578C50.7613 81.8334 50.057 82.1271 50.5098 83.2618C50.9625 84.3965 50.7613 86.2613 50.7613 86.2613C50.7613 86.2613 52.4717 86.6686 53.3269 86.2613C54.1821 85.8538 55.0377 84.9469 55.0377 84.9469Z" fill="#FFA993"/>
<path d="M43.4665 86.2616C45.5794 87.764 49.302 91.684 49.8554 92.5886C50.2578 90.6286 50.1572 86.87 50.3081 86.2616C51.9179 84.5978 54.3326 84.6984 55.4393 85.0501C55.8418 87.2614 55.6909 97.8152 55.0872 100.228C54.4835 102.64 52.6725 102.791 50.8615 101.936C49.0505 101.082 44.2714 97.4634 44.2714 97.4634C44.2714 97.4634 41.404 91.8347 42.2089 89.7742C43.0138 87.7137 43.4665 86.2616 43.4665 86.2616Z" fill="#8A6BFF"/>
<path d="M45.5586 96.9087C50.4677 100.776 52.4479 102.187 54.8681 100.889C54.8681 100.889 53.8264 103.638 50.8615 101.936C48.2352 100.428 45.5586 98.4191 45.5586 98.4191V96.9087Z" fill="#C2B3FF"/>
<path d="M37.43 83.2622C41.2035 84.4471 42.9642 85.7644 43.4673 86.2617C43.9703 86.759 45.6304 93.7949 45.6304 98.8707C45.6304 103.947 45.228 109.073 45.228 109.073C45.228 109.073 39.7447 113.043 28.2246 112.49C23.3953 106.51 21.9364 89.0205 22.3389 88.2667C22.7413 87.5128 27.1565 84.2886 31.0921 83.2623C33.9595 83.442 37.43 83.2622 37.43 83.2622Z" fill="#8A3EFF"/>
<path d="M26.9978 95.605C27.3204 99.1718 26.7168 103.494 28.5781 105.806C30.4394 108.117 34.768 112.309 34.768 112.309C34.768 112.309 32.1005 112.564 30.54 112.542C28.8296 111.032 25.761 106.15 25.2076 102.41C24.6542 98.6692 26.9978 95.605 26.9978 95.605Z" fill="#C2B3FF"/>
<path d="M49.8569 92.5882C49.8569 92.5882 49.5047 95.0005 49.4041 95.8549C49.052 93.2918 48.2286 91.0491 47.1562 89.5571C48.0191 90.4471 49.8569 92.5882 49.8569 92.5882Z" fill="#C2B3FF"/>
<path d="M39.4521 75.2973C40.0477 73.089 41.2047 67.209 37.6833 66.1033C34.1619 64.9977 31.1939 67.9398 28.4271 68.3533C25.6603 68.7669 24.0572 75.249 27.9022 79.4961C31.5963 77.5618 39.4521 75.2973 39.4521 75.2973Z" fill="#292F52"/>
<path d="M29.0293 80.2252C29.9348 81.4313 30.9409 83.3913 30.6894 85.1C32.5507 87.2108 37.9837 86.0549 38.4365 84.698C38.1849 83.6426 37.531 82.1852 37.7825 81.18C38.034 80.1749 33.4059 77.9134 32.0979 78.3154C30.79 78.7175 29.0293 80.2252 29.0293 80.2252Z" fill="#FFB29E"/>
<path d="M33.6074 82.4868C34.6387 83.1652 36.59 83.5836 37.9284 82.9471C37.8657 82.6982 37.7278 81.7578 37.7278 81.7578L33.6074 82.4868Z" fill="#FF7D71"/>
<path d="M29.0293 80.2256L30.4127 80.4463C30.4127 80.4463 31.947 82.9852 31.5375 85.7446C31.5375 85.7446 30.8906 85.3015 30.6894 85.1005C30.79 83.5425 29.8903 81.092 29.0293 80.2256Z" fill="#FF7D71"/>
<path d="M33.6064 82.487C38.8382 83.5926 39.9449 81.3311 39.3413 73.5916C39.3413 73.5916 40.1462 68.767 35.3671 69.8727C30.5881 70.9783 28.3746 71.5814 27.7206 73.1393C27.0667 74.6973 27.4691 78.9188 29.0286 80.2254C30.5881 81.5321 33.6064 82.487 33.6064 82.487Z" fill="#FFB29E"/>
<path d="M29.7312 76.9302C30.3585 76.6502 31.0911 75.215 30.9905 73.6272C33.1284 74.5061 36.5995 71.7573 39.3412 73.5917C39.3412 73.5917 39.5487 72.6117 38.7532 71.8327C37.9577 71.0537 30.6886 71.6317 30.1353 72.0086C29.5819 72.3855 29.7312 76.9302 29.7312 76.9302Z" fill="#FF7D71"/>
<path d="M39.3409 73.5917C37.5802 70.526 32.5999 74.245 30.4368 72.7373C30.9398 75.8029 29.22 78.1184 28.0677 78.7698C26.5632 76.3558 26.0507 72.3855 28.0677 70.9783C30.0846 69.5712 35.0649 68.2142 36.4735 68.365C37.882 68.5158 39.5924 69.923 39.693 71.1794C39.7937 72.4358 39.3409 73.5917 39.3409 73.5917Z" fill="#292F52"/>
<path d="M29.7309 76.9298C28.5251 75.1492 27.3702 77.2599 27.4195 77.9635C27.4687 78.6671 27.8711 80.1748 29.0282 80.2251C29.2797 79.0692 29.7309 76.9298 29.7309 76.9298Z" fill="#FFB29E"/>
<path d="M38.7496 76.1811C38.7951 76.5319 38.6646 76.8382 38.4581 76.8651C38.2514 76.8918 38.0468 76.6291 38.0013 76.2781C37.9557 75.9271 38.0864 75.6208 38.2929 75.5942C38.4994 75.5675 38.704 75.8302 38.7496 76.1811Z" fill="#292F52"/>
<path d="M34.8023 76.8178C34.8479 77.1688 34.7173 77.4751 34.5108 77.5018C34.304 77.5285 34.0996 77.2658 34.054 76.9148C34.0084 76.564 34.1388 76.2578 34.3456 76.2309C34.5521 76.2041 34.7567 76.4668 34.8023 76.8178Z" fill="#292F52"/>
<path d="M37.2307 74.2697C37.2307 74.2697 37.2321 74.2608 37.2342 74.2442C37.2377 74.2279 37.2407 74.2002 37.2503 74.1735C37.2678 74.1162 37.2994 74.0385 37.3554 73.9652C37.3827 73.9265 37.4148 73.8869 37.4546 73.8543C37.492 73.8182 37.5356 73.7837 37.5832 73.7538C37.6327 73.7265 37.684 73.6971 37.7412 73.6794C37.7972 73.659 37.8565 73.6447 37.917 73.6359C37.978 73.6278 38.0391 73.6239 38.1 73.6298C38.1607 73.6306 38.2204 73.6447 38.2766 73.66C38.333 73.6716 38.3847 73.702 38.4325 73.7256C38.481 73.7458 38.5223 73.7794 38.5584 73.8112C38.6327 73.8689 38.6799 73.9404 38.7084 73.9926C38.737 74.0452 38.7487 74.0799 38.7482 74.0799L38.7534 74.0955C38.7563 74.1045 38.7512 74.1139 38.7426 74.1169C38.739 74.1179 38.7355 74.1179 38.7321 74.1167C38.7321 74.1167 38.709 74.1092 38.6683 74.0963C38.6282 74.0821 38.5703 74.065 38.4993 74.0503C38.4641 74.0413 38.4258 74.0327 38.3845 74.0291C38.3435 74.0242 38.3006 74.0161 38.2552 74.017C38.1651 74.0132 38.0686 74.0169 37.974 74.0338C37.7828 74.0556 37.5978 74.1218 37.4677 74.1858C37.3352 74.2471 37.2552 74.3018 37.2552 74.3018C37.2474 74.3071 37.237 74.3051 37.2316 74.2975C37.2289 74.2938 37.2281 74.2898 37.2287 74.2857L37.2307 74.2697Z" fill="#FF7167"/>
<path d="M33.5695 74.7987C33.5694 74.7985 33.572 74.7622 33.5875 74.7078C33.603 74.6539 33.6306 74.582 33.678 74.5133C33.7013 74.4784 33.7281 74.4407 33.7615 74.41C33.7947 74.3782 33.8288 74.3409 33.8713 74.3148C33.9528 74.2571 34.0535 74.2153 34.1617 74.1921C34.2703 74.1709 34.389 74.1729 34.4981 74.2C34.608 74.231 34.7071 74.2828 34.776 74.349C34.8113 74.381 34.8387 74.4171 34.8603 74.4485C34.8827 74.4785 34.8945 74.5162 34.905 74.5419C34.9239 74.5972 34.9268 74.6314 34.9268 74.6314L34.9282 74.6485C34.929 74.6577 34.9221 74.6658 34.913 74.6666C34.9101 74.6668 34.9069 74.6662 34.9042 74.6648C34.9042 74.6648 34.8848 74.6556 34.8509 74.6393C34.8187 74.6193 34.767 74.6048 34.7063 74.5853C34.6446 74.5694 34.5707 74.5582 34.4905 74.5572C34.4103 74.558 34.3247 74.5672 34.2405 74.5863C34.0707 74.6173 33.9061 74.6793 33.7876 74.7351C33.6678 74.7897 33.5917 74.8323 33.5917 74.8323C33.584 74.8364 33.5746 74.8336 33.5703 74.8264C33.5688 74.8234 33.5682 74.8205 33.5684 74.8175L33.5695 74.7987Z" fill="#FF7167"/>
<path d="M37.5391 78.0521C37.5391 78.0521 37.5484 78.0806 37.5644 78.1303C37.5792 78.1782 37.6089 78.2469 37.6401 78.3302C37.704 78.4967 37.7942 78.7205 37.8429 78.9682C37.8638 79.0924 37.8793 79.2246 37.8425 79.359C37.8256 79.4255 37.7863 79.4923 37.7325 79.5369C37.679 79.5818 37.6177 79.603 37.5653 79.6112C37.4589 79.6283 37.3809 79.6044 37.3265 79.5956C37.2735 79.5802 37.2439 79.57 37.2439 79.57C37.2274 79.5642 37.2186 79.5457 37.2245 79.529C37.229 79.5163 37.2404 79.5084 37.2532 79.5076H37.2557C37.2557 79.5076 37.2858 79.5061 37.3367 79.5064C37.3862 79.504 37.4611 79.5005 37.5312 79.4746C37.6023 79.4467 37.6507 79.4023 37.6644 79.3148C37.6797 79.2284 37.6672 79.1161 37.6455 79.0052C37.6011 78.781 37.533 78.5496 37.5015 78.3688C37.4838 78.2786 37.4789 78.2009 37.475 78.1456C37.4716 78.0888 37.4762 78.06 37.4762 78.06L37.4766 78.0572C37.4793 78.0395 37.4958 78.0276 37.5133 78.0301C37.5258 78.0321 37.5356 78.0412 37.5391 78.0521Z" fill="#FF7167"/>
<path d="M35.3351 80.454C35.3351 80.454 35.3644 80.4812 35.413 80.5333C35.4369 80.5623 35.4678 80.5859 35.5008 80.6122C35.5332 80.6398 35.5704 80.6695 35.6158 80.6974C35.6586 80.7284 35.7071 80.7553 35.7592 80.7824C35.8095 80.8134 35.8685 80.8297 35.9249 80.8584C35.9838 80.8788 36.0452 80.8988 36.108 80.9169C36.1713 80.9337 36.2358 80.9475 36.3016 80.9565C36.3663 80.9722 36.4335 80.9722 36.4985 80.9791C36.5642 80.9773 36.6286 80.9875 36.6917 80.9793C36.755 80.9756 36.8157 80.973 36.8739 80.962C36.9322 80.9565 36.986 80.9384 37.0375 80.9302C37.0872 80.9125 37.1344 80.9011 37.1753 80.885C37.215 80.8648 37.2521 80.8532 37.281 80.8371C37.3376 80.8025 37.3724 80.7835 37.3724 80.7835L37.3791 80.78C37.4023 80.7677 37.4244 80.7859 37.4288 80.8208C37.4321 80.8466 37.4244 80.8742 37.4113 80.8919C37.4113 80.8919 37.38 80.9333 37.3217 81.0044C37.262 81.0684 37.1722 81.1488 37.0599 81.2169C37.0043 81.2442 36.9426 81.2856 36.8778 81.3047C36.8127 81.3302 36.744 81.3545 36.6734 81.366C36.602 81.3832 36.5299 81.3868 36.4557 81.3934C36.383 81.3895 36.3079 81.3923 36.2352 81.3789C36.1615 81.3711 36.0903 81.3479 36.0202 81.3263C35.9499 81.3055 35.884 81.2694 35.8201 81.2362C35.7581 81.1967 35.6971 81.1626 35.6447 81.112C35.6181 81.0884 35.5924 81.0658 35.5675 81.0438C35.5443 81.0169 35.5221 80.991 35.5007 80.9663C35.4574 80.9199 35.4211 80.8655 35.391 80.8131C35.3589 80.7641 35.3348 80.7195 35.3203 80.6801C35.2879 80.6025 35.2706 80.556 35.2706 80.556C35.2595 80.5256 35.2676 80.4823 35.2888 80.4594C35.3039 80.4429 35.322 80.4418 35.3351 80.454Z" fill="#FF7167"/>
</g>
<path d="M31.8477 117.617C32.8112 117.884 33.9074 119.979 35.2671 120.28C36.6267 120.582 41.0295 119.293 39.8463 117.617C39.4033 116.989 38.1862 117.416 37.4316 115.908C36.7473 114.541 34.7151 115.355 34.4636 115.506L31.8477 117.617Z" fill="#FFA993"/>
<path d="M22.3397 88.2669C20.8808 89.8918 19.271 102.824 20.143 106.108C21.015 109.391 30.2042 117.767 32.0152 118.169C34.2957 117.566 35.0979 115.69 35.2669 114.752C33.4567 111.804 27.9236 107.448 26.5151 104.902C26.0571 104.074 27.2514 96.1257 26.9846 93.6243C26.7488 91.413 24.7712 87.8816 22.3397 88.2669Z" fill="#8A6BFF"/>
<mask id="mask2_1083_1419" style="mask-type:luminance" maskUnits="userSpaceOnUse" x="75" y="1" width="65" height="60">
<path d="M122.072 54.2791C94.7126 74.5444 71.1184 42.7986 75.8373 30.5174C79.6209 20.6697 89.8545 25.5502 97.2216 19.232C104.589 12.9139 107.589 1.14709 118.318 1.93244C129.047 2.7176 157.886 27.7515 122.072 54.2791Z" fill="white"/>
</mask>
<g mask="url(#mask2_1083_1419)">
<path d="M149.646 -2.46338H67.9492V67.8976H149.646V-2.46338Z" fill="#E8E8F7"/>
</g>
<mask id="mask3_1083_1419" style="mask-type:luminance" maskUnits="userSpaceOnUse" x="75" y="1" width="65" height="60">
<path d="M122.072 54.2791C94.7126 74.5444 71.1184 42.7986 75.8373 30.5174C79.6209 20.6697 89.8545 25.5502 97.2216 19.232C104.589 12.9139 107.589 1.14709 118.318 1.93244C129.047 2.7176 157.886 27.7515 122.072 54.2791Z" fill="white"/>
</mask>
<g mask="url(#mask3_1083_1419)">
<path d="M120.664 58.4307C122.576 65.9693 100.6 68.3941 100.651 66.8865C100.701 65.3788 100.341 61.4965 101.85 57.1241C106.286 54.9059 110.193 54.7231 111.555 55.22C112.917 55.7169 120.664 58.4307 120.664 58.4307Z" fill="#292F52"/>
<path d="M94.4025 32.0691C94.3879 30.1121 94.3738 28.3356 94.551 28.0629C94.7282 27.79 98.1266 27.6092 98.3231 28.1803C98.52 28.7516 98.6497 33.0848 98.4513 33.78C98.2528 34.4755 97.0219 34.9257 96.3565 34.25C95.6915 33.5744 94.4025 32.0691 94.4025 32.0691Z" fill="#292F52"/>
<path d="M97.9617 36.7641C98.9646 35.3406 99.6115 33.4644 98.6824 33.2695C97.0982 32.9369 96.943 30.5484 95.773 30.7219C94.862 30.857 93.5104 32.2659 94.0068 33.8038C94.5035 35.3421 94.963 36.3708 94.9127 37.109C94.8624 37.8475 97.9617 36.7641 97.9617 36.7641Z" fill="#FFB29E"/>
<path d="M103.862 39.0314C102.661 35.732 104.767 29.8345 104.818 26.9817C104.868 24.129 102.554 18.3761 106.528 16.7679C106.528 16.7679 108.788 15.9135 110.55 19.1299C112.313 22.3463 113.319 34.5083 109.647 37.8755C105.975 41.2427 104.264 40.137 103.862 39.0314Z" fill="#292F52"/>
<path d="M104.366 36.0851C102.644 38.9075 100.946 42.484 100.946 42.484C100.946 42.484 98.8735 36.6128 98.5296 35.9344C96.9796 35.464 95.2436 36.4426 94.873 37.211C95.6382 40.6172 97.0696 46.8311 98.4703 48.1109C100.744 50.1883 104.46 47.498 106.446 45.4306C108.431 43.3632 108.287 39.2522 106.853 38.1409C105.419 37.0296 104.366 36.0851 104.366 36.0851Z" fill="#FF546B"/>
<path d="M102.889 39.5337C102.889 39.5337 100.81 43.6887 100.676 45.2969C100.542 46.9051 99.9072 48.2928 97.877 47.2973C98.865 49.8533 102.811 48.6762 104.628 47.0535C106.445 45.4308 102.889 39.5337 102.889 39.5337Z" fill="#F0A8C9"/>
<path d="M109.144 33.5036C106.83 34.1067 105.205 34.8124 104.365 36.0855C103.524 37.3584 101.044 44.1077 101.698 45.8667C102.352 47.6256 103.409 48.1282 103.107 50.0882C102.805 52.0482 101.749 56.32 101.849 57.1241C105.874 60.7929 118.199 60.3403 121.519 58.9835C121.519 56.6717 119.859 53.0533 120.211 50.3395C120.563 47.6256 120.966 33.7227 117.142 33.5036C113.319 33.2845 109.144 33.5036 109.144 33.5036Z" fill="#FF335D"/>
<path d="M112.9 35.6445C110.551 40.1309 110.125 45.2297 112.137 49.9874C107.652 53.9409 104.147 56.8611 102.109 57.3442C104.344 58.579 106.045 59.2551 107.815 59.5057C110.791 59.8685 118.987 60.2792 121.519 58.9833C121.315 56.2757 119.956 53.7399 120.207 50.3793C120.417 47.562 119.035 45.2525 118.719 44.1598C117.713 40.6753 112.9 35.6445 112.9 35.6445Z" fill="#F0A8C9"/>
<path d="M108.455 32.5648C108.455 32.5648 108.656 34.374 108.455 35.1781C110.065 36.7193 112.949 36.1163 114.223 34.7091C115.498 33.3019 115.363 30.4204 114.223 29.8845C113.083 29.3484 108.455 32.5648 108.455 32.5648Z" fill="#FFB29E"/>
<path d="M108.542 34.3304C108.542 34.3304 111.222 33.7572 111.792 32.6752C110.828 32.2216 108.455 32.5649 108.455 32.5649L108.542 34.3304Z" fill="#FF7D71"/>
<path d="M105.504 23.7204C104.967 31.6944 106.709 34.504 111.54 32.7665C113.217 32.1634 115.297 31.4264 115.632 29.5501C115.967 27.6739 114.868 19.5658 110.521 20.8391C106.174 22.1122 105.504 23.7204 105.504 23.7204Z" fill="#FFB29E"/>
<path d="M113.302 27.2621C109.747 29.1815 107.814 23.9297 105.457 24.532L105.505 23.7203C105.505 23.7203 107.609 22.7487 108.213 23C108.817 23.2513 113.302 27.2621 113.302 27.2621Z" fill="#FF7D71"/>
<path d="M105.505 23.72C107.433 23.251 109.444 26.2662 110.804 26.9818C113.168 28.2264 114.275 26.1659 114.728 27.5228C115.014 28.3823 114.929 30.2367 113.369 30.89C113.757 35.1362 111.223 39.4336 111.793 43.7556C112.151 46.4688 114.728 52.0004 119.909 51.9976C125.3 51.9947 127.633 44.0438 126.851 39.6848C125.543 32.3977 120.815 30.9403 119.154 24.3567C117.864 19.2398 115.778 17.3522 113.369 17.5218C109.798 17.7731 108.188 16.2152 106.528 16.768C105.93 16.9671 105.119 19.2622 105.119 20.7037C105.119 22.1454 105.505 23.72 105.505 23.72Z" fill="#292F52"/>
<path d="M103.207 50.1085L103.009 50.07C103.012 50.0549 103.015 50.04 103.018 50.0254C103.282 48.6695 102.493 47.62 102.485 47.6094L102.117 47.1294L102.62 47.4646C104.547 48.7478 106.727 49.0055 107.497 48.6929L107.577 48.8773C107.008 49.1392 106.239 49.1789 105.496 49.2174C104.409 49.2736 103.382 49.3266 103.215 50.0694C103.212 50.0825 103.209 50.0954 103.207 50.1085ZM102.875 47.8621C103.063 48.2234 103.295 48.8203 103.273 49.5469C103.707 49.1085 104.577 49.0636 105.486 49.0166C105.702 49.0054 105.921 48.9941 106.136 48.9772C105.2 48.8773 104.009 48.5343 102.875 47.8621Z" fill="#E50695"/>
<path d="M105.936 27.2298C105.935 27.5831 106.104 27.5614 106.313 27.624C106.521 27.6866 106.689 27.8101 106.69 27.4565C106.691 27.103 106.523 26.7655 106.315 26.7029C106.107 26.6404 105.937 26.8762 105.936 27.2298Z" fill="#292F52"/>
<path d="M108.785 28.2479C108.784 28.6011 108.954 28.6073 109.162 28.7043C109.371 28.8013 109.539 28.9525 109.54 28.5991C109.541 28.2457 109.373 27.8806 109.164 27.7834C108.956 27.6868 108.786 27.8946 108.785 28.2479Z" fill="#292F52"/>
<path d="M107.143 26.237C107.143 26.237 107.144 26.2312 107.146 26.2206C107.147 26.2097 107.152 26.1922 107.15 26.1733C107.148 26.1335 107.139 26.0773 107.105 26.0163C107.09 25.9849 107.07 25.9513 107.041 25.9197C107.015 25.8867 106.983 25.8528 106.946 25.8206C106.906 25.7892 106.865 25.7559 106.816 25.7281C106.768 25.6987 106.716 25.6722 106.661 25.6486C106.605 25.6254 106.548 25.6046 106.489 25.5898C106.431 25.5718 106.37 25.5623 106.313 25.5546C106.257 25.5445 106.2 25.5471 106.148 25.5469C106.096 25.5443 106.048 25.552 106.006 25.5603C105.92 25.5724 105.856 25.6012 105.815 25.6241C105.774 25.6469 105.753 25.6643 105.754 25.6645L105.745 25.6721C105.74 25.6768 105.742 25.6839 105.75 25.6883C105.752 25.69 105.756 25.6911 105.759 25.6914C105.759 25.6914 105.783 25.6938 105.825 25.6984C105.867 25.702 105.927 25.7092 105.998 25.7219C106.034 25.727 106.073 25.7334 106.112 25.7439C106.153 25.7533 106.195 25.7614 106.238 25.7755C106.325 25.8005 106.416 25.832 106.5 25.8707C106.676 25.9415 106.834 26.0372 106.94 26.1149C107.05 26.1918 107.111 26.2488 107.111 26.2488C107.117 26.2544 107.127 26.2564 107.134 26.2533C107.138 26.2519 107.14 26.2497 107.14 26.2472L107.143 26.237Z" fill="#FF7167"/>
<path d="M109.985 27.1769C109.985 27.1769 109.985 27.1711 109.988 27.1605C109.989 27.1496 109.993 27.1321 109.991 27.1132C109.99 27.0735 109.981 27.0172 109.947 26.9563C109.932 26.9248 109.912 26.8913 109.883 26.8597C109.857 26.8267 109.825 26.7927 109.788 26.7605C109.748 26.7291 109.707 26.6958 109.658 26.668C109.61 26.6387 109.558 26.6122 109.502 26.5885C109.447 26.5654 109.39 26.5446 109.331 26.5297C109.273 26.5118 109.212 26.5022 109.155 26.4945C109.099 26.4844 109.041 26.4871 108.99 26.4869C108.938 26.4842 108.89 26.492 108.847 26.5002C108.762 26.5124 108.698 26.5411 108.657 26.5641C108.616 26.5868 108.595 26.6042 108.595 26.6044L108.587 26.612C108.582 26.6167 108.584 26.6238 108.591 26.6282C108.594 26.6299 108.598 26.6309 108.601 26.6312C108.601 26.6312 108.625 26.6337 108.667 26.6383C108.709 26.6419 108.769 26.6491 108.84 26.6618C108.876 26.6669 108.914 26.6733 108.954 26.6838C108.995 26.6932 109.037 26.7013 109.08 26.7154C109.167 26.7404 109.257 26.7719 109.342 26.8106C109.518 26.8814 109.676 26.977 109.782 27.0548C109.892 27.1316 109.953 27.1887 109.953 27.1887C109.959 27.1943 109.969 27.1963 109.976 27.1932C109.98 27.1919 109.982 27.1896 109.982 27.1871L109.985 27.1769Z" fill="#FF7167"/>
<path d="M107.216 29.0732C107.216 29.0732 107.207 29.1016 107.191 29.1513C107.176 29.1992 107.146 29.2679 107.115 29.3512C107.051 29.5177 106.961 29.7414 106.912 29.9892C106.892 30.1134 106.876 30.2456 106.913 30.3801C106.93 30.4466 106.969 30.5133 107.023 30.5579C107.076 30.6028 107.138 30.624 107.19 30.6323C107.296 30.6494 107.374 30.6254 107.429 30.6166C107.482 30.6012 107.511 30.591 107.511 30.591C107.528 30.5852 107.537 30.5667 107.531 30.55C107.526 30.5373 107.515 30.5294 107.502 30.5286H107.5C107.5 30.5286 107.469 30.5271 107.419 30.5274C107.369 30.525 107.294 30.5215 107.224 30.4956C107.153 30.4677 107.105 30.4233 107.091 30.3358C107.076 30.2494 107.088 30.1371 107.11 30.0262C107.154 29.802 107.222 29.5706 107.254 29.3898C107.271 29.2996 107.276 29.2219 107.28 29.1666C107.283 29.1098 107.279 29.081 107.279 29.081L107.279 29.0782C107.276 29.0605 107.259 29.0486 107.242 29.0511C107.23 29.0532 107.22 29.0622 107.216 29.0732Z" fill="#FF7167"/>
<path d="M109.22 31.2733C109.22 31.2733 109.19 31.3006 109.142 31.3526C109.118 31.3816 109.087 31.4052 109.054 31.4315C109.021 31.4592 108.984 31.4888 108.939 31.5167C108.896 31.5477 108.847 31.5746 108.795 31.6017C108.745 31.6327 108.686 31.649 108.63 31.6777C108.571 31.6981 108.509 31.7182 108.446 31.7362C108.383 31.7531 108.319 31.7669 108.253 31.7758C108.188 31.7915 108.121 31.7915 108.056 31.7984C107.99 31.7967 107.926 31.8069 107.863 31.7986C107.799 31.7949 107.739 31.7923 107.681 31.7813C107.622 31.7758 107.568 31.7578 107.517 31.7495C107.467 31.7318 107.42 31.7205 107.379 31.7044C107.34 31.6842 107.302 31.6726 107.274 31.6565C107.217 31.622 107.182 31.6029 107.182 31.6029L107.175 31.5994C107.152 31.587 107.13 31.6053 107.126 31.6402C107.122 31.6659 107.13 31.6936 107.143 31.7113C107.143 31.7113 107.175 31.7527 107.233 31.8237C107.292 31.8877 107.382 31.9682 107.494 32.0363C107.55 32.0636 107.612 32.105 107.677 32.1241C107.742 32.1496 107.81 32.1739 107.881 32.1853C107.952 32.2026 108.025 32.2061 108.099 32.2128C108.172 32.2089 108.247 32.2117 108.319 32.1983C108.393 32.1905 108.464 32.1673 108.534 32.1457C108.605 32.1249 108.67 32.0887 108.734 32.0556C108.796 32.0161 108.857 31.9819 108.91 31.9313C108.936 31.9077 108.962 31.8852 108.987 31.8632C109.01 31.8363 109.032 31.8104 109.054 31.7857C109.097 31.7393 109.133 31.6849 109.164 31.6325C109.195 31.5835 109.22 31.5389 109.234 31.4994C109.267 31.4219 109.284 31.3754 109.284 31.3754C109.295 31.3449 109.287 31.3017 109.266 31.2788C109.251 31.2623 109.232 31.2611 109.22 31.2733Z" fill="#FF7167"/>
</g>
<path d="M104.343 57.9621C102.96 58.0247 100.978 57.0997 101.591 58.8341C100.187 58.6028 97.7167 59.7355 98.8317 61.2736C99.3532 61.9931 101.22 63.8551 102.607 63.0546C104.32 62.0651 105.429 61.0891 105.832 60.9154C105.731 59.4701 104.343 57.9621 104.343 57.9621Z" fill="#FFB29E"/>
<path d="M119.927 50.1882C120.195 52.3995 118.585 55.0797 117.445 55.75C116.304 56.4202 107.585 60.9096 105.412 61.5798C104.782 60.8428 103.305 59.3685 103.976 57.492C104.6 57.1563 114.091 51.7295 114.628 48.8594L119.927 50.1882Z" fill="#FF546B"/>
<path d="M11.4458 79.1732C11.4458 82.3304 8.88334 84.8905 5.72308 84.8905C2.56207 84.8905 0 82.3304 0 79.1732C0 76.0151 2.56207 73.4556 5.72308 73.4556C8.88329 73.4556 11.4458 76.0151 11.4458 79.1732Z" fill="#52D4A5"/>
<path d="M4.08515 81.0978C3.83795 81.0978 3.58994 81.0116 3.39264 80.8365L1.97306 79.576C1.8068 79.4283 1.79186 79.1743 1.93966 79.0082C2.08746 78.8424 2.3417 78.8276 2.50796 78.9749L3.92714 80.2354C4.02227 80.3202 4.17595 80.3123 4.26197 80.2189L6.93291 77.3245C7.08383 77.1611 7.33812 77.1507 7.50161 77.3013C7.66511 77.4519 7.67532 77.7061 7.5248 77.8694L4.85387 80.7638C4.64953 80.9853 4.36772 81.0978 4.08515 81.0978Z" fill="#F5F5F5"/>
<path d="M6.29892 81.1508C6.20108 81.1508 6.10359 81.1157 6.02617 81.0444C5.86267 80.8939 5.85246 80.6394 6.00298 80.4763L8.91125 77.3245C9.06217 77.1611 9.31646 77.1507 9.47996 77.3013C9.64345 77.4519 9.65366 77.7063 9.50315 77.8694L6.59487 81.0212C6.51544 81.1072 6.40738 81.1508 6.29892 81.1508Z" fill="#F5F5F5"/>
<path d="M137.58 5.86445C137.58 9.10306 134.952 11.7287 131.71 11.7287C128.468 11.7287 125.84 9.10306 125.84 5.86445C125.84 2.62539 128.468 7.21509e-10 131.71 7.21509e-10C134.952 -5.02555e-05 137.58 2.62534 137.58 5.86445Z" fill="#FF4962"/>
<path d="M134.713 8.10126L133.611 6.11905V4.02638C133.611 3.11785 132.867 2.37451 131.957 2.37451H131.461C130.552 2.37451 129.807 3.11785 129.807 4.02638V6.11905L128.705 8.10126H129.807H130.475C130.471 8.13966 130.469 8.17881 130.469 8.21836C130.469 8.84536 130.978 9.35395 131.606 9.35395C132.234 9.35395 132.743 8.84541 132.743 8.21836C132.743 8.17881 132.74 8.13966 132.737 8.10126H133.611H134.713Z" fill="#F5F5F5"/>
<path d="M130.834 109.562C122.144 105.419 127.979 98.3684 130.834 102.626C133.689 98.3684 139.524 105.419 130.834 109.562Z" fill="#FF4962"/>
<path d="M14.4882 12.6015C5.79791 8.45829 11.6334 1.40794 14.4882 5.66595C17.3431 1.40794 23.1785 8.45834 14.4882 12.6015Z" fill="#FF4962"/>
</svg>
