<svg width="90" height="48" viewBox="0 0 90 48" fill="none" xmlns="http://www.w3.org/2000/svg">
<path d="M9.00599 31.8362C13.9799 31.8362 18.012 27.8041 18.012 22.8302C18.012 17.8563 13.9799 13.8242 9.00599 13.8242C4.03212 13.8242 0 17.8563 0 22.8302C0 27.8041 4.03212 31.8362 9.00599 31.8362Z" fill="#5283F2"/>
<path d="M15.1559 11.5461C15.4227 11.5461 15.6776 11.4472 15.8809 11.2744C18.698 8.88083 22.3429 7.4337 26.3202 7.4337C29.8153 7.4337 33.1354 8.52865 35.9291 10.6019C37.4067 11.6985 39.4794 11.6897 40.8112 10.4206C42.5228 8.78983 42.3089 6.10123 40.5037 4.74051C36.3893 1.63897 31.4846 0 26.3199 0C18.4651 0 11.4978 3.86205 7.21036 9.78491C6.67947 10.5182 7.21595 11.5464 8.12134 11.5464L15.1559 11.5461Z" fill="#5283F2"/>
<path d="M58.7275 15.6461C57.243 14.2286 54.8904 14.2821 53.4722 15.7673C52.7281 16.5466 51.3227 18.3035 48.9029 21.3416C45.1315 26.0766 38.819 34.0007 36.3515 35.9863C33.9359 37.9308 31.0483 39.7304 26.3209 39.7304C21.6175 39.7304 17.3806 37.7064 14.4269 34.4866C14.2124 34.2527 13.9137 34.1137 13.5961 34.1137H7.12426C6.2573 34.1137 5.71558 35.0638 6.1663 35.8043C10.3069 42.6086 17.7899 47.1645 26.3206 47.1645C33.4103 47.1645 37.8965 44.2856 41.0122 41.7777C43.8867 39.4643 48.9196 33.2514 54.7173 25.9731C56.4779 23.7625 58.2985 21.4766 58.8484 20.9011C60.266 19.4168 60.2121 17.064 58.7275 15.6461Z" fill="#5283F2"/>
<path d="M80.4982 33.3401C85.4721 33.3401 89.5042 29.308 89.5042 24.3341C89.5042 19.3602 85.4721 15.3281 80.4982 15.3281C75.5243 15.3281 71.4922 19.3602 71.4922 24.3341C71.4922 29.308 75.5243 33.3401 80.4982 33.3401Z" fill="#FFE000"/>
<path d="M74.3435 35.6175C74.0768 35.6175 73.8218 35.7164 73.6185 35.8892C70.8014 38.2828 67.1565 39.7299 63.1792 39.7299C59.6841 39.7299 56.3644 38.635 53.5703 36.5617C52.0927 35.4651 50.02 35.474 48.6879 36.7433C46.9763 38.3741 47.1902 41.0627 48.9954 42.4234C53.1098 45.5246 58.0145 47.1639 63.1792 47.1639C71.034 47.1639 78.0012 43.3019 82.2887 37.3787C82.8196 36.6454 82.2831 35.6172 81.3777 35.6172L74.3435 35.6175Z" fill="#FFE000"/>
<path d="M30.7709 31.5183C32.2554 32.9359 34.608 32.8824 36.0262 31.3971C36.7703 30.6179 38.1757 28.861 40.5955 25.8228C44.3669 21.0879 50.6794 13.1637 53.1469 11.1782C55.5625 9.23366 58.4502 7.43403 63.1775 7.43403C67.8809 7.43403 72.1178 9.45803 75.0715 12.6778C75.286 12.9117 75.5847 13.0507 75.9023 13.0507H82.3738C83.2408 13.0507 83.7825 12.1006 83.3318 11.3602C79.1911 4.55589 71.7082 0 63.1775 0C56.0878 0 51.6015 2.8788 48.4859 5.38671C45.6113 7.70013 40.5785 13.9131 34.7808 21.1914C33.0202 23.402 31.1996 25.6878 30.6496 26.2634C29.2324 27.7476 29.2863 30.1005 30.7709 31.5183Z" fill="#FFE000"/>
</svg>
